<mxfile host="app.diagrams.net" agent="Mozilla/5.0 (Windows NT 10.0; Win64; x64) AppleWebKit/537.36 (KHTML, like Gecko) Chrome/141.0.0.0 Safari/537.36" version="28.2.5">
  <diagram name="Página-1" id="6CAupsV__flEeniP3BK9">
    <mxGraphModel dx="2451" dy="890" grid="1" gridSize="10" guides="1" tooltips="1" connect="1" arrows="1" fold="1" page="1" pageScale="1" pageWidth="1100" pageHeight="850" math="0" shadow="0">
      <root>
        <mxCell id="0" />
        <mxCell id="1" parent="0" />
        <mxCell id="FbaqpglJVMi_n5HGXFX3-2" value="Diagrama &lt;i&gt;Activity on Node&lt;/i&gt; (AoN) - Sistema SPCP - Fase 4" style="text;html=1;align=left;verticalAlign=middle;resizable=0;points=[];autosize=1;strokeColor=none;fillColor=none;" parent="1" vertex="1">
          <mxGeometry x="-1040" y="50" width="340" height="30" as="geometry" />
        </mxCell>
        <mxCell id="FbaqpglJVMi_n5HGXFX3-18" value="" style="edgeStyle=orthogonalEdgeStyle;rounded=0;orthogonalLoop=1;jettySize=auto;html=1;exitX=1;exitY=0.5;exitDx=0;exitDy=0;exitPerimeter=0;" parent="1" source="GO59VmF9hfBYoqBmSp0t-1" target="FbaqpglJVMi_n5HGXFX3-4" edge="1">
          <mxGeometry relative="1" as="geometry">
            <mxPoint x="-960" y="120" as="sourcePoint" />
          </mxGeometry>
        </mxCell>
        <mxCell id="FbaqpglJVMi_n5HGXFX3-4" value="1.4.1&lt;div&gt;Planificación de la fase&lt;div&gt;t=1 d&lt;/div&gt;&lt;/div&gt;" style="rounded=1;whiteSpace=wrap;html=1;absoluteArcSize=1;arcSize=14;strokeWidth=2;align=center;verticalAlign=top;" parent="1" vertex="1">
          <mxGeometry x="-978" y="80" width="99" height="80" as="geometry" />
        </mxCell>
        <mxCell id="FbaqpglJVMi_n5HGXFX3-16" value="" style="edgeStyle=orthogonalEdgeStyle;rounded=0;orthogonalLoop=1;jettySize=auto;html=1;" parent="1" source="FbaqpglJVMi_n5HGXFX3-5" target="FbaqpglJVMi_n5HGXFX3-6" edge="1">
          <mxGeometry relative="1" as="geometry" />
        </mxCell>
        <mxCell id="FbaqpglJVMi_n5HGXFX3-17" value="" style="edgeStyle=orthogonalEdgeStyle;rounded=0;orthogonalLoop=1;jettySize=auto;html=1;strokeColor=#FF0000;" parent="1" source="FbaqpglJVMi_n5HGXFX3-5" target="FbaqpglJVMi_n5HGXFX3-6" edge="1">
          <mxGeometry relative="1" as="geometry" />
        </mxCell>
        <mxCell id="FbaqpglJVMi_n5HGXFX3-5" value="&lt;div&gt;1.4.2&lt;/div&gt;&lt;div&gt;Doc. manual de usuario y operación&lt;div&gt;t=5 d&lt;/div&gt;&lt;/div&gt;" style="rounded=1;whiteSpace=wrap;html=1;absoluteArcSize=1;arcSize=14;strokeWidth=2;align=center;verticalAlign=top;" parent="1" vertex="1">
          <mxGeometry x="-858" y="80" width="100" height="80" as="geometry" />
        </mxCell>
        <mxCell id="FbaqpglJVMi_n5HGXFX3-6" value="1.4.3&lt;div&gt;Ficha de modelos y BN&lt;div&gt;t=3 d&lt;/div&gt;&lt;/div&gt;" style="rounded=1;whiteSpace=wrap;html=1;absoluteArcSize=1;arcSize=14;strokeWidth=2;align=center;verticalAlign=top;" parent="1" vertex="1">
          <mxGeometry x="-737" y="80" width="100" height="80" as="geometry" />
        </mxCell>
        <mxCell id="FbaqpglJVMi_n5HGXFX3-8" value="QG4" style="strokeWidth=2;html=1;shape=mxgraph.flowchart.decision;whiteSpace=wrap;" parent="1" vertex="1">
          <mxGeometry x="-330" y="240" width="40" height="40" as="geometry" />
        </mxCell>
        <mxCell id="FbaqpglJVMi_n5HGXFX3-10" value="" style="endArrow=classic;html=1;rounded=0;exitX=1;exitY=0.5;exitDx=0;exitDy=0;strokeColor=#FF0000;entryX=0;entryY=0.5;entryDx=0;entryDy=0;" parent="1" source="FbaqpglJVMi_n5HGXFX3-4" target="FbaqpglJVMi_n5HGXFX3-5" edge="1">
          <mxGeometry width="50" height="50" relative="1" as="geometry">
            <mxPoint x="-790" y="119.99000000000001" as="sourcePoint" />
            <mxPoint x="-760" y="120" as="targetPoint" />
          </mxGeometry>
        </mxCell>
        <mxCell id="FbaqpglJVMi_n5HGXFX3-14" value="" style="endArrow=classic;html=1;rounded=0;exitX=0.5;exitY=1;exitDx=0;exitDy=0;entryX=0.5;entryY=0;entryDx=0;entryDy=0;entryPerimeter=0;strokeColor=#FF0000;" parent="1" source="GO59VmF9hfBYoqBmSp0t-8" target="FbaqpglJVMi_n5HGXFX3-8" edge="1">
          <mxGeometry width="50" height="50" relative="1" as="geometry">
            <mxPoint x="-360" y="437.58000000000004" as="sourcePoint" />
            <mxPoint x="-320" y="437.58000000000004" as="targetPoint" />
            <Array as="points" />
          </mxGeometry>
        </mxCell>
        <mxCell id="FbaqpglJVMi_n5HGXFX3-20" value="" style="endArrow=classic;html=1;rounded=0;exitX=0.5;exitY=1;exitDx=0;exitDy=0;entryX=0.5;entryY=0;entryDx=0;entryDy=0;entryPerimeter=0;exitPerimeter=0;" parent="1" source="FbaqpglJVMi_n5HGXFX3-8" target="FbaqpglJVMi_n5HGXFX3-15" edge="1">
          <mxGeometry width="50" height="50" relative="1" as="geometry">
            <mxPoint x="-270" y="382.58" as="sourcePoint" />
            <mxPoint x="-230" y="382.58" as="targetPoint" />
          </mxGeometry>
        </mxCell>
        <mxCell id="FbaqpglJVMi_n5HGXFX3-21" value="F5" style="verticalLabelPosition=middle;verticalAlign=middle;html=1;shape=mxgraph.flowchart.on-page_reference;labelPosition=center;align=center;" parent="1" vertex="1">
          <mxGeometry x="-1040" y="419" width="40" height="40" as="geometry" />
        </mxCell>
        <mxCell id="FbaqpglJVMi_n5HGXFX3-22" value="1.5.1&lt;div&gt;Planificación de la fase&lt;div&gt;t=1 d&lt;/div&gt;&lt;/div&gt;" style="rounded=1;whiteSpace=wrap;html=1;absoluteArcSize=1;arcSize=14;strokeWidth=2;align=center;verticalAlign=top;" parent="1" vertex="1">
          <mxGeometry x="-981" y="399" width="101" height="80" as="geometry" />
        </mxCell>
        <mxCell id="FbaqpglJVMi_n5HGXFX3-23" value="1.5.2&lt;div&gt;&lt;div&gt;Despliegue en contenedores y orquestación&lt;/div&gt;&lt;div&gt;t=5 d&lt;/div&gt;&lt;/div&gt;" style="rounded=1;whiteSpace=wrap;html=1;absoluteArcSize=1;arcSize=14;strokeWidth=2;align=center;verticalAlign=top;" parent="1" vertex="1">
          <mxGeometry x="-857" y="399" width="97" height="80" as="geometry" />
        </mxCell>
        <mxCell id="FbaqpglJVMi_n5HGXFX3-24" value="1.5.4&lt;br&gt;&lt;div&gt;Cumplimiento normativo y seguridad&lt;div&gt;t=3 d&lt;/div&gt;&lt;/div&gt;" style="rounded=1;whiteSpace=wrap;html=1;absoluteArcSize=1;arcSize=14;strokeWidth=2;align=center;verticalAlign=top;" parent="1" vertex="1">
          <mxGeometry x="-619" y="399" width="99" height="80" as="geometry" />
        </mxCell>
        <mxCell id="FbaqpglJVMi_n5HGXFX3-25" value="1.5.3&lt;br&gt;&lt;div&gt;Copias de respaldo y restauración&lt;div&gt;t=3 d&lt;/div&gt;&lt;/div&gt;" style="rounded=1;whiteSpace=wrap;html=1;absoluteArcSize=1;arcSize=14;strokeWidth=2;align=center;verticalAlign=top;" parent="1" vertex="1">
          <mxGeometry x="-737" y="399" width="97" height="80" as="geometry" />
        </mxCell>
        <mxCell id="FbaqpglJVMi_n5HGXFX3-28" value="QG5&lt;div&gt;CP&lt;/div&gt;" style="strokeWidth=2;html=1;shape=mxgraph.flowchart.decision;whiteSpace=wrap;" parent="1" vertex="1">
          <mxGeometry x="-379" y="419" width="40" height="40" as="geometry" />
        </mxCell>
        <mxCell id="FbaqpglJVMi_n5HGXFX3-32" value="" style="endArrow=classic;html=1;rounded=0;exitX=1;exitY=0.5;exitDx=0;exitDy=0;exitPerimeter=0;entryX=0;entryY=0.5;entryDx=0;entryDy=0;" parent="1" source="FbaqpglJVMi_n5HGXFX3-21" target="FbaqpglJVMi_n5HGXFX3-22" edge="1">
          <mxGeometry width="50" height="50" relative="1" as="geometry">
            <mxPoint x="-990" y="438.5" as="sourcePoint" />
            <mxPoint x="-950" y="438.5" as="targetPoint" />
          </mxGeometry>
        </mxCell>
        <mxCell id="fjiwsdt_9cLcJGBCS1oQ-1" value="Diagrama &lt;i&gt;Activity on Node&lt;/i&gt; (AoN) - Sistema SPCP - Fase 5" style="text;html=1;align=left;verticalAlign=middle;resizable=0;points=[];autosize=1;strokeColor=none;fillColor=none;" parent="1" vertex="1">
          <mxGeometry x="-1040" y="369" width="340" height="30" as="geometry" />
        </mxCell>
        <mxCell id="fjiwsdt_9cLcJGBCS1oQ-7" value="" style="endArrow=classic;html=1;rounded=0;exitX=1;exitY=0.5;exitDx=0;exitDy=0;strokeColor=#FF0000;entryX=0;entryY=0.5;entryDx=0;entryDy=0;entryPerimeter=0;" parent="1" source="GO59VmF9hfBYoqBmSp0t-12" target="FbaqpglJVMi_n5HGXFX3-28" edge="1">
          <mxGeometry width="50" height="50" relative="1" as="geometry">
            <mxPoint x="-400" y="438.5" as="sourcePoint" />
            <mxPoint x="-360" y="438.5" as="targetPoint" />
          </mxGeometry>
        </mxCell>
        <mxCell id="fjiwsdt_9cLcJGBCS1oQ-9" value="Duración total = 23 d&lt;div&gt;&lt;br&gt;&lt;/div&gt;&lt;div&gt;Camino crítico = 20 d (5 h/d)&amp;nbsp;≈ 4 sem&lt;/div&gt;" style="text;html=1;align=left;verticalAlign=middle;resizable=0;points=[];autosize=1;strokeColor=none;fillColor=none;" parent="1" vertex="1">
          <mxGeometry x="-1000" y="286" width="220" height="60" as="geometry" />
        </mxCell>
        <mxCell id="fjiwsdt_9cLcJGBCS1oQ-10" value="" style="endArrow=classic;html=1;rounded=0;exitX=1;exitY=0.5;exitDx=0;exitDy=0;strokeColor=#FF0000;" parent="1" edge="1">
          <mxGeometry width="50" height="50" relative="1" as="geometry">
            <mxPoint x="-1040" y="330" as="sourcePoint" />
            <mxPoint x="-1000" y="330" as="targetPoint" />
          </mxGeometry>
        </mxCell>
        <mxCell id="fjiwsdt_9cLcJGBCS1oQ-11" value="Duración total = 15 d&lt;div&gt;&lt;br&gt;&lt;/div&gt;&lt;div&gt;Camino crítico = 15 d (5 h/d)&amp;nbsp;≈ 3 sem&lt;/div&gt;" style="text;html=1;align=left;verticalAlign=middle;resizable=0;points=[];autosize=1;strokeColor=none;fillColor=none;" parent="1" vertex="1">
          <mxGeometry x="-1000" y="530" width="220" height="60" as="geometry" />
        </mxCell>
        <mxCell id="fjiwsdt_9cLcJGBCS1oQ-12" value="" style="endArrow=classic;html=1;rounded=0;exitX=1;exitY=0.5;exitDx=0;exitDy=0;strokeColor=#FF0000;" parent="1" edge="1">
          <mxGeometry width="50" height="50" relative="1" as="geometry">
            <mxPoint x="-1040" y="574" as="sourcePoint" />
            <mxPoint x="-1000" y="574" as="targetPoint" />
          </mxGeometry>
        </mxCell>
        <mxCell id="fjiwsdt_9cLcJGBCS1oQ-13" value="" style="endArrow=none;dashed=1;html=1;rounded=0;" parent="1" edge="1">
          <mxGeometry width="50" height="50" relative="1" as="geometry">
            <mxPoint x="-1060" y="600" as="sourcePoint" />
            <mxPoint x="-1060" y="40" as="targetPoint" />
          </mxGeometry>
        </mxCell>
        <mxCell id="fjiwsdt_9cLcJGBCS1oQ-14" value="" style="endArrow=none;dashed=1;html=1;rounded=0;" parent="1" edge="1">
          <mxGeometry width="50" height="50" relative="1" as="geometry">
            <mxPoint x="-241" y="600" as="sourcePoint" />
            <mxPoint x="-241" y="39" as="targetPoint" />
          </mxGeometry>
        </mxCell>
        <mxCell id="fjiwsdt_9cLcJGBCS1oQ-15" value="" style="endArrow=none;dashed=1;html=1;rounded=0;" parent="1" edge="1">
          <mxGeometry width="50" height="50" relative="1" as="geometry">
            <mxPoint x="-240" y="600" as="sourcePoint" />
            <mxPoint x="-1060" y="600" as="targetPoint" />
          </mxGeometry>
        </mxCell>
        <mxCell id="fjiwsdt_9cLcJGBCS1oQ-16" value="" style="endArrow=none;dashed=1;html=1;rounded=0;" parent="1" edge="1">
          <mxGeometry width="50" height="50" relative="1" as="geometry">
            <mxPoint x="-240" y="359" as="sourcePoint" />
            <mxPoint x="-1060" y="359" as="targetPoint" />
          </mxGeometry>
        </mxCell>
        <mxCell id="fjiwsdt_9cLcJGBCS1oQ-17" value="" style="endArrow=none;dashed=1;html=1;rounded=0;" parent="1" edge="1">
          <mxGeometry width="50" height="50" relative="1" as="geometry">
            <mxPoint x="-240" y="40" as="sourcePoint" />
            <mxPoint x="-1060" y="40" as="targetPoint" />
          </mxGeometry>
        </mxCell>
        <mxCell id="GO59VmF9hfBYoqBmSp0t-1" value="F4" style="verticalLabelPosition=middle;verticalAlign=middle;html=1;shape=mxgraph.flowchart.on-page_reference;labelPosition=center;align=center;" parent="1" vertex="1">
          <mxGeometry x="-1040" y="100" width="40" height="40" as="geometry" />
        </mxCell>
        <mxCell id="GO59VmF9hfBYoqBmSp0t-3" value="1.4.4&lt;div&gt;Dataset demo reproducible&lt;div&gt;t=3 d&lt;/div&gt;&lt;/div&gt;" style="rounded=1;whiteSpace=wrap;html=1;absoluteArcSize=1;arcSize=14;strokeWidth=2;align=center;verticalAlign=top;" parent="1" vertex="1">
          <mxGeometry x="-619" y="80" width="100" height="80" as="geometry" />
        </mxCell>
        <mxCell id="GO59VmF9hfBYoqBmSp0t-4" value="1.4.5&lt;div&gt;Cortes, manifiesto y trazabilidad de cálculos&lt;div&gt;t=3 d&lt;/div&gt;&lt;/div&gt;" style="rounded=1;whiteSpace=wrap;html=1;absoluteArcSize=1;arcSize=14;strokeWidth=2;align=center;verticalAlign=top;" parent="1" vertex="1">
          <mxGeometry x="-488" y="80" width="100" height="80" as="geometry" />
        </mxCell>
        <mxCell id="GO59VmF9hfBYoqBmSp0t-5" value="1.4.6&lt;div&gt;Capacitación y entrenamiento&lt;div&gt;t=3 d&lt;/div&gt;&lt;/div&gt;" style="rounded=1;whiteSpace=wrap;html=1;absoluteArcSize=1;arcSize=14;strokeWidth=2;align=center;verticalAlign=top;" parent="1" vertex="1">
          <mxGeometry x="-490" y="200" width="100" height="80" as="geometry" />
        </mxCell>
        <mxCell id="GO59VmF9hfBYoqBmSp0t-6" value="" style="edgeStyle=orthogonalEdgeStyle;rounded=0;orthogonalLoop=1;jettySize=auto;html=1;entryX=0;entryY=0.5;entryDx=0;entryDy=0;exitX=1;exitY=0.5;exitDx=0;exitDy=0;strokeColor=#FF0000;" parent="1" source="FbaqpglJVMi_n5HGXFX3-6" target="GO59VmF9hfBYoqBmSp0t-3" edge="1">
          <mxGeometry relative="1" as="geometry">
            <mxPoint x="-700" y="110" as="sourcePoint" />
            <mxPoint x="-661" y="110" as="targetPoint" />
          </mxGeometry>
        </mxCell>
        <mxCell id="GO59VmF9hfBYoqBmSp0t-7" value="" style="edgeStyle=orthogonalEdgeStyle;rounded=0;orthogonalLoop=1;jettySize=auto;html=1;entryX=0;entryY=0.5;entryDx=0;entryDy=0;exitX=1;exitY=0.5;exitDx=0;exitDy=0;strokeColor=#000000;" parent="1" source="GO59VmF9hfBYoqBmSp0t-3" target="GO59VmF9hfBYoqBmSp0t-4" edge="1">
          <mxGeometry relative="1" as="geometry">
            <mxPoint x="-567" y="120" as="sourcePoint" />
            <mxPoint x="-528" y="120" as="targetPoint" />
          </mxGeometry>
        </mxCell>
        <mxCell id="FbaqpglJVMi_n5HGXFX3-12" value="" style="endArrow=classic;html=1;rounded=0;entryX=0;entryY=0.5;entryDx=0;entryDy=0;strokeColor=#FF0000;exitX=1;exitY=0.5;exitDx=0;exitDy=0;" parent="1" source="GO59VmF9hfBYoqBmSp0t-3" target="GO59VmF9hfBYoqBmSp0t-5" edge="1">
          <mxGeometry width="50" height="50" relative="1" as="geometry">
            <mxPoint x="-440" y="120" as="sourcePoint" />
            <mxPoint x="-400" y="240" as="targetPoint" />
            <Array as="points">
              <mxPoint x="-510" y="120" />
              <mxPoint x="-510" y="180" />
              <mxPoint x="-510" y="240" />
            </Array>
          </mxGeometry>
        </mxCell>
        <mxCell id="GO59VmF9hfBYoqBmSp0t-8" value="1.4.7&lt;div&gt;&lt;span style=&quot;background-color: transparent; color: light-dark(rgb(0, 0, 0), rgb(255, 255, 255));&quot;&gt;Validaciones finales y UAT&lt;/span&gt;&lt;div&gt;&lt;div&gt;t=5 d&lt;/div&gt;&lt;/div&gt;&lt;/div&gt;" style="rounded=1;whiteSpace=wrap;html=1;absoluteArcSize=1;arcSize=14;strokeWidth=2;align=center;verticalAlign=top;" parent="1" vertex="1">
          <mxGeometry x="-360" y="130" width="100" height="80" as="geometry" />
        </mxCell>
        <mxCell id="GO59VmF9hfBYoqBmSp0t-10" value="" style="endArrow=classic;html=1;rounded=0;entryX=0;entryY=0.5;entryDx=0;entryDy=0;exitX=1;exitY=0.5;exitDx=0;exitDy=0;" parent="1" source="GO59VmF9hfBYoqBmSp0t-4" target="GO59VmF9hfBYoqBmSp0t-8" edge="1">
          <mxGeometry width="50" height="50" relative="1" as="geometry">
            <mxPoint x="-380" y="120" as="sourcePoint" />
            <mxPoint x="-348" y="180" as="targetPoint" />
            <Array as="points">
              <mxPoint x="-370" y="120" />
              <mxPoint x="-370" y="170" />
            </Array>
          </mxGeometry>
        </mxCell>
        <mxCell id="GO59VmF9hfBYoqBmSp0t-9" value="" style="endArrow=classic;html=1;rounded=0;entryX=0;entryY=0.5;entryDx=0;entryDy=0;strokeColor=#FF0000;exitX=1;exitY=0.5;exitDx=0;exitDy=0;" parent="1" source="GO59VmF9hfBYoqBmSp0t-5" target="GO59VmF9hfBYoqBmSp0t-8" edge="1">
          <mxGeometry width="50" height="50" relative="1" as="geometry">
            <mxPoint x="-520" y="220" as="sourcePoint" />
            <mxPoint x="-491" y="340" as="targetPoint" />
            <Array as="points">
              <mxPoint x="-370" y="240" />
              <mxPoint x="-370" y="210" />
              <mxPoint x="-370" y="170" />
            </Array>
          </mxGeometry>
        </mxCell>
        <mxCell id="GO59VmF9hfBYoqBmSp0t-11" value="" style="endArrow=none;dashed=1;html=1;rounded=0;" parent="1" target="FbaqpglJVMi_n5HGXFX3-15" edge="1">
          <mxGeometry width="50" height="50" relative="1" as="geometry">
            <mxPoint x="-300" y="320" as="sourcePoint" />
            <mxPoint x="-1060" y="320" as="targetPoint" />
          </mxGeometry>
        </mxCell>
        <mxCell id="FbaqpglJVMi_n5HGXFX3-15" value="F5" style="verticalLabelPosition=middle;verticalAlign=middle;html=1;shape=mxgraph.flowchart.on-page_reference;labelPosition=center;align=center;" parent="1" vertex="1">
          <mxGeometry x="-330" y="300" width="40" height="40" as="geometry" />
        </mxCell>
        <mxCell id="GO59VmF9hfBYoqBmSp0t-12" value="1.5.5&lt;br&gt;&lt;div&gt;Soporte inicial y ajustes post-salida&lt;div&gt;t=3 d&lt;/div&gt;&lt;/div&gt;" style="rounded=1;whiteSpace=wrap;html=1;absoluteArcSize=1;arcSize=14;strokeWidth=2;align=center;verticalAlign=top;" parent="1" vertex="1">
          <mxGeometry x="-499" y="399" width="99" height="80" as="geometry" />
        </mxCell>
        <mxCell id="GO59VmF9hfBYoqBmSp0t-13" value="" style="endArrow=classic;html=1;rounded=0;exitX=0.5;exitY=1;exitDx=0;exitDy=0;entryX=0;entryY=0.5;entryDx=0;entryDy=0;entryPerimeter=0;exitPerimeter=0;" parent="1" source="FbaqpglJVMi_n5HGXFX3-28" target="GO59VmF9hfBYoqBmSp0t-2" edge="1">
          <mxGeometry width="50" height="50" relative="1" as="geometry">
            <mxPoint x="-339" y="439" as="sourcePoint" />
            <mxPoint x="-280" y="439" as="targetPoint" />
            <Array as="points">
              <mxPoint x="-359" y="530" />
            </Array>
          </mxGeometry>
        </mxCell>
        <mxCell id="GO59VmF9hfBYoqBmSp0t-2" value="Fin&lt;br&gt;15/05/2026" style="ellipse;whiteSpace=wrap;html=1;aspect=fixed;" parent="1" vertex="1">
          <mxGeometry x="-340" y="490" width="80" height="80" as="geometry" />
        </mxCell>
        <mxCell id="GO59VmF9hfBYoqBmSp0t-15" value="" style="edgeStyle=orthogonalEdgeStyle;rounded=0;orthogonalLoop=1;jettySize=auto;html=1;strokeColor=#FF0000;" parent="1" edge="1">
          <mxGeometry relative="1" as="geometry">
            <mxPoint x="-759" y="441" as="sourcePoint" />
            <mxPoint x="-738" y="441" as="targetPoint" />
          </mxGeometry>
        </mxCell>
        <mxCell id="GO59VmF9hfBYoqBmSp0t-16" value="" style="endArrow=classic;html=1;rounded=0;exitX=1;exitY=0.5;exitDx=0;exitDy=0;strokeColor=#FF0000;entryX=0;entryY=0.5;entryDx=0;entryDy=0;" parent="1" edge="1">
          <mxGeometry width="50" height="50" relative="1" as="geometry">
            <mxPoint x="-880" y="441" as="sourcePoint" />
            <mxPoint x="-859" y="441" as="targetPoint" />
          </mxGeometry>
        </mxCell>
        <mxCell id="GO59VmF9hfBYoqBmSp0t-17" value="" style="edgeStyle=orthogonalEdgeStyle;rounded=0;orthogonalLoop=1;jettySize=auto;html=1;entryX=0;entryY=0.5;entryDx=0;entryDy=0;exitX=1;exitY=0.5;exitDx=0;exitDy=0;strokeColor=#FF0000;" parent="1" edge="1">
          <mxGeometry relative="1" as="geometry">
            <mxPoint x="-638" y="441" as="sourcePoint" />
            <mxPoint x="-620" y="441" as="targetPoint" />
          </mxGeometry>
        </mxCell>
        <mxCell id="GO59VmF9hfBYoqBmSp0t-18" value="" style="edgeStyle=orthogonalEdgeStyle;rounded=0;orthogonalLoop=1;jettySize=auto;html=1;entryX=0;entryY=0.5;entryDx=0;entryDy=0;exitX=1;exitY=0.5;exitDx=0;exitDy=0;strokeColor=#FF0000;" parent="1" edge="1">
          <mxGeometry relative="1" as="geometry">
            <mxPoint x="-517" y="441" as="sourcePoint" />
            <mxPoint x="-499" y="441" as="targetPoint" />
          </mxGeometry>
        </mxCell>
        <mxCell id="Mhyydyf9IM0Syhhf58Z5-1" value="" style="shape=image;verticalLabelPosition=bottom;labelBackgroundColor=default;verticalAlign=top;aspect=fixed;imageAspect=0;image=data:image/png,iVBORw0KGgoAAAANSUhEUgAABuIAAAU8CAYAAADBqYNsAAAAAXNSR0IArs4c6QAAAARnQU1BAACxjwv8YQUAAAAJcEhZcwAAHYcAAB2HAY/l8WUAAP6GSURBVHhe7N17dF71eeD7x5ZlybJfy7JsyZaNLQwWJg4Y7AZCTJrQBE/IZXCbpknoSdpAhmRYSdoZhmRW08vphZ5p2sxpC4tps5oypzQkTUsKEwqpkwzpBIcAgWAIYGRsC+Ob5Issy5Yly7LOH7KM9pZ80WVL7/vq81mLtbyf3yvFyKRdK1+e357S29vbGwAAAAAAAMCYmpoeAAAAAAAAAKMnxAEAAAAAAEAGhDgAAAAAAADIgBAHAAAAAAAAGRDiAAAAAAAAIANCHAAAAAAAAGRAiAMAAAAAAIAMCHEAAAAAAACQASEOAAAAAAAAMjClt7e3Nz0kW11dXdHc3JweD6mysjIqKyvTY8hLTdt3pUfAOFiwcH6Ul09PjwEAAACACSbEZWDHjh3R2toara2t8frrr0dHR0fs3bs3du/enf7osNTV1cWCBQuioqIiLrjggqiqqoqqqqqora2NsrKy9Mchc03bd8UTP3ohfvrslnht+/70MTCOll44L65cvTyuuLIhLn3TsvQxAAAAADABhLhR2rFjR2zbti1ef/312LZt26hj20j1R7pLLrkkli1bJs6Rqabtu+Lv/+478cKmHekjIA8svXBefOSmd8fqNZemjwAAAACAcSTEDVN/eHvllVfi2WefTR/nlYaGhnjTm94UF110UTQ0NKSPYdgOHWqP//m3344nHn8lfQTkoctWLYlPfurGWLBgXvoIAAAAABgHQtw5dHV1xebNm+P555+PTZs2RXt7e/ojBePaa6+NhoaGWLFihffOMWx79+6P3/viV+NQa0f6CMhjc6oq4lO3/XvbcQAAAAAwAYS4IQyMb48//nj6eFja2trixIkTpwPeoUOHoqurK3He1NQ04CsiampqYuHChaefy8rKYs6cORERkcvlYtq0aTFr1qwoKSkZ8FXD09DQEO9+97tjxYoVrrDknJ595uX4kzu/kR6fduxYexxs3RUHWndGRMTmxh+lPwJkYEXD2yIiYnauJqrnLo7crLnpj5z2uf/8i7H22ivSYwAAAAAgQ0LcAC0tLfHDH/4wnnjiiWFvvh09ejSOHDkShw8fjoMHD8aePXuipaUl/bEx1R/s5s6dGzNmzIiqqqqYOXNm+mPntG7durjssstcX8mQ9u7dH79x213pcUREHGprjhc3/1vs2r05fQRMgEV1K+KS5dfEvLkXpI8iIuILX/yIzTgAAAAAGEdCXERs2rQpvve970VjY2P66IyOHj0ara2tsX///mhqaso8ug3HqlWrora2NqqqqoZ1BWVdXV285z3viSuuuMKWHBGn3gn3hdvvGXQdZU/PiXhx8w9svkGeWla/Oi5f+a6YPn1GYj6nqiJ+/85bvDMOAAAAAMbJpA1xXV1d8cQTT8TDDz98XttvPT09sX///ti/f39s2bIlr8Lb2dTU1ER9fX0sXLgw5s2bd17XWeZyuXjXu94Vb3vb24YV8ig+f/7f748nHn8lMTt2rD1e3Pxvsa3p2cQcyC9zqxbF2qt/JWbMyCXmSy+cF1/68mcTMwAAAAAgG5MuxA0nwPXHtz179sRTTz2VPi5Iq1ativr6+vOOcuvWrYt3v/vdgtwk1LR9V3zh9q8kZj09J+Knz39HhIMCMbdqUfz8224atBnnikoAAAAAGB+TJsQNJ8C1tbXFzp07C2rzbSSuuuqquOCCC6K6ujp9NIggN/kMtQ33/Ivfcx0lFJhl9avj5658f2K29MJ58Qd3firKy6cn5gAAAADA2JoUIe7JJ5+Mf/zHfzxrgOvfftu0aVM0NTWlj4tafX19NDQ0xAUXXHDWLblcLhfvf//745prrvEOuSI31DZc+5GD8eh3707MgMLwjrX/V9TWLEvMbMUBAAAAQPaKOsTt2LEj7r333ti9e3f66LSenp54/fXX47nnnivq7bfzUVNTE8uXL4+LL774rKGtrq4u1q9fH6tWrUofUSQeevAHcf/fPZaYbXzym7Fr9+bEDCgMc6sWxXVv/7UoKZl2enb9e66IT976i4nPAQAAAABjqyhDXFdXV3zzm9+Mxx9/PH10mgB3dmvXrj1nkFu9enV85CMfcV1lEfqj3/9qvLBpx+nnY8fa49vf+X8TnwEKy7pf+FTMqaxNzP7hW7+feAYAAAAAxlbRhbhNmzbFfffdd8ZrKAW44TmfIPfRj3403vnOd6bHFLAP/9LvJZ6bW7bFv238+8QMKCyrV90QFy97S2L2F/d8NhYsmJeYAQAAAABjZ2p6UKi6urrivvvui3vuueeMEW7nzp3x7W9/OzZs2CDCnaeNGzfGo48+Gk1NTdHT05M+joiIr3/96/HlL3/Zz7RING3flR5F875t6RFQYDqOtaVH0XmsKz0CAAAAAMZQUYS4xsbG+OIXv3jGqyjb2tpiw4YN8cgjj4hFI9DS0hIbNmyI73//+3HgwIH0ccSpP4MvfelL8eSTT6aPAMgDmxt/lB7FwYOH0yMAAAAAYAwVfIh79NFH48tf/vKQW3A9PT3x4osvxj/8wz9EU1NT+phhampqigceeCCefPLJ6OoavEXR3t4ef/u3fxv33XffkOcUrpZ9r6VHQBE4cGDwlhwAAAAAMHYKNsS1tbXFl7/85XjwwQfTRxERceDAgfj2t78dGzduTB8xSps2bYpHH300du7cmT6KiIjHH388/tt/+2+2D4vIwdbB11UCAAAAAABnV5AhbseOHfGHf/iH0djYmD6Knp6eeO655+KBBx4QgjLU0tISjzzyyBm343bv3h1f+tKXYtOmTekjAAAAAACASaHgQtymTZvizjvvHPIqyra2tvj+978fTz31VPqIjPRvxw317rj29va455574tFHH00fAQAAAAAAFL2CCnGPPvpo3HPPPelxxKn3l3kX3MRoaWmJBx54IF588cX0UUREPPjgg/HAAw8MuTkHAAAAAABQrAomxD3wwANDvg+u/yrKDRs2pI8YZxs3boz/83/+z5DBbcOGDXH33XcPeQYAAAAAAFCM8j7EdXV1xV//9V8PGdqOHj0aGzdudBVlHtm8eXM8+uijcfTo0fRRNDY2inEAAAAAAMCkkdchrqurK+6+++549tln00dx9OjR+O53vxubN29OHzHBWlpa4mtf+1o0Nzenj8Q4AAAAAABg0sjbENcf4RobG9NH0dzcHF/72teipaUlfUQeeeihh2Lnzp3psRgHAAAAAABMCnkZ4s4V4R566KH0mDz1yCOPxIsvvpgei3EAAAAAAEDRy8sQJ8IVl40bN4pxAAAAAADApJN3Ie6BBx4YMsK9+OKLIlwBE+MAAAAAAIDJJq9C3AMPPBAbNmxIj2Pnzp2xcePG9JgCc7YY981vfjM9BgAAAAAAKGh5E+I2bdo0ZIRrbm6ORx55JD2mQJ0pxj3++OPxwAMPpMcAAAAAAAAFKy9CXGNjY9xzzz3psXfCFamNGzfGli1b0uPYsGFDbNq0KT0GAAAAAAAoSBMe4lpaWuIrX/lKehxtbW0iXBF77LHHorm5OT2Oe+65J3bs2JEeAwAAAAAAFJwJDXFdXV1x3333RXt7e2J+9OjReOyxxxIzis9DDz0UBw4cSI/jL//yL6Orqys9BgAAAAAAKCgTGuIefvjhaGxsTMx6enpi48aN0dLSkphTnH74wx/G0aNHE7P29va4++67EzMAAAAAAIBCM2EhbtOmTbFhw4b0OH7yk59EU1NTekyRamlpiWeeeSZ6enoS88bGxvjBD36QmAEAAAAAABSSCQlxbW1tcd9996XHsWXLlti0aVN6TJHbvHlzvPDCC+lxfP3rX/e+OAAAAAAAoGBNSIj7xje+Mei9cAcOHPBeuEnsqaeeip07d6bHce+993pfHAAAAAAAUJDGPcT94Ac/iGeffTYx6+npiR/+8IeJGZPPI488Muh9cbt3747//b//d2IGAAAAAABQCMY1xLW1tcXDDz+cHsdPfvKTaGlpSY+ZhIZ6X9yDDz7oikoAAAAAAKDgjGuIG+pKyp07d3ovHKdt3rw5tm3blh67ohIAAAAAACg44xbiNm3aNOhKyq6urvjJT36SmMFjjz0WbW1tidnu3bvjiSeeSMwAAAAAAADy2biEuK6urrjvvvvS43juuedcScmQnnzyyfQovv71rw8KdAAAAAAAAPlqXELcE088MehKygMHDriSkjNqamqKpqam9Dj+1//6X+kRAAAAAABAXso8xLW1tcXXv/71xKynpyd++MMfJmaQtmHDhkHvhXv88cdjx44diRkAAAAAAEA+yjzEfe9730uP4vXXX3clJefl5ZdfTo/i0UcfTY8AAAAAAADyTqYhrq2tLTZs2JCYdXV1DZrBmTz11FOD3gv37LPP2ooDAAAAAADyXqYhbqhtuFdffTU9grPavHlzemQrDgAAAAAAyHuZhbgzbcNt3LgxMYNz2bRpUzQ3NydmtuIAAAAAAIB8l1mIsw3HWNq0aVN6ZCsOAAAAAADIa5mEONtwjLWmpiZbcQAAAAAAQEHJJMT99Kc/TY9swzFqTU1N6VE8/fTT6REAAAAAAEBeyCTEPfzww4ln23CMhU2bNkVbW1titmHDhkEzAAAAAACAfDDmIW7Tpk3R3t6emLk+kLGyffv29GjIDUwAAAAAAICJNuYh7sc//nHiuaenJ1588cXEDEbqqaeeiq6ursTs3/7t3xLPAAAAAAAA+WBMQ1xbW1s8++yzidn+/fujpaUlMYPRSG9Y7t69OxobGxMzAAAAAACAiTamIe5HP/pRehSvvPJKegSjMtT1lC+88EJ6BAAAAAAAMKHGNMQ99dRTieeurq7YvHlzYgaj1dTUFAcOHEjMNmzYMOjKSgAAAAAAgIk0ZiGupaUldu/enZilrxCEsbJ37970SPQFAAAAAADyypiFuGeeeSY9GvIKQRgLGzdujJ6ensTs+eefTzwDAAAAAABMpDELcelrKY8ePRpNTU2JGYyl/fv3J54ff/zxxDMAAAAAAMBEGpMQ19bWNuhayvRzYSqL6osuizVr1sSaNZfFRdVl6Q8M0/y46PLVsWbNmlh96eIY+Xcbq+9T2Pbs2ZMeRWNjY3oEAAAAAAAwIcYkxA31bq6hIgmMpaE2Lrdu3ZoeAQAAAAAATIgxCXHpLaSurq4h4xz7Yuvzz8YzzzwTz768M7rSx+dtrL5PYWtpaYm2trbELH1FKgAAAAAAwEQZkxC3adOmxPOhQ4cSz5CVlpaWxPPu3bsHxTkAAAAAAICJMOoQ19LSEu3t7YnZ/v37E8+QlaGuQB3qykoAAAAAAIDxNuoQt3379vQodu3alR4VmVwsvvTKWLNmTaxZfWksrlwQSxtWxpVr1vTN1qyJNZdfGhctXRC5xNfNj4suXx1r1qyJ1ZcujrLEWUSUVsfiZQ2x8soB32fNFbGyYVksrp4x4IPn+D65BbH0ovT3WR2XX3pxLF0wO/3pgrZ58+bo6elJzHbv3p14BgAAAAAAmAijDnFDvR9uUm0kTSmP+csWxbxcefKHWVoRc+bVxYUXzY/SgfMzKK2uj5Vvro/aqlyUJ75RSZTnqqK2fnk0nDOilUZuwUWx8uJFMW9O+vtMidKKypi36OK4vKEuFQgL25EjRxLPL730UuIZAAAAAABgIow6xG3bti3xPPneDzc1pk7tic7DzdH0/DPxzDMvRVPzkeiO6Itfc2qibvY5Ulzp/FiyaO6pcNYb3Uf3DfG9SiO3sC4W587yvXK1sXjhnFPfZ+Dv6flo3HUgOrp7+35PuQXnHQgLQWtra+I5HYcBAAAAAAAmwqhCXFdX16BrAA8fPpx4Ln690X1oVzRu2RkHuiMijsWBna9HS/uJU+fTo2J2efJLUkqrqyJXOiUiIk52tMT2zTsGfK8dsfvQ8b4PTp0RlXNnJb72DRWxYGF1VJyKcB3N2+PF07+n7mjf2xQvb2+JjpNxKsZVRXWRlLjm5ub0KHbs2JEeAQAAAAAAjKtRhbihAsjBgwfToyLXHUcPHT61tdavI1o7jkdvYnYmFVE9e0aURETEiTjaejDaE+fHYv/WF+KZZ56JZ575abz4WnL76w0zY2Z533eJno5obW5LfyCivTl2Hezs+3XJjJhdXZH+REHas2dPejTkDAAAAAAAYDyNKsQNFTs2bdqUHhW33hPRdaQrPR2GsigrPfXH0Hs8Olo70h84P2VlMX1a31Zdb1dHtCbL4CndcayrO3oi+t49N3Nm+gMFqaWlJXp6+v6u+k2+IAwAAAAAAOSbUYW4dOzo6hpNkJqspsW0kr6ANh66u3viZHpYBI4cOZJ4djUlAAAAAAAw0UYV4tKxo7Pz1LWHDMOJONFzfpdYjoXS0pJTf+i90XOi/z12ha+9PXmh5969exPPAAAAAAAA421UIS69hZSOIZyPrujqPrWjNmV6VFQN8d622Utj5Zo1sWbNmlizcmnMTp9HRHR1xfETfUFvSllFVJWmPxARURozykpPvY/uZHQX0QbjiVRU3L17d+IZAAAAAABgvI0qxDU2Niae0zGE89ERBw4fO/Xetmkxs2pu5BLnpTG7alaUR0TEyeg8cjgOJ877HY2jnafek1ZSEdV182JQi8vVxqK5fd8pTnZFx9EhXyRXkJqbm9OjaGtrS48AAAAAAADGzYhD3FDvgzt06FB6xHnoPtAa7d1922xTK+bFkuWLo7o0ImJGVC9eFvXz+uPZsWg7mNxCfENH7N1zIDpORkSURPm8xdFw+vuURm5BfVx6YU1UTI2I6I3uwweiub14QtxQJmuIO3bs2KD3NwIAAAAAAONvxCFuqA2koeIc56F7X+zYtT+Odvf2RbTZtVF/+ZpYs+ZNUV8769RmW3e079kdO88Wz9qbY+eeQ9HZH+NOf5/Lo2FRdVSUTumLcO17Y/vWfXGW71RwNm3alB5NWjNmzIibb7457r77bkEOAAAAAAAm0IhD3FAm6wbSWOg+sCM2v/xaNLe2nwpp/Xqis701mpu2ROPeoS+lfEN3tO/dGi++uiv2H0p/n97o7miL/btejecbd8dkeJvftm3b0qNJ44477ojPfvazUV1dLcgBAAAAAMAEmdLb29t3J+Iw7dixI+68887E7Ctf+UriGcbTrbfemnj+6Ec/Gu985zsTs8lk/fr18dBDD51+vuuuu+Kmm26KuXPnJj6X1rR9V3zh9uR/l7/5z3+QeAYK06/84u8mnj/56Rvi+nVvTcwAAAAAgLEz4o24ybxtRH6ykZl0xx13JJ5tyAEAAAAAwPgacYgD8tvatWvjxhtvTI8FOQAAAAAAGCdCHEXrlVdeSY8mnfRW3ECCHAAAAAAAZGvMQpxrASH/nGkrbiBBDgAAAAAAsjFmIQ7IT2fbihuoP8h9/evfTB8BAAAAAAAjIMRRtB577LGYMmXKpP/r2muvTf9ozurv/r9/So8AAAAAAIAREOIAAAAAAAAgA2MW4qZNm5YeAQAAAAAAwKQ1ZiFu5syZ6RFMqPe9733R29s76f+666670j+aM7rjjjvif/z1n6bHAAAAAADACIxZiIN8c8EFF6RHk87Bgwfjs5/9bHo8yB133BGvvPJKfOlLX4r6pUvTxwAAAAAAwAiMOMTNmDEjPYIJ5XrUwe6///70KGFggGtoaEgfAwAAAAAAozDiELdw4cL0CCaU61GTzrYNJ8ABAAAAAED2pvT29vamh+djx44dceeddyZmTz75ZGzatCkxG73SyC2oi5qqyphTUfrG+GRntB8+Eodbdsfe9u6BX3BaafXiWFIzN/F1Jzvb4/CRw9Hy2t5oT3x6oNKYvbQhls8rj572XfFi494Y6j+hdEFDrFyUi5LuQ9H0/NY4kP5AyrA+P3tprFw+L8p72mPXi42xtzsiYkZUL14Qc3K55M8iuqPjUFu0nvFnMTsWLK2JqsrZUVE65fT0nD+L0upYfEFV5GYlvy66O+JQW+sZvq4qlq6sj3nlZ2u8J6Oj+dV4eefgrx6NW2+9NfF88803x9VXX52YTSZ33333oBB3xx13xCc/+cmzxrem7bviC7d/JTH75j//QeIZKEy/8ou/m3j+5KdviOvXvTUxAwAAAADGztlqyVmVl5enRxkojdzii+LiRfNS4SkippZHbs68WHTx8lhanb4mszRyC5bHpfW1g75uanku5sxbFBevrI/q1Ld8w6yomjU9Ik5Gd1fXkBEucovj4oW5KEnPz2RYny+N2VWzojwiorsrOrqjL6Y1LI/62mRY7P98xZx5sajh0mhYMDt1VhmLL10Wi+ZVJmPauX4WubpouHRp1FYN/roorYg58xZFw+XLY0Eu9YWlZVFWOuJ/rEasvr4+PZrUW5vpbTgbcAAAAAAAMP5GXExqamrSo5g1a1Z6NDq52lg8f2bfb/JkZxxubornn3kmnnm+KZoPd8bJiIipM2JuTXXkBn7d7LpYsmh2lEZEdB+NA7u2xDPPPBPPNO6KA31VK6aWz41FS+b3fSZt9uyYVT41Io7HkdYj6dMorV4SKy6siYrz/OkN9/MDQ2DnkcNxOEojt7guFp6KXic722N//9/TM1ti14Gjp2JhaeQW1sXi03GsNHKLF8b8ir78d7LzcDQ3vRTPPPNMPN/UHIc7eyIiYmr5nKiprTz1NdEX7xbXRK50SkT0RGf7/tjV+Pygn2GUzo6Fi2tTP/uZUV4Sp7beGk/9HtN//XTMt+EqKwf+/ul/N5wABwAAAAAAE+e809D5GNt3dJXG7LmVp+LViWjfsz227DzQF5y6D8TOLTtjX8epkFRRGXNn98eniliwYE7fNlkcj0O7X4umvYf7jtr3RtOre+JQd29ETInSXNXgTbCIKK0o6wt0nUei9fDAfbgZUb34kri0fn7MTG+JDWm4nz/l9FZZfwicFXMrZ/T9YfW0x57Gxnit/+8pDsfepq3RtL+z73HqjKic2x9E01+3JXYeOBYREd0HdsaWHfuj42RERElUVM6J07t0s+dE5al419O+NxobX3vjysv2vdH08uuxv/NkxKCffUTZjOkxLSIijkfH4VO/p3FQVlaWHkVtbW16NCkcPHgwduzYIcABAAAAAMAEG1WIW716deJ5xoz0FZGjUR6zK6b3/bLnWBw+0JE6b4vm1o7oS3HToqz/usbS2TG7oi8FRefh2Le/Lzyd1t0ZXd2nXos3tSSmDfoJVET17BlREr3R3dkR/bkrcnXRcPmlUV8769SmXVd09bWooQ338wOUVs+OipK+3+uRw90DNvQiejoOx4FBd2V2x+HWI9GXvaZGWcXMKIuIKJsZFWVn+br2g9F69ETfr0vLou9HOOBazDgRHYcPD3E155FoPXL81K+nR8Xs/mtKK6KqYnpMiYjo6Y6uY4O/Mitz5sxJj4aMc5PB3LlzBTgAAAAAAMgDgzLUcFRUVCSex/a9ceVRdmqLrLerI1qHaDrdrR3R1RsRMS0qZvdfRbk3Gp87dQXii6+9EdL6lb7xfaOrIw53pc/7Q15PdB49+sZ8+owoL50SEd3RcWBXND7fHMd6TgW9oQz386f1h8CIns6jfb//w6/Fi6eudXyuce8QYSwiunriZPrbzyqLvr/Vk9HV0X995UAd0dpxPHojIkpmxOzqir6o99qLp66Q3BSNe9MBNCKiO7p6TvZ9XcIb74c7059ZVtIRWIQCAAAAAAAm2qhC3AUXXJB4HtP3dJWVxfRpUyKiN04c74p0L4uIiK6uOH6iLwdNLZl2jr+Z0sgtWBoNDYtiTumUvmsrm1sGhbrT22jpLbzjR6Pt0P7Y1fhyvNy0N875hrPhfr7f6RB4pm20oZVWVUTZgOjWlbgm8kQcP9a/wZbUdex49O3ETY2SaX3XUZ7bgM23gVdQnr5S82Qc75keiy+9PNasWXP6rytXNsSyxdVDv5dvlNIReKh3GAIAAAAAAIyns7erc6iqqkqPor6+Pj0ambKSmDqM16pNKS2L/jejJZVF9UWXxZo1l0fDonmRKy+Jk52Ho7np1diavrYySmNGWWnfNlr6Ksf2vfHa1gHvSjuX4X6+34yyKB0qBJ5VZdRWVURfRut/r1xplJVMPRXLzseUKC07z43G3Nyomtl//eeA9+jNnhnlJdF3PWauKub0Xxd6ytTyXFTVLo1LG+oilzgZvXQETkdiAAAAAACA8TaqELdw4cL0aOw2kUqnnQpLozU9Zkw/FY1OmVo+O2qXLIuLFsxOzCNmRdWs6We5yjFrb7yf7fyvdiyN3OKFMb+iJCJ6o/tQS+w+3B0RU6N08AvwxkBlLF48LyqmRmqrsDRmzyo/ve3WFztfOnXF5TPxzPNN0Xy4M07GlCjNLYgLL5o/ZptxK1asSI+irq4uPQIAAAAAABhXoyo1Q0W3OXPmpEcTrD12vvzT00Ho+aZ9cbS7N2JqecxZtDQumjfg3WKzZ8es8qnJ6xbHVTIEDnkdZ0Jp5BbUx4W1M2NqRJzsPBi7duzLMCDOjgUNS6O27+7O6Ny/J3ac3ioc+G65Z+KnL26JnQcGbBx2H4idW3bGvo6evu27XFVUj1GJq66uTo+itrY2PQIAAAAAABhXowpxERGrV69OPA91XeWIdJ+InvRsDHQf2BGbmw5EX2abHnNqa6J/L65sdkWUReq6xfFUNjMqyvpCYN/1kmdzKsItmt23WdZ9OPbs2DXgOs2T0X3iZOIrRmd2LGioj0W50r7Nu/aW2PHa/mFGv4443HHqK0pmxOzqivQHRiR9LWUulxs0AwAAAAAAGG+jDnFLlixJPM+aNfSb2oatqydO9qaHZ9bb3RXnSlenHT4cRzpPRarSsuh7lVlFVFVMjylxMjqPHD513eL4Kq2qiLIp5xMCB0e4XdubUu+j646unpNx/j/C3ujuOtMWYDrC7Y3tjbujPf2xcxr4e5oaJdPG5vLRdPxdvnx54hkAAAAAAGAijDrEpd/FVVJSMuQ7u4atqyuOn+iNiCkxbXpZ36ZaWllZTJ82JSIiTvaciPPf/zoRPf0fnloS06ZGROnsmF0xrW+TrOvcl0KOvYqonj0jSiKip7srBlzqmFRaHYuXN8TFpyLcyc4D0fTyllSE69N17HiciIiIaTF9xvT0cURElM2YHn1v0DsZPScG7yCWVi+O5SuXnYpwPdG5f0e8PKIIl42ampqYOXNmYnbJJZckngEAAAAAACbCqENcfX19ehQLFy5Mj0agM7q6+3anppRVRNVQ7xObVRalU+J0POuOiJi9NFauWRNr1qyJKxoW9G2MDVIeZX1fGHHieBzriiitnh19rz47FocPdKS/IHunQ+CJ6Dh8eOgrH3ML4qKGC6J2dnlMjd7oProvdjQ2DbiOMuVIV/T9CKdGWcXMIX4WZTGrbFr0/SRORFf/tZERp7buLoqGJbUxu7wkIrrjaPPr0XjG6yirYunKK2PNmjWx5oqGWDD4PywiSqOsZOqp/7yxeQ/fUP/8LVu2LD0CAAAAAAAYd6MOcZWVlYO24ubOnZt4HpnOONxxvO+XQ75PrCIWVM86FZcGvFNtwLWTJTPnRG1ucBEqnTc7ZpZO6btm8ejhOBxlMXtmWd82WsfhM4etLM2eGeVnC4G5umi4sC7m9H0oOg/tju2bd5z999p1NDq6Tv0sKmZHdfpHUVoV1blTm3KJ6zD7r76cE+VTI+JkZxza1RSbdx44Q4SLiDgSrUfO9ucVEaVzYn7lqd3Gc16/eX7mzZuXHg26LhUAAAAAAGAijDrERUS8+c1vTjxXV1cnnkemOw4fbIuOkxER0yK38MJYvri6L7yVVsfi5RfGwtypSxU72uLg6ahzJA62Heu7pnLqzJi/ZEksOB3jZkT14uXRcMGcvu9zsiMOthyK7qiIWeXn2EbLVGnMnlUepWcMgZWxeHFN5Prj4aFd0bh173lcDzngZ1GSi4UNy2Nx9YyI/isnGxZEriQioic62g698V68XG0sXnjq/XNxPA69vi227j3XW/MG/3ldtGD2G8e5BVF/8cKYUzql73s2t4zJe/jmz5+feF69enXiGQAAAAAAYKJM6e3t7bv/cRQaGxvjy1/+cmL23HPPxVNPPZWYDd+MmHfRxbF0ztDvN4uIiJNHo/nVrbEz8Y60GVG99MJYMm/GmUtj95Fo3rUjdh441ned5fJ5UR6dsX9LY7x2Xpta8+Oiyy/oC0vdh6Lp+a1xIP2RhLN9viqWrqyPeeURnfub4sXXWhNfWTrvorh06al4eD4Gfv/S+XHRpaf+c8/gZEdzvPryzlNh7zx+5gm90X3o9Xh+675Tm3RLYsnCU5t0Q+qOo827YutZt+vOT319faxbty4xu/nmm+Pqq69OzBiepu274gu3fyUx++Y//0HiGShMv/KLv5t4/uSnb4jr1701MQMAAAAAxs4Zc8lwLF26ND0ao/fEHYv9WzdH4679cSjx/rKIiO7oOLQ/dg2KcBERx+LAa1vi1aG+7mRntLc2R9PLr/RFuCiN2VWzojzG7rrEYZs9O2aVT01esXlaacyY2bctNyLd+2Lr86/Grv1t0XHqnXtvnHXEof27BkS4iIjymFnet2k4fN3RvndrvPjqrth/qCMV2nqis701mpu2nOOKy/N34YUXpkdDzgAAAAAAACbCmGzERUTcd9998fjjj59+7unpia9+9auJz8BY+tVf/dWYOXPm6ee6urr4vd/7vcRnGD4bcVC8bMQBAAAAwPgak424iIiGhobEc0lJSVx11VWJGYyV+vr6RISLCP+8AQAAAAAAeWXMQtyKFSvSozG6nhIGG+oKyjVr1qRHAAAAAAAAE2bMQlxlZWVce+21idm8efOipqYmMYOxsGTJksRzXV2df9YAAAAAAIC8MmYhLiLi8ssvTzyXlJTE8uXLEzMYrRUrVkRZWVli5lpKAAAAAAAg34xpiFuxYkXkcrnEbPHixYlnGK1LLrkkPYq3ve1t6REAAAAAAMCEGtMQV1ZWFtdcc01iVllZOeT742AkampqYt68eYnZ6tWro7KyMjEDAAAAAACYaGMa4iIi3v72t6dHQ24wwUhcccUVUVJSkpi99a1vTTwDAAAAAADkgzEPcTU1NdHQ0JCY1dbWRk1NTWIGI7Fw4cLEcy6Xi1WrViVmAAAAAAAA+WDMQ1xExLvf/e70KK644or0CIZl7dq1UVZWlpi9//3vTzwDAAAAAADki0xC3KpVq6Kuri4xu+CCC2zFMSoXX3xxehRXXnllegQAAAAAAJAXMglxERHveMc7Es8lJSW24hixobbh1q1bF5WVlYkZAAAAAABAvsgsxF1zzTWRy+USM1txjNRQ23BDXYEKAAAAAACQLzILcWVlZYPe32UrjpGwDQcAAAAAABSizEJcnGErrr6+Purr6xMzOJOamppYsWJFemwbDgAAAAAAyHuZhriysrL40Ic+lB7HmjVr0iMY0hVXXBElJSWJmW04AAAAAACgEGQa4iIirr766qirq0vMqqurY9WqVYkZpA21PZnL5QZdeQoAAAAAAJCPMg9xEREf/ehH0yPviuOcrr766vQo3v/+9w96XxwAAAAAAEA+GpcQ19DQEKtXr07MysrKYt26dYkZ9LvqqqsGXT9ZV1cX73znOxMzAAAAAACAfDUuIS4i4iMf+Uh6FPX19bFixYr0mEmupqYmLrvssvQ4PvGJT6RHAAAAAAAAeWvcQlxlZeWQV1SuWbMmPWKSe/vb3x4lJSWJ2bXXXhtLlixJzAAAAAAAAPLZuIW4iIh3vvOdUVdXl5jNnDnTFZWctnbt2qiurk7Mcrlc/Mqv/EpiBgAAAAAAkO/GNcTFGa4XrK+vj1WrVqXHTDJnuqr01ltvjbKysvQYAAAAAAAgr417iFuyZMmQV1T+3M/9XNTU1KTHTCJr164d8krKhoaGxAwAAAAAAKAQjHuIi1NXVKbjSklJSVx33XWJGZPHjTfeGDNnzkzMXEkJAAAAAAAUsgkJcRERH/vYxyKXyyVmlZWV8d73vjcxo/itXbs2amtr0+P43Oc+50pKAAAAAACgYE1YiKupqYmPfexj6XEsXrw41q5dmx5TpFasWBErV65Mj+OjH/1oLFmyJD0GAAAAAAAoGBMW4iIiVq1aFevWrUuPY8WKFbFixYr0mCJTX18/ZHRdvXp1vPOd70yPAQAAAAAACsqEhriIiA9+8INDvi9u7dq1YlwRq6mpibVr10ZJSUliXldXF7/+67+emAEAAAAAABSiCQ9xERGf+cxnBr0vrqSkJNasWRM1NTWJOYWvpqYmrr/++pg5c2Zinsvl4j/+x//ovXAAAAAAAEBRyIsQV1ZWFp///OcHxbiZM2fG9ddfL8YVmbe//e2DIlxExK233urPGgAAAAAAKBp5EeLi1JbU5z73ufRYjCsyN954Y1RXV6fHcdtttw26ohQAAAAAAKCQ5U2Ii4hYsmRJ3HbbbemxGFckbrzxxqitrU2PY/369bFq1ar0GAAAAAAAoKDlVYiLiFi1apUYV2RqamrOGOHWrVsXN9xwQ3oMAAAAAABQ8PIuxMV5xLj6+vr0EXmqpqYmrr/++jNGuA9+8IPpMQAAAAAAQFHIyxAX54hx73rXu2LFihXpI/JMf4SbOXNm+kiEAwAAAAAAil7ehrg4S4wrKSmJtWvXxlVXXZU+Ik+sWLEiPvCBD4hwAAAAAADApJXXIS7OEeOuuOKKuO6669JHTLC1a9fG2rVro6SkJH0U69evF+EAAAAAAIBJIe9DXAyIcblcLn0Uy5cvjxtvvDFqamrSR0yA9773vbFy5cohI9xtt90WN9xwQ3oMAAAAAABQlAoixMWpGPf5z39+yBhXW1sb119/vffGTaCampr48Ic/HIsXL04fRS6Xi9tuuy1WrVqVPgIAAAAAAChaBRPi4lTs+Z3f+Z1oaGhIH8XMmTNj7dq1rqqcAFdddVV84AMfiMrKyvRR5HK5+PznPy/CAQAAAAAAk05BhbiIiMrKyvjMZz4T1157bfooSkpKYvny5fHBD37QVZXjoKamJt773vfGFVdcMeRVlA0NDXHnnXf6swAAAAAAACalggtxERFlZWXxsY99LG6++eb0UUREVFdXxwc+8IG46qqr0keMkVWrVsUNN9ww5FWUERHr16+P22+/PcrKytJHAAAAAAAAk0JBhrh+V199dfzhH/5h1NXVpY+ipKQkrrjiivjwhz8c9fX16WNGqKamJm688ca4+uqrh4xsuVwubr/99rjhhhvSRxSwZfWr0yMAAAAAAOAcCjrExakw9F//638d8qrKOHWV5bp162LdunWuSByl6667Lj7wgQ9EbW1t+igiIlavXn3Gd/hR2KZPL0+PgAIzt2pRehSLF/v/iwAAAACQpYIPcTHgqsrbb789crlc+jgiIurr6+OGG26ItWvXpo84h1WrVsWv/dqvxfLly4d8F1wul4ubb745PvWpT0VlZWX6mAIzp2p2ehSlpUIcFLqa+UvTo5gxY/BmMwAAAAAwdooixPVraGiIO++884zbcWVlZbFy5cr4tV/7tVi1alX6mJRVq1bFhz/84TNeQxkDtuCuvvrq9BEFas6cwTF7/rzB/wM+UFhm5wZvvw0V3gEAAACAsTOlt7e3Nz0sBjt27Ih77703du/enT46ra2tLXbu3BkbN25MH01qq1atihUrVpx1uy2Xy8XHPvYxQbNI/fl/vz+eePyV0889PSfigf/1x4nPAIXlA+/5TzFjxhuhfemF8+JLX/5s4jMAAAAAwNgq2hAXEdHV1RVPPPFEPPzww9He3p4+Pq2rqyteffXVSR/k1q5dG4sXLz5rgIuIWL9+ffzCL/zCGbfkKHwbH38u/vK//3Ni9uq2p+PZTY8mZkBhWNHwtrh85bsTs/UfvCY++qvvScwAAAAAgLFV1CGuX1tbW3zve9+LDRs2pI8Senp6Ys+ePfHSSy9FU1NT+rgo1dTUxBVXXBELFy48Z1hbvXp1fOQjHzlnqKPwHTrUHp+6+c8Ss+PHj8WD//KniRlQGG64/jORmzU3MfuTL98a9RcuSswAAAAAgLE1KUJcv/MNcjHg2sotW7ZES0tL+rjgXXXVVXHBBRdEdXV1+miQ1atXxw033BBLlixJH1HEvv6178SDDzyRmDW3bIt/2/j3iRmQ31avuiEuXvaWxOyaay+J3/zPNyVmAAAAAMDYm1Qhrt9wglxPT0/s378/9uzZE01NTQUd5a666qpYuHBhzJs3L0pKStLHgwhwk9uhQ+3xhdvviUOtHYm5KyqhcAx1JWXYhgMAAACAcTMpQ1y//iD3xBNPnPUdcgMdOHAgDh48GNu3b8/76yvr6+tj0aJFsWDBgpgzZ855xbeIiHXr1sXb3/72qKmpSR8xyXx3w4/jb/5qcHRr2vF8PPXMg+kxkEdWr7ohLlx6ZZSUTEvMvRsOAAAAAMbPpA5x/bq6uuK5556L73znO7F79+708Rl1dXXFoUOH4vDhw7Fnz57YvHlz+iPjasWKFVFdXR3z5s2LOXPmnPOdbwPV1dXFO97xjrjyyiu9A46EP//v98cTj7+SHsehtub4yU8fjoOtu9JHwASaW7UoLm1YG4vqVqSP4rJVS+K/fOFjUV4+PX0EAAAAAGRAiEvZsWNHPP3008Pakhuora0tOjs749ixY9Hc3BxdXV1jHujq6+ujsrIy5s6dGzNmzIhcLjfieHbttdfG1VdfHQ0NDekjiIiIzs7j8Wd/cl+8sGlH+ih6ek7E3uZXo+n152PX7rH95xwYnkV1K6L+gstjQe3Fg7bgIiLmVFXEn3z5tpgzJ5c+AgAAAAAyIsSdQX9Ae/755+Pxxx9PHw9bT09PHDlyJCIiTpw4cd6Rb8aMGVFeXh4REbNmzTrv6yXP5tprr43LL788VqxYMaytOSavQ4fa4+6/+OaQMa7f8ePH4vCR/dHVeTR9BGSorHxmzJwxJ2bMOHNgW3rhvPjPd3w0FiyYlz4CAAAAADIkxJ2nxsbGeOGFF+JnP/vZsK6vzAe5XC6uueaauPjii8U3Rqyz83j8/d/9S3z3O8+lj4A85jpKAAAAAJg4QtwItLS0xPbt26OxsTG2bduWd2Eul8vFqlWroqGhIS688MKoqalJfwRG7NlnXo5v3P+9eG37/vQRkEfmVFXEL3/4HXH9uremjwAAAACAcSLEjYG2trZobm6O3bt3x+uvvx4tLS3R2NiY/lgm6urqYsGCBXHJJZdEXV1d1NbWjvh9cTAc393w4/juvz4tyBWJG//5/5z+9UO/+POJMwpLf4B7+8+vtgUHAAAAABNMiMtQS0tLdHZ2xp49e+LYsWNx7Nix2LHjjXdsHTly5IzBrqGhIWbNmnX6ed68eVFdXR0REcuWLYvy8nKbbuSFvXv3xwvPvxov/mxbHGk/dtb3yJG/hLjCddmqJTErNyNWvnlZLF5cE5e+aVn6IwAAAADABBHiAIj7p1x3+tc39T6WOAMAAAAAYGSmpgcAAAAAAADA6AlxAAAAAAAAkAEhDgAAAAAAADIgxAEAAAAAAEAGhDgAAAAAAADIgBAHAAAAAAAAGRDiAAAAAAAAIANCHAAAAAAAAGRAiAMAAAAAAIAMCHEAAAAAAACQASEOAAAAAAAAMiDEAQAAAAAAQAaEOAAAAAAAAMiAEAcAAAAAAAAZEOIAAAAAAAAgA0IcAAAAAAAAZECIAwAAAAAAgAwIcQAAAAAAAJABIQ4AAAAAAAAyIMQBAAAAAABABoQ4AAAAAAAAyIAQBwAAAAAAABkQ4gAAAAAAACADQhwAAAAAAABkQIgDAAAAAACADAhxAAAAAAAAkAEhDmASeOzzfxw7Nj6dHg/L/sZt8djn/zg6DramjwAAAAAAGIIQBzAJXHTj9fH4tZ+Pb6//9LCDXH+A23DJLTFrycKomFuV/ggAAAAAAEOY0tvb25seAlB8vr3+09H+0CsREZG78ZJYdcctsWTtWyIi4v4p153+3E29j0WcCnAv/M03Ys+ffvf02foD3xLiAAAAAADOk404gEli1R23nP51+0OvnHFDbuAG3MAIt/yuj4twAAAAAADDYCMOYBIZuBU3XLbhAAAAAACGx0YcwCQycCtuOGzDAQAAAAAMnxAHMIksWfuWyN14SXp8TitvWp8eAQAAAABwDkIcwCQz3K0423AAAAAAACMjxAFMMsPdirMNBwAAAAAwMkIcwCR0vltxtuEAAAAAAEZOiAOYhM53K842HAAAAADAyAlxAJPUubbibMMBAAAAAIyOEAcwSZ1rK842HAAAAADA6AhxAJPYmbbibMMBAAAAAIyeEAcwiZ1pK842HAAAAADA6AlxAJPcpb/xscSzbTgAAAAAgLEhxAFMYp2dnfE//uWh6Jj7xsw2HAAAAADA2BDiACapzs7O+OJv/248/qMfx3N1JyMiYtflZXGo81j6owAAAAAAjIAQBzAJDYxwERFP53qjY27Ev5V1xKdv+2zs3r07/SUAAAAAAAzTlN7e3t70EIDilY5w/WaejDh66l/PqK2ZH391z11RV1eX+AwAAAAAAOdPiAOYRM4U4YYixgEAAAAAjI6rKQEmibNFuNaDB+Lkyb73xPVrbtnnmkoAAAAAgFEQ4gAmgbNFuOa9u2PLKy/Fa01bxTgAAAAAgDEkxAEUuXNFuNe2b42IiH3Ne8U4AAAAAIAxJMQBFLHzjXD9xDgAAAAAgLEjxAEUqeFGuH5iHAAAAADA2BDiAIrQSCNcPzEOAAAAAGD0hDiAIjPaCNdPjAMAAAAAGB0hDqCIjFWE6yfGAQAAAACMnBAHUCTGOsL1E+MAAAAAAEZGiAMoAllFuH5iHAAAAADA8AlxAAUu6wjXT4wDAAAAABgeIQ6ggI1XhOsnxgEAAAAAnD8hDqBAjXeE6yfGAQAAAACcHyEOoABNVITrJ8YBAAAAAJybEAdQYCY6wvUT4wAAAAAAzk6IAygg+RLh+olxAAAAAABnJsQBFIh8i3D9xDgAAAAAgKEJcQAFIF8jXD8xDgAAAABgMCEOIM/le4TrJ8YBAAAAACQJcQB5rFAiXD8xDgAAAADgDUIcQJ4qtAjXT4wDAAAAAOgjxAHkoUKNcP3EOAAAAAAAIQ4g7xR6hOsnxgEAAAAAk50QB5BHiiXC9RPjAAAAAIDJTIgDyBPFFuH6iXEAAAAAwGQlxAHkgWKNcP3EOAAAAABgMhLiACZYsUe4fmIcAAAAADDZCHEAE2iyRLh+YhwAAAAAMJkIcQATZLJFuH5iHAAAAAAwWQhxABNgska4fmIcAAAAADAZCHEA42yyR7h+YhwAAAAAUOyEOIBxJMIliXEAAAAAQDGb0tvb25seAjD2RLgzm1+7IJbWXxRTpyb//ZDamvnxV/fcFXV1dYk546e1tTWee25TbHr++Th8uD3+5dF/TX8EyFBtzfz4uTWrY1FdXbz5spXRsHx5VFVVpT8GAAAA5CkhDmAciHDnJsbll61bt8Y9/+Ovh/xnFphYH/3wL8cH3v++uOiii9JHAAAAQJ4R4gAyJsKdPzFu4m3dujW+dv83bL5BAbj1lk/EL/3SehtyAAAAkMeEOIAMiXDDJ8ZNnCefeio+95v/JT0G8lhtzfy48w9/Py677M3pIwAAACAPCHEAGRHhRk6MG39f/eq98ZWv3psen3by5MnoPHYsuro600dAxmZUVMT06WWD/m/iQP/tzj+I6657Z3oMAAAATDAhDiADItzoiXHj52wR7kj74di3rzn2Ne9NHwHjbPGS+phbPS/Ky2ekjyIi4i///M/i6quuSo8BAACACXTmf60WgBH73ve/P2SE6+w8JsKdp33Ne6Pz2LH0OJpb9sU3//Gf0mNG6Mmnnhoywh0/3hWvv7Y9XvrZJhEO8sTOHU3x/E9/Eq+/tj1OnjyZPo7P/eZ/ia1b/f8YAAAAyCdCHEAG3v++98Wtt3wiPY7y8hnxpjevSo8ZwpvevCoqZs5Mj+Pat701Pv2pW9NjRmDr1q1DvhOu4+jRePWVl2PP7p3pIyAP7Nm9M7Zu2RzHj3elj+I/3f756Ox0hSwAAADkCyEOICO33PKJIWPcrNxsMe4c3vTmVTErNzs9jmvf9ta484/+IMrLy9NHjMDX7v9GehQdR4/Gz55/No4caU8fAXmk9eCBePWVlwfFuOaWffG9738/MQMAAAAmjhAHkCExbvhEuPGxdevW+JdH/zUxO368K5q2bUnMgPx15Eh7vLZ966BrKv/wzj+J1tbWxAwAAACYGEIcQMbEuPMnwo2fobbhmvfstgkHBab14IHY1zL4PY7f+taD6REAAAAwAYQ4gHEgxp2bCDd+WltbB23DdRw96p1wUKBe2741Tpw4kZg99O2HE88AAADAxBDiAMaJGHdmItz4eu65TelRHNjfkh4BBeRQ68HEc3PLvti6dWtiBgAAAIw/IQ5gHIlxg4lw42/btu2J55MnT9qGgwLXenB/ehQvb96cHgEAAADjTIgDGGdi3BtEuImxa/fuxPPx412JZ6DwtB48MOh6yqNHjiaeAQAAgPEnxAFMADFOhJtIP3nm2cTzsY6OxDNQmE6c6E48v9K4JfEMAAAAjD8hDmCCTOYYJ8JNrOaWfekRAAAAAJABIQ5gAk3GGCfCAQAAAACThRAHMMEmU4wT4QAAAACAyUSIA8gDkyHGiXAAAAAAwGQjxAHkiWKOcSIcAAAAADAZCXEAeaQYY5wIBwAAAABMVkIcQJ4pphgnwgEAAAAAk5kQB5CHiiHGiXAAAAAAwGQnxAHkqUKOcSIcAAAAAIAQB5DXCjHGiXAAAAAAAH2EOIA8V0gxToQDAAAAAHiDEAdQAAohxolwAAAAAABJQhxAgcjnGCfCAQAAAAAMJsQBFJB8jHEiHAAAAADA0IQ4gAKTTzFOhAMAAAAAODMhDqAA5UOME+EAAAAAAM5OiAMoUBMZ40Q4AAAAAIBzE+IACthExDgRDgAAAADg/AhxAAVuPGOcCAcAAAAAcP6EOIAiMB4xToQDAAAAABgeIQ6gSGQZ40Q4AAAAAIDhE+IAikgWMU6EAwAAAAAYGSEOoMiMZYwT4QAAAAAARk6IAyhCYxHjRDgAAAAAgNER4gCK1GhinAgHAAAAADB6QhxAERtJjBPhAAAAAADGhhAHUOSGE+NEOAAAAACAsSPEAUwC5xPjRDgAAAAAgLElxAFMEmeLcavfco0IBwAAAAAwxoQ4gEnkTDFu2rRp6ZEIBwAAAAAwSkIcwCRzphg3kAgHAAAAADB6QhzAJHS2GCfCAQAAAACMDSEOYJIaGON+44mS03+JcAAAAAAAY0OIA5jEhtqME+EAAAAAAMaGEAcwyd1yhisqAQAAAAAYHSEOAAAAAAAAMiDEAQAAAAAAQAaEOAAAAAAAAMiAEAcAAAAAAAAZEOIAAAAAAAAgA0IcAAAAAAAAZECIAwAAAAAAgAwIcQAAAAAAAJABIQ4AAAAAAAAyIMQBAAAAAABABoQ4AAAAAAAAyIAQBwAAAAAAABkQ4gAAAAAAACADQhwAAAAAAABkQIgDAAAAAACADAhxAAAAAAAAkAEhDgAAAAAAADIgxAEAAAAAAEAGhDgAAAAAAADIgBAHAAAAAAAAGRDiAAAAAAAAIANCHAAAAAAAAGRAiAMAAAAAAIAMCHEAUCCevvve2LHx6fQYAAAAAMhTQhwAFIgL170jHr/28/Ht9Z8W5AAAAACgAAhxAFAg5jUsi4V3XB/tD70iyAEAAABAARDiAKCAXPbJj5z+tSAHAAAAAPlNiAOAAtK/FTeQIAcAAAAA+UmIA4ACM3ArbiBBDgAAAADyixAHAAVmqK24gQQ5AAAAAMgPQhwAFKAzbcUNJMgBAAAAwMSa0tvb25seAjC53D/luvSIIpS78ZJYdcct8aE7bk/MWw8eiC2vvJSYAYXn8it/LsrLZ5x+ft8N/y5+93e+mPgMAAAAML5sxAHAJNG/IQcAAAAAjA8hDgAmkeV3fTw9AgAAAAAy4mpKAChAHQdb48HqX0qPz2j5XR+PlTetj4q5VXH1234+ceZqSigOrqYEAACA/GMjDgAK0Iv3P5geDWn5XR+P9Qe+FW/5zCeiYm5V+hgAAAAAyJAQBwAFpuNga2z57N+lxwkCHAAAAABMPCEOAArM2bbhBDgAAAAAyB9CHAAUkDNtwwlwAAAAAJB/hDgAKCDpbTgBDgAAAADylxAHAAVi4DacAAcAAAAA+U+IA4AC8eL9DwpwAAAAAFBAhDgAKBArb1ovwAEAAABAARHiAKBACHAAAAAAUFiEOAAAAAAAAMiAEAcAAAAAAAAZEOIAAAAAAAAgA0IcAAAAAAAAZECIAwAAAAAAgAwIcQAAAAAAAJABIQ4AAAAAAAAyIMQBAAAAAABABoQ4AAAAAAAAyIAQBwAAAAAAABkQ4gAAAAAAACADQhwAAAAAAABkQIgDAAAAAACADAhxAAAAAAAAkAEhDgAAAAAAADIgxAEAAAAAAEAGhDgAAAAAAADIgBAHAAAAAAAAGRDiAAAAAAAAIANCHAAAAAAAAGRAiAMAAAAAAIAMCHEAAAAAAACQASEOAAAAAAAAMiDEAQAAAAAAQAaEOAAAAAAAAMiAEAcAAAAAAAAZEOIAAAAAAAAgA0IcAAAAAAAAZECIAwAAAAAAgAwIcQAAAAAAAJABIQ4AAAAAAAAyIMQBAAAAAABABoQ4AAAAAAAAyIAQBwAAAAAAABkQ4gAAAAAAACADQhwAAAAAAABkQIgDAAAAAACADAhxAAAAAAAAkAEhDgAAAAAAADIgxAEAAAAAAEAGhDgAAAAAAADIgBAHAAAAAAAAGRDiAAAAAAAAIANCHAAAAAAAAGRAiAMAAAAAAIAMCHEAAAAAAACQASEOAAAAAAAAMiDEAQAAAAAAQAaEOAAAAAAAAMiAEAcAAAAAAAAZEOIAAAAAAAAgA0IcAAAAAAAAZECIAwAAAAAAgAwIcQAAAAAAAJABIQ4AAAAAAAAyIMQBAAAAAABABoQ4AAAAAAAAyIAQBwAAAAAAABkQ4gAAAAAAACADQhwATDLvu+HfJZ7LysoTz0BxmD07lx4BAAAA40yIA4BJbnpZWXoEFJhZs3JRXj4jMbv44osSzwAAAMD4E+IAYJJZvfqKxPO0adOiam51YgYUlur5NelRLF2yND0CAAAAxpkQBwCTzOorr0yPYt782vQIKCCVc6rSo1i+/OL0CAAAABhnQhwATDJ1dXWx8k0rErPKOVUxa5b3SUEhWli3eNC1lB/98C9Hebn3PwIAAMBEE+IAYBL6pV+8MfE8derUqF+2PDEDCkPtwrr0KD7w/velRwAAAMAEEOIAYBJ6//veN2grrmLmzFh28SWJGZDf3vTmVTF9elli9r4b/l1cdNFFiRkAAAAwMYQ4AJikPnXrJ9OjmDe/JpZe6H/Ah0Lwpjevilm52elxfPKWT6RHAAAAwAQR4gBgkrr6qqviox/+5fQ4ahfUxSWXvjk9BvLErFm5ePPlq4eMcL/zxS9EXd3gqyoBAACAiTGlt7e3Nz0EACaHzs7O+OJv/248/qMfp4/ixIkTcWB/S7y2fWv6CJggyy95U1TOqYqpUwf/+3S33vKJuMU2HAAAAOQVIQ4AJrnW1tb4ozv/nyFjXETEyZMno+PokTh8uC16TpyIzs5j0XrwQPpjwBibX7sgppVMi+llZZHLVUb5jBlDBriIiGvf9ta484/+IMrLy9NHAAAAwAQS4gCA6OzsjC/96ZfjXx791/QRkOdswgEAAED+EuIAgNMe/pd/iT+880/SYyAP1dbMjy/+1hfi6quuSh8BAAAAeUKIAwASWltb41vfejC+8tV700dAHqitmR+3/oeb493veperKAEAACDPCXEAwJBaW1vjuec2xQ8f3+jKygL3G0+UnP71X1zTkzijMNTWzI9fuO4dcc01b41Vl18uwAEAAECBEOIAgPPS2toaBw8eTI8pAE9e/MnTv7761b9JnJH/5s6dG1VVVekxAAAAUACEOACAInf/lOtO//qm3scSZwAAAABkZ2p6AAAAAAAAAIyeEAcAAAAAAAAZEOIAAAAAAAAgA0IcAAAAAAAAZECIAwAAAAAAgAwIcQAAAAAAAJABIQ4AAAAAAAAyIMQBAAAAAABABoQ4AAAAAAAAyIAQBwAAAAAAABkQ4gAAAAAAACADQhwAAAAAAABkQIgDAAAAAACADAhxAAAAAAAAkAEhDgAAAAAAADIgxAEAAAAAAEAGhDgAAAAAAADIgBAHAAAAAAAAGRDiAAAAAAAAIANCHAAAAAAAAGRAiAMAAAAAAIAMCHEAAAAAAACQASEOAAAAAAAAMiDEAQAAAAAAQAaEOAAAAAAAAMiAEAcAUOB2bHw6Og62psfDtr9xW+x57mfpMQAAAAAjJMQBABS4ivnV8WD1L8XTd987oiC3v3FbPPb5P44Nl9wSlUsWpY8BAAAAGCEhDgCgwM1rWBYL77g+tnz274YV5AYGuD1/+t1YftfHo2JuVfpjAAAAAIzQlN7e3t70EACAwrK/cVtsuOSWxGz5XR+PlTetjwerf+n07Kbex2J/47Z44W++EXv+9LuJz68/8C0hDgAAAGAMCXEAAEXisc//8aC4lrbwjuuH/Mzyuz4eb/nMJ9JjAAAAAEZBiAMAKBJDbcWdL9twAAAAAGPPO+IAAIpE/7vihsu74QAAAACyIcQBABSRyz75kfTonFbetD49AgAAAGAMCHEAAEVkuFtxtuEAAAAAsiPEAQAUmeFsxdmGAwAAAMiOEAcAUGTOdyvONhwAAABAtoQ4AIAidD5bcbbhAAAAALIlxAEAFKFzbcXZhgMAAADInhAHAFCkzrYVZxsOAAAAIHtCHABAkTrTVpxtOAAAAIDxIcQBABSxobbibMMBAAAAjA8hDgCgiG09tD/21fWefrYNBwAAADB+hDgAgCL15FNPxed+87/ET2rfCHHzfuGtic8AAAAAkB0hDgCgCPVHuIiIxvLe2FfXG00X9sZv/NZvx+7du9MfBwAAACADU3p7e9/4V6QBACh4AyNcv4bOKdE6rTf2TYuorZkff3XPXVFXV5f4DAAAAABjS4gDACgiQ0W4oYhxAAAAANlzNSUAQJE4U4Q7efJknDx5MjFrbtkXn77ts66pBAAAAMiQEAcAUATOFuFea9oarzVtFeMAAAAAxpkQBwBQ4M4V4fY17419zXvFOAAAAIBxJsQBABSw84lw/cQ4AAAAgPElxAEAFKjhRLh+YhwAAADA+BHiAAAK0EgiXD8xDgAAAGB8CHEAAAVmNBGunxgHAAAAkD0hDgCggIxFhOsnxgEAAABkS4gDACgQYxnh+olxAAAAANkR4gAACkAWEa6fGAcAAACQDSEOACDPZRnh+olxAAAAAGNPiAMAyGPjEeH6iXEAAAAAY0uIAwDIU+MZ4fqJcQAAAABjR4gDAMhDExHh+olxAAAAAGNDiAMAyDMTGeH6iXEAAAAAoyfEAQDkkXyIcP3EOAAAAIDREeIAAPJEPkW4fmIcAAAAwMgJcQAAeSAfI1w/MQ4AAABgZIQ4AIAJls8Rrp8YBwAAADB8QhwAwAQqhAjXT4wDAAAAGB4hDgBgghRShOsnxgEAAACcPyEOAGACFGKE6yfGAQAAAJwfIQ4AYJwVcoTrJ8YBAAAAnJsQBwAwjoohwvUT4wAAAADOTogDABgnxRTh+olxAAAAAGcmxAEAjINijHD9xDgAAACAoQlxAAAZK+YI10+MAwAAABhMiAMAyNBkiHD9xDgAAACAJCEOACAjkynC9RPjAAAAAN4gxAEAZGAyRrh+YhwAAABAnym9vb296SEAACM3mSPcQPNrF8TS+oti6tTkv/tVWzM//uqeu6Kuri4xZ3ydPNEZHa3bo7N9Z3Qf2x/dHc3pjwAZmVo6K8pnL42SaRVRMfeiKJu1IP0RAACgSAhxAABjSIRLEuPyT9ueZ+Pg9keis+2F9BEwQUorlsbsBWujauk7orR8TvoYAAAoYEIcAMAYEeGGJsblh7Y9z8a+xm9Ed8dr6SMgT5SUzom5y3455i55e0ydVp4+BgAACpAQBwAwBkS4sxPjJs7JE52x86d/FUf3P5E+AvJUSemcWPrW33dlJQAAFAEhDgBglES48yPGjb+uI3tj9/N/c85rKJsPHIvOzhPpMZChpYty6dEgdVd8ISoXrk6PAQCAAiLEAQCMggg3PGLc+Ok6sjde+/HvRU/3ofRRRET89KX98fTP9sWf/8+zRzogOx96z7JYvXJevPOquqjMTU8fR0TEgpWfi6ola9NjAACgQAhxAAAjJMKNjBiXvZMnOuO1p/5syE24n760P+594JX43hO70kfABPp/br8q3vP2C6Jsekn6KC74uf87Zs2/ND0GAAAKgBAHADACItzoiHHZ2vH0nw/5Trj7H341/uieZ9NjIE986D3L4rZfXRm11TMS85LSOXHhtX8SpeVzEnMAACD/CXEAAMO0e/fu+MVf/kh6HBER27dtEeHO08K6xXHB0gvT46itmR/f/MbXory8PH3EeTiy7+V4/Sf/d3ocv/eXP4l//M629BjIM5dfMjf+4rfXDopxuYXXx+IrPpmYAQAA+S/5ryADAHBOdXV1cestn0iPIyJi/vza9IghzJqVi9qFQ2+9ffG3viDCjcLel+5Nj+L+h18V4aBAPP/KwfiNP9oYXcd7EvP2Pd+NjtamxAwAAMh/QhwAwAjccssnhoxxs3Kz401vXpUeM8CsWbm4+JJLY/r0svRR/OWf/1lcfdVV6THnqW3Ps9Hd8Vpi9tOX9ruOEgrM868cjLv//sX0OPa/+mB6BAAA5DkhDgBghMS44RPhsnVw+yPpUdz7wCvpEVAAvvpPm+O1Xe2J2dH9T0R356HEDAAAyG9CHADAKIhx50+Ey9bJE53R2fZCYvbTl/bH957YlZgBheNfN+5Mj+JIy+BNOQAAIH8JcQAAoyTGnZsIl72O1u3pUTz9s33pEVBA/vx/vjDoXXFHD76ceAYAAPKbEAcAMAbEuDMT4cZHZ/vgzZn/bRsOCt5Lr7Ymnrs79iaeAQCA/CbEAQCMETFuMBFu4rS1H4/nXzmYHgMF5sChrsRz+gpaAAAgvwlxAABjSIx7gwg3vjoOJN8bdehw8n+8BwAAAMafEAcAMMbEOBEOYKxs2nwgPQIAAAqIEAcAkIHJHONEOAAAAIA+QhwAQEYmY4wT4QAAAADeIMQBAGRoMsU4EQ4AAAAgSYgDAMjYZIhxIhwAAADAYEIcAMA4KOYYJ8IBAAAADE2IAwAYJ8UY40Q4AAAAgDMT4gAAxlExxTgRDgAAAODshDgAgHFWDDFOhAMAAAA4NyEOAGACFHKME+EAAAAAzo8QBwAwQQoxxolwAAAAAOdPiAMAmECFFONEOAAAAIDhEeIAACZYIcQ4EQ4AAABg+IQ4AIA8kM8xToQDAAAAGBkhDgAgT+RjjBPhAAAAAEZOiAMAyCP5FONEOAAAAIDREeIAAPJMPsQ4EQ4AAABg9IQ4AIA8NJExToQDAAAAGBtCHABAnpqIGCfCAQAAAIwdIQ4AII+NZ4wT4QAAAADGlhAHAJDnxiPGiXAAAAAAY0+IAwAoAFnGOBEOAAAAIBtCHABAgcgixolwAAAAANkR4gAACshYxjgRDgAAACBbQhwAQIEZixgnwgEAAABkT4gDAChAo4lxIhwAAADA+BDiAAAK1EhinAgHAAAAMH6EOACAAjacGCfCAQAAAIwvIQ4AoMCdT4wT4QAAAADGnxAHAFAEzhXjRDgAAACA8SfEAQAUibPFOBEOAAAAYPwJcQAAReRMMS5NhAMAAADInhAHAFBkzhXjRDgAAACA8SHEAQAUoYEx7jeeKDn9lwgHAAAAMH6EOACAIjXUZpwIBwAAADB+hDgAgCJ2y1muqAQAAAAgW0IcAAAAAAAAZECIAwAAAAAAgAwIcQAAAAAAAJABIQ4AAAAAAAAyIMQBAAAAAABABoQ4AAAAAAAAyIAQBwAAAAAAABkQ4gAAAAAAACADQhwAAAAAAABkQIgDAAAAAACADAhxAAAAAAAAkAEhDgAAAAAAADIgxAEAAAAAAEAGhDgAAAAAAADIgBAHAAAAAAAAGRDiAAAAAAAAIANCHAAAAAAAAGRAiAMAAAAAAIAMCHEAAAAAAACQASEOAAAAAAAAMiDEAQAAAAAAQAaEOAAAAAAAAMiAEAcAAAAAAAAZEOIAACAP7HnuZ7G/cVt6DAAAABQwIQ4AAPJA5ZJFseGSW+Kxz/+xIAcAAABFQogDAIA8UDG3Kpbf9fHY86ffFeQAAACgSAhxAACQJ1betP70rwU5AAAAKHxCHAAA5In+rbiBBDkAAAAoXEIcAADkkYFbcQMJcgAAAFB4hDgAAMgjQ23FDSTIAQAAQOEQ4gAAIM+caStuIEEOAAAA8t+U3t7e3vQQAIDicf+U69IjitCcjy2Mmp/vjJmLSiMi4rVd7XHDf3g0/TGgwNzyyyvi9psvT8wuveEfEs8AAED+shEHAABF4NB9e6LxP7TGq397KI7u6k4fAwAAABNAiAMAAAAAAIAMuJoSAADy0NN33xtbPvt36fEZuZoSipOrKQEAoLDZiAMAgDzTcbD1vCPcwjuuj3WvfDXe/NmrTkc4AAAAID8IcQAAkGdevP/B9GiQ/gB33Zd+K+Y1LEsfAwAAAHlAiAMAgDxyrm04AQ4AAAAKhxAHAAB55EzbcAIcAAAAFB4hDgAA8sRQ23ACHAAAABQuIQ4AAPLEwG04AQ4AAAAKnxAHAAB5oH8bToADAACA4iHEAQBAHujY3yrAAQAAQJER4gAAIA/Ma1gmwAEAAECREeIAAAAAAAAgA0IcAAAAAAAAZECIAwAAAAAAgAwIcQAAAAAAAJABIQ4AAAAAAAAyIMQBAAAAAABABoQ4AAAAAAAAyIAQBwAAAAAAABkQ4gAAAAAAACADQhwAAAAAAABkQIgDAAAAAACADAhxAAAAAAAAkAEhDgAAAAAAADIgxAEAAAAAAEAGhDgAAAAAAADIgBAHAAAAAAAAGRDiAAAAAAAAIANCHAAAAAAAAGRAiAMAAAAAAIAMCHEAAAAAAACQASEOAAAAAAAAMiDEAQAAAAAAQAaEOAAAAAAAAMiAEAcAAAAAAAAZEOIAAAAAAAAgA0IcAAAAAAAAZECIAwAAAAAAgAwIcQAAAAAAAJABIQ4AAAAAAAAyIMQBAAAAAABABoQ4AAAAAAAAyIAQBwAAAAAAABkQ4gAAAAAAACADQhwAAAAAAABkQIgDAAAAAACADAhxAAAAAAAAkAEhDgAAAAAAADIgxAEAAAAAAEAGhDgAAAAAAADIgBAHAAAAAAAAGRDiAAAAAAAAIANCHAAAAAAAAGRAiAMAAAAAAIAMCHEAAAAAAACQASEOAAAAAAAAMiDEAQAAAAAAQAaEOAAAAAAAAMiAEAcAAAAAAAAZEOIAAAAAAAAgA0IcAAAAAAAAZECIAwAAAAAAgAwIcQAAAAAAAJABIQ4AAAAAAAAyIMQBAAAAAABABoQ4AAAAAAAAyIAQBwAAAAAAABkQ4gAAoAhMLZ2VHgFFYNWK6vQIAAAoIEIcAAAUgfLZSxPPC+ZXJJ4BAACA8SfEAQBAESqbXhKXXzI3PQYKzOIFMxPP5ZWXJZ4BAID8JsQBAEARqKhanh7Fv39XfXoEFJgLF+cSz+WVFyWeAQCA/CbEAQBAESjPLUiP4tJlc9IjoID85q9fFmXTSxKzirmXJJ4BAID8JsQBAEARmDqtPHILr0/MrnzTvPjQe5YlZkDhuHGIrdaKKv+dBgCAQiLEAQBAkZizaG16FDd/0PYMFKLfvm111FbPSMzmLFkfpeU2XQEAoJAIcQAAUCRmzb80Zs67JjFbuigXf/nbgwMdkL8+9J5l8cF1F6bHMe+iG9IjAAAgzwlxAABQROZdvD49ine/bVH89m2r02MgD11+ydz4z5+4fNC74WzDAQBAYRLiAACgiFRU1cecJYNj3E3vv9hmHOS5D71nWfx/f3JdVOamJ+YlpXOi9pJfTMwAAIDCMKW3t7c3PQQAAArb9h/9UXS2vZAex2u72uOf/nV7fPWfNqePgAly+SVz43Mfuyzetro2fRQREcve/hdRNmtBegwAABQAIQ4AAIrQyROdsW3j70Z3x2vpo4hTQe65zQfi+z/aFd97Ylf6GBgHv/nrl8Vb3jw/3nRx1aCrKPvVXfGFqFzoalkAAChUQhwAABSpkyc647Wn/mzIzbi0tvbjcehwV3oMjLHy8mlRWz0jPR6kpHRO1K36zZg1/9L0EQAAUECEOAAAKHItrzwUB7bdnx4Deaq88rKou/yTrqMEAIAiIMQBAMAk0NHaFPtffTCO7n8ifQTkidKKpTG/4SOuogQAgCIixAEAwCTS0doUbbufiPY9P4ie7kPpYwrUT9/bcvrXVz5Skzgj/5VXXhZzFl8XlXVrYuq08vQxAABQwIQ4AACYpLqO7I3O9t3RfexA+ogCs+GiPz7963VbfytxRv6qqFoe5bkF4hsAABQxIQ4AAKDA3T/lutO/vqn3scQZAAAAE2dqegAAAAAAAACMnhAHAAAAAAAAGRDiAAAAAAAAIANCHAAAAAAAAGRAiAMAAAAAAIAMCHEAAAAAAACQASEOAAAAAAAAMiDEAQAAAAAAQAaEOAAAAAAAAMiAEAcAAAAAAAAZEOIAAAAAAAAgA0IcAAAAAAAAZECIAwAAAAAAgAwIcQAAAAAAAJABIQ4AAAAAAAAyIMQBAAAAAABABoQ4AAAAAAAAyIAQBwAAAAAAABkQ4gAAAAAAACADQhwAAAAAAABkQIgDAAAAAACADAhxAAAAAAAAkAEhDgAAAAAAADIgxAEAAAAAAEAGhDgAAAAAAADIgBAHAACQx7qPdUbHwdb0eETadu5JjwAAAMiQEAcAAJDnHnnPp+Lpu+8dcZDb37gtHvv8H0fjg99JHwEAAJChKb29vb3pIQAAAPnj5W89Ej/94J9GRMTyuz4eK29aHxVzq06f3z/lutO/vqn3sdO/3t+4LV74m2/Enj/9bkRErD/wrcTXAQAAkC0bcQAAAHnu4ht+Iaa/ZX5ERGz57N/Fg9W/dNYNuf4NuA2X3HI6wi2/6+MiHAAAwDizEQcAAFAABm7FDbT8ro/Hls/+3ennhXdcfzq+DWQbDgAAYPwJcQAAAAWg+1hnPPSOj8fxp/elj85p+V0fj7d85hPpMQAAABlzNSUAAEABKJ1RHiv/66+nx+dl5U3r0yMAAADGgRAHAABQIAa+K+58eTccAADAxBHiAAAACsRItuJswwEAAEwcIQ4AAKCADGcrzjYcAADAxBLiAAAACshwtuJswwEAAEwsIQ4AAKDAnM9WnG04AACAiSfEAQAAFJjz2YqzDQcAADDxhDgAAIACdLatONtwAAAA+UGIAwAAKEBn24qzDQcAAJAfhDgAAIACNdRWnG04AACA/CHEAQAAFKjSGeXR8ZZliZltOAAAgPwhxAEAABSor3713vifz/woumf1Pdf90XrbcAAAAHlEiAMAAChAX/3qvfGVr94bR6dGvLKot2+28Qexe/fu9EcBAACYIEIcAABAgemPcP1+POdkNF7cG42HDsSnb/usGAcAAJAnpvT29vb9q5MAAADkvXSEG0ptzfz4q3vuirq6uvQRAAAA48hGHAAAQIE4nwgXEdHcss9mHAAAQB4Q4gAAAArAmSLckfbDsX3bljh58mRiLsYBAABMPCEOAAAgz50twr30s02xr3lvvNa0VYwDAADIM0IcAABAHjtXhOsnxgEAAOQfIQ4AACBPnW+E6yfGAQAA5BchDgAAIA8NN8L1E+MAAADyhxAHAACQZ0Ya4fqJcQAAAPlBiAMAAMgjo41w/cQ4AACAiSfEAQAA5ImxinD9xDgAAICJJcQBAADkgbGOcP3EOAAAgIkjxAH/P3t3HmdlWfB//CsgIpugwADKIiq5oKiFGi6hKamVC0qWT5pLLplLmeLyVE+pjyYu5fKYpmJpP81Q1DQ01CRD3EpFwAUVQRMYxpVNRBx+f8DgnJthZ2AG3m9f9+vFua77PufMOcM0nQ/XfQMAsIbVVoSrIsYBAACsGUIcAADAGlTbEa6KGAcAALD6CXEAAABryOqKcFXEOAAAgNVLiAMAAFgDVneEqyLGAQAArD5CHAAAwGq2piJcFTEOAABg9RDiAAAAVqM1HeGqiHEAAAC1T4gDAABYTepKhKsixgEAANQuIQ4AAGA1qGsRrooYBwAAUHuEOAAAgFpWVyNcFTEOAACgdghxAAAAtaiuR7gqYhwAAMCqJ8QBAADUkvoS4aqIcQAAAKuWEAcAAFAL6luEqyLGAQAArDpCHAAAwCpWXyNcFTEOAABg1RDiAAAAVqH6HuGqiHEAAAArT4gDAABYRdaWCFdFjAMAAFg5QhwAAMAqsLZFuCpiHAAAwIoT4gAAAFbS2hrhqohxAAAAK0aIAwAAWAlre4SrIsYBAAAsPyEOAABgBa0rEa6KGAcAALB8hDgAAIAVsK5FuCpiHAAAwLIT4gAAAJbTuhrhqohxAAAAy0aIAwAAWA7reoSrIsYBAAAs3Xrz5s2bVxwEAABgUSLcotqWtU+XrlukQYPSf+dZ1q5trr/umnTs2LFknNVr5rRZmTFtVnEYWA2at2yaZi2bFocBgHWMEAcAALAMRLjFE+Pqlrdfn5wJL7+T1/89MbNnzClOA6tRk+aN03nbDum67WbZokfn4jQAsA4Q4gAAAJZChFs6MW7Ne2PMW3nmwRfzYfn04hRQB7Qqa5FdDthBkAOAdYwQBwAAsAQi3LIT49aMDyo+ymODn075+PeKU0Ad1KqsRfY/Zs+0brtRcQoAWAsJcQAAAIshwi0/MW71evv1yXnkjyOdghLqmSbNG2evw3tZHQcA6wAhDgAAoAYi3IoT41aPN8a8lWG/f6I4vFDHLdtlk/at06J1s2zYrEmaNN2guAtQC2bP+iQfz5yd6R/MzHtTPsik16cWd1mo9yE7puce2xSHAYC1iBAHAABQIMKtPDGudr39+uQ8cP3w4nCSpMu2HbPlDl2FN6gjZs/6JK+/OCETX5pUnEqS9D1mdyvjAGAtVvr/iAAAAIA67YOKj/LIH0cWh7P+Bo3ylcN2SY/dviDCQR3SpOkG6bHbF/KVw3ZJs402LE7n8buezQcVHxWHAYC1hBAHAABQcPzxx+bE448tDqd5i5bZtkfP4jAFVsPVrpF/fX6Ra8K1atci+3zry2m+UbOScaDuaL5Rs+xx0JfSql2LkvHZM+bkod//s2QMAFh7CHEAAAA1EONWjAhXu94Y81beGjO5ZGz9DRpl16/tmEbrNyoZB+qeRuvP//taXBn3Yfn0vDHmrZIxAGDtIMQBAAAshhi3fES42vfMgy8Wh9L7GzuLcFCPNFq/Ub607/bF4Rr/fgMA9Z8QBwAAsARi3LIR4Wrf269Pzofl00vGumzb0ekooR5qvlGzdNm29OeiVXEAsHYS4gAAAJZCjFsyEW71mPDyO8WhbLlD1+IQUE9s/cUtikOZ8NJ/ikMAQD0nxAEAACwDMa5mItzq859XppTcbttp4zRpukHJGFB/NFq/UTpu2a5k7K2XSq8BCQDUf0IcAADAMhLjSolwq8+cTz5d5LSU7bu0LbkN1D9lnduU3J49Y05mTptVMgYA1G9CHAAAwHIQ4+YT4VavDyo+Kg6lRWvXhoP6bsNmTYpDmSHEAcBaRYgDAABYTut6jBPh6ob1GzcqDgH1TItWgjoArO2EOAAAgBWwrsY4Ea7uaL6RD/Chvmu0vqAOAGs7IQ4AAGAFrWsxToQDAABYPkIcAADASlhXYpwIBwAAsPyEOAAAgJW0tsc4EQ4AAGDFCHEAAACrwNoa40Q4AACAFSfEAQAArCJrW4wT4aCWzBiRS/p0yF63jMpnxbkVNi2jbzkqXbY7LDeMnVmcBABgDRHiAAAAVqG1JcaJcFBLKv+Thy79Wa6vKE6sjDmZ8sivctzljxQnAABYw4Q4AACAVay+xzgRDmrJrNfz0G/OzklDXinOrJTKqY/kyotuydTiBAAAa5wQBwAAUAvqa4wT4aA2VGbWhKG55JTDc9LNw4uTK6fyPxl2zWW5c5WusAMAYFUR4gAAAGpJfYtxIhzUgsopGfmb/8o2Xz8+1z+b7HbCjbnhx72Le62gOZny9+vysyEfZLezrsvAg7oUdwAAYA0T4gAAAGpRfYlxIhzUknnlGf3Q8KTXD3PFn/+WO360dzZtWNxpxSw8JWWvU/LTI3plo+IOAACscUIcAABALavrMU6Eg1q0Xvv0Pu+hPDvopzl8u7JV90HMrOdz44Dzc2fFvjn/7G9n+6ar7J4BAFiF/JYGAACwGtTVGCfCQS1rUJbtv9Iz7VbpJzDTMvrOK3Pxs61zxFWX5ITtWhZ3AACgjlilvwYCAACweHUtxolwUB9VZtbYP+Wiyx9Ju35n58x9NvPhDgBAHeZ3NQAAgNWorsQ4EQ7qqVmjcttl1+WptsfmwtP2TXuf7AAA1Gl+XQMAAFjN1nSME+Ggvqp2SsqfnpK+7RoXdwAAoI4R4gAAANaANRXjRDior+Zk6tM3OiUlAEA943c2AACANWR1xzgRDuqzd/PcvYPzVJKpQ47Prtt3SJftqm9fzEl/mZhkZC7+1pbpst1uOfORScU7AQBgNRPiAAAA1qDVFeNEOAAAgNVPiAMAAFjDajvGiXCwNuiY/S95KhPHTl7M9u/ccFCXJL1z/p9fz8SxT+XKff3dBgBY04Q4AACAOqC2YpwIBwAAsOYIcQAAAHXEqo5xIhzUVzMz+pbD5l/77byhmVqcBgCg3hDiAAAA6pBVFeNEOAAAgDVvvXnz5s0rDgIAALBm3XzzLfndzbcUhzNj+rS8NGZUcbiECLf2Kf/Puxnym4dLxr5+3N4lt4H66a+DHiu53e9H+6VsszYlYwBA/WVFHAAAQB20oivjRDgAAIC6Q4gDAACoo5Y3xolwAAAAdYsQBwAAUIcta4wT4QAAAOoeIQ4AAKCOW1qME+EAAADqJiEOAACgHlhSjNu821YiHAAAQB0kxAEAANQTi4txRSIcAABA3SDEAQAA1CNLi3EiHAAAQN0hxAEAANQzi4txIhwAAEDdIsQBAADUQ9Vj3BlPNswZTzbMt+97X4QDAACoQ4Q4AACAempxK+MAAACoG4Q4AACAeux4IY5a9tnY67LXdh3SZYnb3jnzlnsybGx5Kot3wCq18P04b2imFierm/V8bjhmx3TZbsccccvzmVWcry0VQ3PmIt8fS9iqfR3L/LXVorrwHACAtYsQBwAAAKykV3L35afkhG99Ld/5zeOZqsatYXMyZeTg3PRsstsJV+ea7+2UpsVdAABYLYQ4AAAAYOkOujnPjp2ciTVto1/IAxf/MLulPE/d+D+5/O//sTKuljTc7pQ8PnZyJl5yYNoVJ6vMeCa3XDQ03U64OtecvlfarYlPfzr9LA+8WMP3SnGr9nUs09cGAFDPrIlfxQAAAIC1SYOybH/wgFx11bFpl1dy55//mYlK3JrTfI+cN/yF3PmjNRThAABYyK9jAAAAwCrQOO177pE9k2TchEyepcQBAIAQBwAAAKwaG2+aL3RKUvFBpn1cmWRupj4yIF222y1nPvKfzJowNJccs2O6bNchXbY7KjeMnVbt4Ol58+n7csN5ey+Y75Au230nlwx5OKMr5lTbL9Xut0P2umVUPqssz+hHrsuZfaofNyJvLjYGVmbWhJF5aMhFOWLhY3VIl+12zBFX/r8MG1teOLXmpDx03m7pst2APFTxQd585JLPjzvmdxm98HGm582nh+bOK79T7T6X9HVUmf98ht5yenotPGbvnHnLfRk5YXrJnp+NvS57bdchXc4bmqklM1nM4y/hsSuG5sztOiz4uj7O1LFDS1//Yy7KnX8ftdqu+Vfj17ZSz3F532cAgFVPiAMAAABWjfffyatvJ2nbOi03LP3IYe6Eu/OLY47P9c+WLxjZMK2abTD/j5VTMvI3J6bPcSfn4r+8Uu2o4bn+Z0fnG/3Pyk2jFxNNPns7T1z9o3zjjAtzd0XV4PBc/7P+6XPKrzNykQA1J1Me+Wm+8vXDctLP/i9PlcyV56mbz8oJ3/p2zn2kpuvczcj4By7Mt864+vPjGrdI8yYNksr/5KGfHZQ+xx2fATcPLz1s4dfxizw0tfh8pueNIWflK18/LD+4fHC1uPZK7r785Hzn6ydm4NNTanguBQtfw+LjL3jsPt9bwv28nX/d9pN8/VvHl77+z/5fBpz2vZz2h+czq/rua8TyPseVeZ8BAFYdIQ4AAABYBaZl9AN35O4k7Q7aM9s3r/6Rw8Tc9+tf5bEvX5z7hk/MxLHv5OWHzs/enTeYf9wfzs53bhye9PphBg56Ii+PnZyJYydn4rNP5I4Lf5jdKgbnwtOuyrBFIlYy8dcn5Kgbk5MvHppnR0+ef99/vTkn9ypLnr083/nvu/NmtdJSOeHunH3GLZmaPtWOqTrujpx/0NZJXsmdF92Wp2YUE809ufTy57PnOX9ZcNy4PH7+funS4JO8ee8FOWnIK0mvH+aKP7+QN6u+hrHjMvymX+awtkkqbsnP/vhMPl/jVplZY+/I+T+7I1NTlt2OvznDn31nwdf+z9xwfJ8kw/N/51xd49f+uWqvYdv+Of+qhxZ+XW8OH5orlno/w3PjzS9nz7PuqOHxy/PU5b/N/RM+KR60mi3fc1y59xkAYNUR4gAAAICVUlkxKg/d8tMcd/kjSfbN97+2Q1oUd8o3c9ZJR2bHto2TNEjTTl3TrkFSOeGvGXj5I0nbY3PDwAE5YtduaVp1SNNu6d1vQK666ti0qxiaW/46toaVWVvniKsuyzkH75R2DTL/vrsemHMGXpwj2iZ54vf507PvL9j3k0x87rE8nqTd8T/MqQuPqTquT0446cTsleqn1yzY/cSc9t1eC45rkS5d26RB5dt55qFnkuyQk39wSg7frqzaBy4tsvmXv5fTTv9mkmRqxbR8vHDuw7zwt7vzVJJ2/S7OVT86MJs3XXBk0y2z/8kDcn6vsqRiaP7fiLcWv3Jrxot54A/zX/vz/++inLRvz4VfV4O2O+XwH12WG/ptXUMIrFKW3c66Mhcd26f08U/8YU5umyQv5unX3yscsxRvX5hv7FD9dJDF7bDcMHZm8aglWJ7nuAreZwCAVUSIAwAAAJbuL8dXu35Z6bZ5n/1z0uWDMzVb57AL/ztHbdeyeHTSdvN0arN+YXBu3n39+TyepMv3jsh+7RoX5pOkcdr33CN7pjxP3flk3visML37ifnBPpst8gFHg3ZfzQ9O/2aSF/PgS29n/mEbZPN+v8vEsZPz7Jl71BALkwbNNkrb4mA17bbulDaLPNiWOeJ3L2Ti2L/lvF03LkwmScM0a9mqOJjMeCn/+MuLSXZIv2/slvbF+226U076/QuZOPaF3NZvy0W+xvkqM33sPzOkIsnuB6bvNjW89g02S9/j54enqX/5Z0YvsgJsi+yzS/fPA2iV5t2y05e7FEfXkOV5jiv/PgMArCo1/w4HAAAAsKza9s/5v/597vjrX3Jlv60XjSVJ0r1rOlStZFrok5S//UaSZOLl+6dbDZGvy3Yd0qXP8bk7Sd6ekHfen1tyDzWGsSTJ+mmz6eZpl2TiuHeyuPVclRWjMuyRoXnokaF5aMhFOaLqsWpUlq27tk+z4vAi5mTq2Efn3+cjD+TOK49KrzNuK+6UynffzksVSdIzO3WrIaAtk0/z7jtvZmqSLl/eNp1rfC2SBm06Zdu2i1sBtkW6tFtwvb5VpdPP8sCLVaeDrGm7Oydtt/RX8nMr9xyX730GAFh1FvPrGQAAAEA1B92cZxeJKQu24VfnpL5fS++uNa09WmCTjdKsFj6F2LB1i5rDXxqkafONsmFxOHMydezQ3HDe3gtX851wxvE56Yzjc9LP/i9PFXcv0SRtWzat+cOUyvKMfuS6nNmnQ7ps1yW9vvXd+fd5xgkZcPPw4t5JknkzP8jE4uBym5sZHy0uM1azYYts3KQ4uDZbmfcZAGDVqfF3RwAAAIDVpyx7XfjPvFkMfItsA7N/20bFgxejMrNmfFTtemwLxsb+Pqd96/hc/JdX5l937PjLc8NVN8/fBj2Rl4ffnMNKjlkW0zL6D2flG2dcmLsrkqRPTr7wxgX3+/vc8deX8uxVRxUPynrNWqd4UsXl1yjNN9qkOLioj6fn/dnFwbVVbb3PAADLT4gDAAAA1pCqiFSeVyZMyczi9DKY+ORLeat4psWk9JSN3TfNJklSOT73X3VdnsrWOezCx/Ly2Bdy55n/lf33PXD+tmu3NJn5USqKd7UUlRP+moGXP5K0/U4GPjAuE8fekfP6fWPB/X4tvbs2zcxpHxYP+/x0kRmV58dPK04n+SRvDjlx/uk5T7wjb9b4dVY7BediX4tqp8Hs1DWbbrysMbOeqqX3GQBgRQhxAAAAwBqyQbrsvHf2SjL15hty+9iaYtScTHnk/PRaXIx6YmiGvbzocZVTH81vr74/yb75r102T8MkmTczH75VnmSr7Lrz5oue0rJySp669y95PEnyRiZO/aS4R40WnmKye6/s0mXR03NWVjydwX95Zv6N5yek/LMFE823zVcO2iHJixnywFOZUvzaKt/OMw89M3/F4P690qXGT3EapMV2e6Zf28W/Fqn8T4bd/Ls8nqRd3x3StWFxh7VMLb3PAAArosZf4QAAAABWhwZdv54BZ+2b5JFc/MOf5oZHRmVqVZCqLM/oR27KwItuydRsnSO+tWcNMWrBcU+Oz6xkwbXB7sqlA87PnRVJu37fycHbtJy/63rN0qpzWZJnMmTI/RldMWfBfVRm1oQRufM3P853bqz5em5LsvAUk0/8JX+6//nPn3+m582n78ilZ5+e/3u2vOSY+Vplx68dlt2STB1yWQb+YXjenLXg4Fmv56Hf/CwDnihP2h6Y/9qj8+I/xGm+Q77xvZpfw8qK53PXb87OSUNeSfLNnNWvVxZNhWuZWnqfAQBWxGJ/hwMAAACofS2z/RH/nYEHbZ1UDM7FZ+yfXtt3mH86xu13XHDdta1z2IW/zS/23WzRDzJ6HZuTvzw6F39/92yzXYd02a5Len3rtFz/bHnaHXRxbjx937SvOqhBt3zzjFOyW8rz1M2n5Rt9usx/nO02zTZf758Bf2mbn91+Z361e1mSGXl/xrKtlPo8Jg7P9ecf+Pnz3657+hx3ZoZ0OCP3DLo4eyXJ7I8y/eOqUtcgTbf7Tn511enZLa/k7su/kz69Np1/bK89c9LNw5P0yQ8vPT192zUufdASLbP99y7LHSf0WeQ13LzPgflJ1f0MuiD9u25QPHjtU0vvMwDAiljk91cAAACA1arp1jnikr9k+KDrc/5BW1ebKMtux1+eG//8p1zeb+tFTzGYJB32yPE/uzl3XPjD7FY11uuHGXjNQ/nr/x6bHdtWD1gN0nS7Y3LNn2/NwOP7VBvvk5MvvDUPDL483++5a3bbf5f5p4t84qVMr7bX4rXM9t+7PA9cc3lO7lX2+XC157Fzrz3zjd3Lkorh+cfY6teLa5HN9z0nt/z17vz2rP5pt3B86xx21vW546+/y4Bd2y/9A5wG7dP7R7+r4TVc8LUN/8Oy3c9aobbeZwCA5bfevHnz5hUHAQAAqD9uX2/vhX8+ct5jJXOsHcr/826G/ObhkrGvH/f5+77umZupj5yfXmfclhx0c5695MBqAQvql78OKv253e9H+6VsszYlYwBA/bVu/EMoAAAAAAAAWM2EOAAAAAAAAKgFQhwAAAAAAADUAiEOAAAAAAAAaoEQBwAAALVs1vsfZNb7HxSHWWGN0m7fgZk4dnImXnJg2hWnAQCgjhDiAAAAoJY13bh1Hj3uvDx77S2CHAAArEOEOAAAAFgNep59fF477dbcu0k/QQ4AANYRQhwAAACsBp1375UWB38hSQQ5AABYRwhxAAAAsJr0PPv4ktuCHAAArN2EOAAAAFhNqq+Kq06QAwCAtZMQBwAAAKtRcVVcdYIcAACsXYQ4AAAAWI0WtyquOkEOAADWDkIcAAAArGZLWhVXXVWQe+X3d6bB7FnFaVbK9Eyc8G4qi8OrVGVmjf1djtiuQ/a6ZVQ+K04DALDWW2/evHnzioMAAADUH7evt3dxiLXUp/v0zOxttk9lk6b5+nHe9xVTmVkTHs9tN/wy/6/7b/LYsT3TsLjLKlI5dWjO/dbxubMi6XLWQ7X6WNRffx30WMntfj/aL2WbtSkZAwDqLyviAAAAoJ5Y/++j0uTl0cVhlsvHeeOxa3LxX14pTqxalf/JsGsuy50VxQkAANYlQhwAAADUA5/u0zPTf/jdzNpp1+IUdc6cTPn7dfnZkFqOfQAA1HlOTQkAAACr2bPX3pLXTru1OFyjra45Ou367JWhv3+mZNypKVfUzIy+5eh84/KRtXa6yIWnpOx6fm446M2c9LM7au2xqP+cmhIA1m5WxAEAAMBqNOv9D5Ypwm11zdE55L0h6XXqsWnSaqPiNCuiYmjO3G7LfOPykUmSiZfvn27bdUiX84ZmamZm9C2Hpct2HZZxG5CHKuYWH6HaKSn3zfln/1d2btmouMcyq6wYlWHDrsuZfao/7ndyyZChGTlhenH3Babnzafvyw3n7V045uGMrphT3HnBa1L19czJrAkjcueV31lw3I454sq7Pj+usjyjH6n+fL6TS4aMyJuzKov3CgDAAkIcAAAArEZjb7+3OFSieoBrunHr4jR12rSM/sN5OWnIB9ntrDNz1HYtizsss8qpQ3Nu//1zwo8vzN0l15kbnut/dny+8/VTcsPYadUnksopGfmbE9PnuJML18Abnut/dnS+0f+s3DS6PDVnsxmZ+M8rcuzX+2fAzcMXjJXnqZtPyzf6/yIPTXkrI6/+Ub5xRvXnMzzX/6x/vnXJQ5lS850CAKzzhDgAAABYTZa0Gk6AWw3aHpgrx76eB87qnSTpctZDGT92ciZecmDapVm2P/buTBw7eRm3gdm/bfXVbpWZNfZPuejyR9Ku38W56ns7pWm12eXzfp7641W5syJpd9DFuW/4xM8f99l/5obj+yR5JBf/cUSmLjxmWkb/4ex858bhSa8fZuCgJ/LywmOeyB0X/jC7VQzOhaddlWFTa1gZl3ty8c+GZdNz/pJnR0/OxLHv5OW/3pyTe5UlFUNz47mn5owXtssVf34hb46dnIljx2X4VadntyRTh1yVW559v3iHAAAIcQAAALD61LQaToBbS8waldsuuy5PtT02F562b9qvzCcun72d0cNeTLJD+h1ycHZs2/jzuaZbZv8z75gf2C45MO0WDFdO+GsGXv5I0vbY3DBwQI7YtdvnIbBpt/TuNyBXXXVs2lUMzS1/HZtZn9/jAmXZ7awrc9HRvdKuQZI0SNOuX823D9olSXn+9exG+f7Zp+fw7coWfJjUIpvv+70ce1CXJB+lYvrs4h0CACDEAQAAwOpRXA0nwK1NpmX0nVfm4mdb54ifnpK+7aqFsxXRsFO277tDkhdz/W+vy51/H5WpSzz149y8+/rzeTxJl+8dkf1qfPzGad9zj+yZ8jx155N547Pi/BbZZ5fuhVV866fNppvPj32dvpzeWxdPtblRNu2+aZLZqZg2azGnvAQAWLcJcQAAALAaVK2GE+DWNtVPSXl2ztxns1XwYUur7Pi1w7Jbkjz7fxlw2v7ptX2HdOlzem4Y9reMnDC9sP8nKX/7jSTJxMv3T7ftOqRLTVuf43N3krw9Ie+8P7dwH1ukS7sNCmMN0rT5RtkwSXbqmrKGhemFyjPxo5mZVxwGAGAV/G4IAAAALNGs9z9IEgGuTpuZ0bcctmi8Wuw2IA9VzE1lxYhcu6pOSblQgzTd7vu55a+DM/D4Pp8PVwzOxT8+Jt/5evd06XN6bhpdbhUaAEAdt0p+PQQAAAAWr+nGrQW4tdJneXfUA/m/Z8uTilty0t5dCrGuU3qdcVtSfaXaeUMztXg3NWqQpl33yBFn3pGJY8dl+KDf54Zf/yyHtV0wXTE4F377rNw4dlq1Y8qy14X/zJtjJ8+/htxit4HZv22jascBAFBbhDgAAACANMv2x95dQ7Ra3DYw+7dd7LkaV7EW2XzXr2X/vqfkyuGT8+bwO/PDXmVJHsn/e+bNfJZGab7RJknK88qEKZlZPBwAgDVGiAMAAABYIY3Sbt+BNUS6qu3tPHvVUUmSLmc9lPFjJ2fiJQemXfFuiiqG5sztOqTLdifmzgmfFGfToG2P7LFDWbWRDdJl572zV5KpN9+Q20tWyVWZkymPnJ9e23VIlxPvyJvOaQkAsFoIcQAAAMA6pGr1WPLx+HdSUReDVNvdcvjxOyS5PwN+cVnuGlv9WnDT8+YjN+Sqm19Msm/+a5fN0zBJg65fz4Cz9k3ySC7+4U9zwyOjMrXqoMryjH7kpgy86JZMzdY54lt7potPhAAAVgu/dgEAAADrkPXTZtPN0y7J1CHHZ9ftl+e6bavLxtntqP+ef/rJZ/8vP/nWjtl84XXnuqfPGVfnqWydwy787xy1XcsFx7TM9kf8dwYetHVSMTgXn7F/em2/4Jjtd8w3zrgwd1dsncMu/G1+se9mPhACAFhN/N4FAAAArEMapEWv4zLo4h9mt6qh5yek/LPSvda0Bm33yoDrhuSOqy7Pyb2qn4Zy6xx21nW58c9/yuX9tk7TajNpunWOuOQvGT7o+px/0NbVJsqy2/GX13wMAAC1ar158+bNKw4CAAAAdUf5f97NkN88XDL29eP2LrkN1E9/HfRYye1+P9ovZZu1KRkDAOovK+IAAAAAAACgFghxAAAAAAAAUAuEOAAAAAAAAKgFQhwAAAAAAADUAiEOAAAAAAAAaoEQBwAAAAAAALVAiAMAAAAAAIBaIMQBAAAAAABALRDiAAAAAAAAoBYIcQAAAAAAAFALhDgAAAAAAACoBUIcAAAAAAAA1AIhDgAAAAAAAGqBEAcAAAAAAAC1QIgDAAAAAACAWiDEAQAAAAAAQC0Q4gAAAAAAAKAWCHEAAAAAAABQC4Q4AAAAAAAAqAVCHAAAAAAAANQCIQ4AAAAAAABqgRAHAAAAAAAAtUCIAwAAAAAAgFogxAEAAAAAAEAtEOIAAAAAAACgFghxAAAAAAAAUAuEOAAAAAAAAKgFQhwAAAAAAADUAiEOAAAAAAAAaoEQBwAAAAAAALVAiAMAAAAAAIBaIMQBAAAAAABALRDiAAAAAAAAoBYIcQAAAAAAAFALhDgAAAAAAACoBUIcAAAAAAAA1AIhDgAAAAAAAGqBEAcAAAAAAAC1QIgDAAAAAACAWiDEAQAAAAAAQC0Q4gAAAAAAAKAWCHEAAAAAAABQC4Q4AAAAAAAAqAVCHAAAAAAAANQCIQ4AAAAAAABqgRAHAAAAAAAAtUCIAwAAAAAAgFogxAEAAAAAAEAtEOIAAAAAAACgFghxAAAAAAAAUAuEOAAAAAAAAKgFQhwAAAAAAADUAiEOAAAA6qG5n84tDgEAAHWMEAcAAAD10PQPZxaHgHpmxkf+HgPA2k6IAwAAgDqu8QbrF4esiIO1wKdz/D0GgLWdEAcAAAB1XOu2GxWHUv7Wu8UhoJ6Z+p9F/x6XbdamOAQA1GNCHAAAANQDnXt0KLn97jsflNwG6p/J4ytKbpd126TkNgBQ/wlxAAAAUA9069Gp5PbMjz7OpAnlJWNA/fFBxUeZ+dHHJWObdW9fchsAqP+EOAAAAKgHOncvXRGXJOP+/WZxCKgnXnr6teJQturZpTgEANRzQhwAAADUA81aNk2Pr2xVMjbzo4/z6vNvlIwBdd8bYyfmw6nTS8a679KlxutBAgD1mxAHAAAA9cTOX9m2OJTXn3/LKSqhHqmY9F5eeXp8cTi77b9jcQgAWAsIcQAAAFBPNGvZNL0PWfTD+uf//lLeGjepOAzUMZMmlOeZh14sDueL+2+XZi2bFocBgLWAEAcAAAD1SM89tknnHoteL270iFfz/ONjM3vWJ8UpYA2b++ncjHnq1Tz/95eKUynrtkl22XeH4jAAsJZYb968efOKgwAAAEDdNeeTT/PAzY+lfPx7xamsv0GjbLFj55Rt1ibNN2pWnAZWoxkfzUz5f97NGy+8lU8/mVucTpPmjfNf5x2UxhusX5wCANYSQhwAAADUQzOnzcrf/jiixhhXpdlGG6Zpyw2zScdWxSmgFr036cPMmvZxZn70cXFqobJum2Tv/rumdduNilMAwFpEiAMAAIB6as4nn+bpYaMy5h+vFaeAOqz7Ll2y58G9rIQDgHWAEAcAAAD13Btj3sozD76YD8unF6eAOqRVWYvscsAO2aJH5+IUALCWEuIAAABgLfHyv97IC4+9LMitJTa64ncL//zRT04smaN+aVXWItt+eYts02tLq+AAYB0jxAEAAMBa5oOKj/LWq5Py7qQPMnvWnEyrmCHO1UNCXP3UqqxFWrZtniZNG6dNx9bp/IWOrgMHAOswIQ4AAACgDrp9vb0X/vnIeY+VzAEAUD80KA4AAAAAAAAAK0+IAwAAAAAAgFogxAEAAAAAAEAtEOIAAAAAAACgFghxAAAAAAAAUAuEOAAAAAAAAKgFQhwAAAAAAADUAiEOAAAAAAAAaoEQBwAAAAAAALVAiAMAAAAAAIBaIMQBAAAAAABALRDiAAAAAAAAoBYIcQAAAAAAAFALhDgAAAAAAACoBUIcAAAAAAAA1AIhDgAAAAAAAGqBEAcAAAAAAAC1QIgDAAAAAACAWiDEAQAAAAAAQC0Q4gAAAAAAAKAWCHEAAAAAAABQC4Q4AAAAAAAAqAVCHAAAAAAAANQCIQ4AAAAAAABqgRAHAAAAAAAAtUCIAwAAAAAAgFogxAEAAACsAX874dy89cSzxeHl8u648Xni4mvy6cezi1MAANQBQhwAAADAGtD5gL0yYo8Buf+Qk5c7yL07bnweG3Bxhn3h+Gy89RZZf8MmxV0AAKgD1ps3b9684iAAAAAAtevTj2fnvq8cnTnPViRJWhz8hfQ8+/h03r1XkuT29fZeuO+R8x5LFgS40Tf9KZMvezhJ0rhX2xz8j1uFOACAOsqKOAAAAIA1YP0Nm2S7c49ZeHv6fa8udoVc9RVwVREuSbY79xgRDgCgDrMiDgAAAGANKa6KWx5WwwEA1H1WxAEAAACsIcVVccvDajgAgLpPiAMAAABYg7Y8YJ807tW2OLxEjXu1zZYH7FMcBgCgjhHiAAAAANagFVkVZzUcAED9IMQBAAAArGHLsyrOajgAgPpDiAMAAABYw5ZnVZzVcAAA9YcQBwAAAFAHLMuqOKvhAADqFyEOAAAAoA5YllVxVsMBANQvQhwAAABAHbGkVXFWwwEA1D9CHAAAAEAdsaRVcVbDAQDUP0IcAAAAQB1S06o4q+EAAOonIQ4AAACgDll/wybZ7MSDS8ashgMAqJ+EOAAAAIA6ZNKkSbnyvrvzafP5txv1bG01HABAPSXEAQAAANQRkyZNysmnnJaJ772bVzedlyR5aYPZqfjg/eKuAADUA0IcAAAAQB1QFeHKp1YkSZ5qVZlZGyePrzcjJ59yWiZNmlQ8BACAOm69efPmzf/nVQAAAACsEcUIV6Xt3KSi0fw/l7Vrm+uvuyYdO3Ys2QcAgLpLiAMAAABYgxYX4WoixgEA1C9OTQkAAACwhiwpwv3sv7dLWbvGJWPlUyucphIAoB4R4gAAAADWgCVFuKt/86V84+tdc/11vcU4AIB6TIgDAAAAWM2WFuF23aUsSdKxYzMxDgCgHhPiAAAAAFajZY1wVcQ4AID6S4gDAAAAWE2WN8JVEeMAAOonIQ4AAABgNVjRCFdFjAMAqH+EOAAAAIBatrIRrooYBwBQvwhxAAAAALVoVUW4KmIcAED9IcQBAAAA1JJVHeGqiHEAAPWDEAcAAABQC2orwlUR4wAA6j4hDgAAAGAVq+0IV0WMAwCo24Q4AAAAgFVodUW4KmIcAEDdJcQBAAAArCKrO8JVEeMAAOomIQ4AAABgFVhTEa6KGAcAUPcIcQAAAAAraU1HuCpiHABA3SLEAQAAAKyEuhLhqohxAAB1hxAHAAAAsILqWoSrIsYBANQNQhwAAADACqirEa6KGAcAsOYJcQAAAADLqa5HuCpiHADAmiXEAQAAACyH+hLhqohxAABrjhAHAAAAsIzqW4SrIsYBAKwZQhwAAADAMqivEa6KGAcAsPoJcQAAAABLUd8jXBUxDgBg9RLiAAAAAJZgbYlwVcQ4AIDVR4gDAAAAWIy1LcJVEeMAAFYPIQ4AAACgBmtrhKsixgEA1D4hDgAAAKBgbY9wVcQ4AIDaJcQBAAAAVLOuRLgqYhwAQO0R4gAAAAAWWNciXBUxDgCgdqw3b968ecVBAAAAgHXNykW4zzL536/nicdG5fSzn8vkheNbZcDNu6R3z6755hdbLPu/iK6cnn/fPyGjRj6T4we+Vm2ifY6+rE8O3nmz9N2nTZpXm1m6j/Pvy+/Ml86ek8v+dUzO+mJpdEuSSZNm5uRTRqZ86pyS8bJ2bXP9ddekY8eOJeMAACyZEAcAAACs81YmwlVOnpirzr0nZ946pThVTcv0GXBALv/RDvlih4bFyWpmZ9zD/8r/fu+B3Pp5zatRh6MPzr2/2iW7LPH+qnyWd4Y8kF6HPZnJ6bbYEBcxDgBglRLiAAAAgHXaike4eZnxynP54T6D50ezPl/JzT/aIQd8c9N0qFr6NuPd/P2hl/KH04cu2GffPHr73tmnxng2O68M+mv2Of7ZTE7L9Bmwb077WrfSlW+L3N838q/7d88Xm69XelcFle+MyQm9/phBk5MsJcRFjAMAWGWEOAAAAGCdteIRLsmMt3P5N2/L2cOTPuf1z+0XbfV5gCuaMSWDfvinHH/rlHQ47rt59sYe2bRk33mZ8e8n8s0vPZDh2SrnPdo/F+3TcrGnsqyc/Fp+euTgXDI86XvzCXnwuLaL3TeVH2TICX/IYYOqVuwtPcRFjKuTpr4/M69MeC/j3vogUz+cnckffFzcBahlW3ZokS5lLbLFZq3SpcNGadl8g+IuACWEOAAAAGCdtFIRLnMzbtCd+cLxoxcT1mqwMNy1yIBHj8ul+zT7fK6yIoMOuDHHD2ua4+7+Xm7s13rxYS0pDXcd9s6jr/TNPi1rWhVXdUrKsfnCZQfmqNHDcvytrZYpxEWMqzNGvzY19z/xpvAGddCXt2mbfXfpmnYbV/uZDlDNkn+nAwAAAFgLrVyEm7/KbMSdE5NsnTNP2WLpES5JmnfMd07bLh3yTgZe+nLGVX4+Vfn6xNw5bFrS50s5pW+rZfjAZr0032nrnHbl4bn72q2y2WIOqHzn5fz81Cczuc9eufzkLmlV3GEpOnZsluuv652ydqXRrnxqRU4+5bRMmjSpZJxV67W33svFv386v3vgJREO6qgnX67IhX94Nvc+Ni7TZnxSnAZYht/rAAAAANYiKx3hqoezvj1y0E4bFqcXo2E23bdHjuqQZNjbGVNeVeLm5vURr2ZYki2+vnl6LuV6bws1aJN+P/5S+vXrlu41HTPj7Vz53b9k0OStc9nlX1zqdeQWR4xbM/725PhcffdoAQ7qiUdfmJRLbns2b0/5qDgFrOOcmhIAAABYZ6yKCJfMy7S/D8vWX30sk4/+bib9oUc6FHdZnIWnoGxT7fSQM/P3cwblqwOz6CkrV9jH+ffld+ZLZ39Y7VSXH2bI936Xw5bj1JTVOU3l6vHJnLm5bejYjHrzg+LUQq1bNEn3Lm2ywfqNilNALav4YEYmTPowH8+ZW5xa6MRvbJvtt2pXHAbWUUIcAAAAsE5YNREuSSozech96XjY09nistPyylmbZtlzSE0xrKaxlfH59eNeLbl+3co/jhhX+266d9RiI9yuPTZLjy07plnTDYpTwGr29uT3M+rVdzJ+0ofFqUSMA6pxakoAAABgnfDPf46oMcJ9/YD2yxHh1pC57+TyLc/NeuvVtA3M94ZU+yB4xn9y/VmPZ3iHL+faC7ZZtuvXLaOOHZtln70Xfa3Kp1bkn/8cURxmOf3tyfE1RrhuHVvl+EN2ya47bC7CQR3RqcPG+Uaf7XPo3ttlw8aL/nOM2x8Zl6nvzywOA+ugVfirGAAAAEDddcQR38qJxx9bHM5fH5ySm29+uTi8BOulWaum6ZDkjdEfZNG0twSVn+bDKYs7ndknqfjo0+Lgcvo4/77+0Zw9vGmOu3avHLJpw+IOK+Xmm1/OHXe+XRzOiccfmyOO+FZxmOXw2lvv5YGn3ioOZ9cem+UbfbYX4KCO6tRh4xx54M7p2KZ5yfiM2XNz01/G5JMlnMISWDcIcQAAAMA64/jjj60xxv3u5vHLEePWS/PNNsn2SfLE+5m0PJ+xzpiWV0dPS9I23TpWraBonh5f2TTJ9LwwYVYqC4ckSRptmrNe/1Xmzau+XZB/Xdat2k6fZfLfn8hZZ7+SDsftmwsOab1KP/i5+eaX87ubxxeHc+Lxx+b4Gl5Tls/gv79eHMquPTbLrjtsXhwG6phmTTfIQXvvkNYtmpSMT/7g4zw9ZlLJGLDuWZW/jwEAAADUeasixjXYskuO6NsyeWN8Hhv1cXF6MT7LO4+MyW2Tk/TtlB5lVR/LNEzHnl3SJ9My7M6Jeb3GErcspufJPzyX4UkmD/pjNmtYPIXlr3LYre8nGZ+zv/TzRU9puQQiXO0a/drUTP6g9PuoW8dWIhzUI43Xb5hv7LXtIqepfPDpt6yKg3WcEAcAAACsc1Y6xjVonT2O6JLklVx53Rt5Z5F4NjfjBv2/rLf3gxn093czI0lmTMod14zN5LTPcSdtkS0XfiqzXprv9IUc1bdlMmxELr33g5pXxa0hIlztu/+JN4tD2XuX7sUhoI5rvVGz9Npus5KxGbPnWhUH6zghDgAAAFgnrVyMa5Tu39orl/VpmcmD/pLvnjcm42bMqzY/N5Vpkg7D/5Hjv3p5un/vkfzqh3fn7OHTkj5fyil9W5V+KNOgTb518V7pkykZdNiQnDekYn68W6x5mTFuXP7813erjbVKvz8MKJy+svp2bu4+euMk3XLZvy7IvHkD8od+raodvygRrvZNfX/mIqvhdu2xmWvCQT217ZYdF1kVN+LFySW3gXWLEAcAAACss1YqxjXvlDNv75/z+iTDB/4xX/jmQxl03zuZXJkkTbL1cYdl0qTv5ugkk299JOfdOiXp0Cs3//ZL+WLz9Qp3tl6af/FL+e3NvdIhr2XgYVek+/cez10L72+Byun5932jM+icQWnxhT9m4PBpSYct8pVtS69LtCqIcKvHKxPeKw6lx5Ydi0NAPdF4/YbZoXv7krHJH3ycaTM+KRkD1h3rzZs3r/o/1wIAAABY59x88y353c23FIdz4vHdcvzx2xSHS1ROnpirzr0nZ946pThVg5bpM+CAXP6jHfLFDg2Lk0k+y+R/v5jfnPXg/Mi2RO1z9GUH5r9P3irdFwl7NfkwQ773uxx2a6tc9q9jctYXGxd3WEiEW31uundURr35wcLbrVs0yVHf7FWyD1C/fPDRzNz21+dKxk78xrbZfqt2JWPAusGKOAAAAGCdtzIr4xp06JIf/+G0TPrXsbn75q+kT2G+w9EHZvDd383dd/fLgD7J8IF35ksdr8nxQ2q6FlzDdPjiTrn0sTPz6qNH13B/LdNnQL/cffeJeXX6GfnDWd2XMcItOxFu9Xpj8vSS2927tCm5DdQ/rTdqVhzKB9NnF4eAdYQVcQAAAAALrMzKuGVSOT3/vv/l/Pk3r6bt5YfnrC9uWNxjjRLhVr/Tfj285PZeO3XNjtt0KhkD6p/b7n+2JL71/0q37LVz55J9gHWDFXEAAAAAC6zMyrhl0qBFvnjwLrn0saNEOGrUotmqv94fsPq1blH6d/k/U0tXvwLrDiEOAAAAoJpaj3F1kAhXdzRvukFxCFgLzJo9tzgErCOEOAAAAICCdSnGiXAAALVHiAMAAACowboQ40Q4AIDaJcQBAAAALMbaHONEOACA2ifEAQAAACzB2hjjRDioDe/mqYt2Sfddr8iYFboc2OxMuP3b6d6+0RK2UzKsfIXuHIA1RIgDAAAAWIq1KcaJcFAb5qR86C9z1rXPFSeWw4xMGb/o300A6jchDgAAAGAZrA0xToSD2jAtE4ZekJ8c99tMLU4tj7kTM+b+55KcmGtHzc64KXNr2K5L37JGxSMBqMOEOAAAAIBlVJ9jnAgHtWDmqxl20RHpe9yv8kxxbnm991bGTUzSp1e6txXbANYWQhwAAADAcqiPMU6Eg1VtTipGXJjvbrFdTr324aT3/+TmQf+TzsXdllllZrz274xM0q5H17TxqS3AWsOPdAAAAIDlVJ9inAgHtWFOyl8cnmeyX0646sk8cdfP0nvTpsWdlsOcvPvW65mabum985ZpXpwGoN4S4gAAAABWQH2IcSIc1JbGKdv9pxky6r6cfUSvtF3pT1lnZMr48Ul2zi6bfpCnbj8v323fKN3bN0r39jtmwHV/zlPjpxUPAqAeWOn/iQAAAABYV9XlGCfCQW1qnLY9906PssbFiRUzd2LG3P9ckrty/td2ztFnXlbtmnNjcu8FR+bo3kfkyhGTUllyIAB1nRAHAAAAsBLqYowT4aB+qXzrxYycmCQ9csjPh2bYG3MybsrcBdv7Gfbny3NI2cO5/vCTM2jUh8XDAajDhDgAAACAlVSXYpwIB/VPg27HZtCUuRk35YUMPKVvujar/rFty3Td65T85JIfpF2G5vf3P58Z1WYBqNuEOAAAAIBVoC7EOBEO1laN03brndM9ydTBj2bMdCeoBKgvhDgAAACAVWRNxjgRDtZuDZq1SpskKX8/02YJcQD1hRAHAAAAsAqtiRgnwgEA1E1CHAAAAMAqtjpjnAgH9d3sTLj92+nevlH2uOixxV7/rXLmh3k3Sfr0Sve2jYrTANRRQhwAAABALVgdMU6Eg7VBk3Te7WvZY4nXf/swLz10T0akQ/Y4qHc6+1QXoN7wIxsAAACgltRmjBPhYO3RoOs++faRPZLyX+Ws86/Pi+VzPp+snJwxd16aX10wNOn9k5x58FY+1AWoR/zMBgAAAKhFtRHjRDionz4bdUX2bd8o3dufkmHlcz+faNAl+55zXc7r3yNTB5+ew3s2Tff2jeZvHTul3xmX5Zne5+bay49Lj2Y+0gWoT/zUBgAAAKhlqzLGiXCwdmpQ1jvHXvVghvz++pzQu8PnE2VHZcCNj2bYbRekb7eW1Q8BoB5Yb968efOKgwAAAACsejfffEt+d/MtxeGceHy3HH/8NsXhRYhwa5/Tfj285PYRfXumrI3YAvXdA8NHZ/ykDxfe7rl563z/kJ4l+wDrBiviAAAAAFaTlVkZJ8IBANQ/QhwAAADAarQiMU6EAwCon4Q4AAAAgNVseWKcCAcAUH8JcQAAAABrwLLEOBEOAKB+E+IAAAAA1pAlxbjjvv8PEQ4AoJ4T4gAAAADWoMXFuLEvzSgOiXAAAPWMEAcAAACwhi0uxlUnwgEA1D9CHAAAAEAdsKQYJ8IBANRPQhwAAABAHVE9xp3xZMOFmwgHAFA/CXEAAAAAdciSVsYBAFC/CHEAAAAAdYwVcNRJM1/LU0NvymX9OqV7+0afb/3Oy11DH8yY8jnFI1bc3H/npl0bpXv7UzKsfO7C4c9GXZF92zdK99PuSUXJAUsyI2Ou+2q6t++eAUPfLk6SeI0AapEQBwAAAAAswZxUPH9dBvTeJkcfd3JuHDm5dHrkZTn/uG+mX8+Dc9nQVzOrdBYA1mlCHAAAAACwWJVT/ppfH3N67i3vkUN+fntuHfl+xk2Zu3B7ZdTTufbnR6VdHs6Nx52d20d9WLyLVaZhz5/kkSlzM+6aQ9O2OMlKaJ4epzyacVPGZeCBnYqTAKwEIQ4AAAAAWIzZeevvd+au8g7Z5ec35henfCu7dWtZskeDsi+m7ym/zvU/PzDJ0Ay85J5MqCzZBQDWWUIcAAAAALAYFRn35HNJuqfP7tukaXF6oVbpcdSPc0JZkuHPZlzF59d1A4B1mRAHAAAAACzGhmlZ1irJuIwc+06WuNCtxd45e9TcjJtyXfqWNSpMTsuEEffkrosOSPf2japtB+Sy2/+aMeVzCvvX7LNRV2Tf9o3S/bR7UlGcnPlanrr/igzoWf2+H8uEmUt81vOPG3pTLuvXqfS59Tsvdz3071Qs5fBFVWbW+H/koeuOzR4L769TvnvRTXl01OQaXsO3M+y07unevnsGDH07leX/zrCSY5fvNcr0x3JZz0bp/u1blrAy8d08ddEu6d7+27lr/OwkMzLmuq8ufA5JZWaM+Gn2aN8px93+ag3PeYHFPVbl5Ix56I7cdNqOK/xeJ0nl+FtyXPtG2ePMe1K+uCdR9Rx6/jRPTV/cTgBrjhAHAAAAACxGy2y+865pl8kZceaPcsWyhK2iyokZduZe6Xt4/5x/7cOFyYdz45kHp1/fn2TYlGUPNEWV5Y/kyqP2ydEnnJN7y6tGH86NZ+6X7547KC+9/2npAQtUTrkn5/feJkcfd3JuHDm5dHLkZTn/mF1z6FlLiECLmJOKEf+bE3t/NadfcFumLhyfnGeuPTk/+NoBOfeGkYuJex9n0jNX59y+u+bUkmMXvEY/uC5jluW1b7F99uy/czL8b/nXhNnF2SRJ5ZR/5i+Dn0v6fC1f6tqkOJ2kQZr3/GoOLpucEX8ZmbdqfNg5Kf/nkNxX3iF7HNQ7nRd80lxZPjK3nHFA+h1zVAYOHlNt/wVfR8+Dc+WISYuPe9U06No7B/bpkKm335l/1vi1VGbGqEfnP4dzjsouLXzcDdQ9fjIBAAAAAIvROGX7n5fLT99vYdjqu0Xj+avFht6TYUtdMTY7E/50Tk69fUzS++xc+re388qUuRk3ZW7GTXk/w/58eQ4pS1L+21xw0xOZUTx8WVROzCOXnpXrR05Oep+ba0e+X3L/vR8/Kz+9dmTxqKTy1Qz50enzr3936u8zZNSsBcfNzbg3Xs4tPz8q7ZJMvf2S3Dry3eLRNajMrFHX5ceH/zLPZL+ccOXDGfbGnM+fy1035oTe7+Xe/zklv35oYg0hanKeuf7XGbnX5bml+tcw6NzskiQjr8iV971Ww3FFbbLLkT/IHrkrv7n9yRpe06rr/u2cE079Zrou7hPiFl9O/3MOT4b/NoNr+vor38w/b703U8u+lxO/udX8D5orJ+aRS0/JJYPHJGVHZcCfX84LC17TV0Y9mUtPnf99dP3hJ2fQqA+L97ioBl3ypYN2T/JEhj5Vw2tW+XZGDnkgU7N7Dtytiw+7gTrJzyYAAAAAYPEadMxu5w7KkEGXzo9mWbBa7Lj+OfWYXbN7xyWcxrFyYv71lyeS7JwTzvxJDu3ZodoHki3Tda+Tc8o5hydJppZ/mI+rHbqsKif8PX+6fUxS9oNce93P07dbywUzLdN1r9Pzi1svnx+yCionjMzQ4ZOTsu/l1DOOTI+yxp9PNtsqu598bn7Up0OSD1MxbRmeWeVrGXrJFXkmPXL4oOvzkyP3TtdmVV9ty3Td49j85Lqrc3jZmNx10z15qabVbb0vz/W/Oj27V/8aDvxRTj115ySTM+LJl/Je4ZCaLFxJNvjRjCmerrHqPSnrmz17blw6V6JJOu/2teyR53Lf8NGLBL2q169d/6+mR4sG81enjbwxF1S9F3+7Id/fa6uF1xVsUNYrh55/fa49skeSofn9/c8vcp+LqnoONa/MW/jeL3ZlH8CaJ8QBAAAAAEvWoEN6HPiTDBw1Jy+MfDTXDrotA/r3+Hx+wWkcdz/8pxk2flq1476Qw//0dsZNeSZn79Hm8/GFGqVZqyXFoKWZnbee+ltGJGnXv196t68W05IkDdJ0+wNySJ8OhfGkQbdjM2jK3IwbdVF2q+mUhg2apmXbDYuji1fxUp4ZPjnpclSO7Fvz6qwG7b+UPnt1S0ben6den1WcTud998w2C+NdlVbZYucvFcaWosHm2fPoQ9KufFj+Oer9kqlFA9riNei6T759ZI8agl7V675zDu6zfZonSWZlwotPZupi34v5K9z2PfWM7JHUcJ81a9Dtmznx1JpOtVn1HEpPjQlQ1/jxBAAAAAAsowZp2u0r6Xvgd/L9a17IuCmz8sTf7s+1V5694PSJv8qpZw1awrXM5qRi1IMZNvSeDBt6d+666JvZ/bjfFXdaDjMyZfz4JN3Se+ctFwShggabZuu9uhdHF1U5OWMeumfBc7spl/XrnVMHjy/utVifTRmf55Jk4jnpt1mjdG9f07b5gvt8O+Pe+aBwD92yc9d2aVgYXTGNU7Znvxxc9lxuvPb+TFj4drybZ27/bUbk8PzoyC/X/HpV16BTevf7RtqV/yG/u7/aaTGnP5nBl96V9PlB+veuCqwfZNLLby/5vUjSoG3XbFOWpPzJjBm/aIxc1Mbp0adv2hVPT7lwtaXTUgJ1m59PAAAAAMAKapy2PQ9I3yMvya0vDM7hZUlG3p4Hn6+2CqtycsYMvSIDejZK9/ZNs/vXvplTj+ufU487Iudf+3D1O1sBH2da+TJca2wxKsv/nWHXHZs92jdK946d0u+Y/gue28m5ceTk4u71S4udcsBJB5auJJs+Ov8c/NxynMqxQZrvdHCO6Z1qp4aszIxRj+a+8hVcibZhy7RelodeqEGa9/xqDi4rPT3lwpV9Rx6RPZfpawFYM5b3xyQAAAAAsE6Ym4qhp6R7+0bZ46LHlno9rwbt98uRJ30lyXP524sT81mS5MOMuf6k9DvunNxbniT75YQr78y1gwbn2kFDcuvIqXli0InFu1oOG6ZlWavi4LKZ+WwG/eCQnHrBbZmaJL3PzsWDBi94bo9m2Btv5Nr+3YpHLV2fGzNs0tyMm7KkbVwGHtipeOQq1irb7n9o9li4kmwFA1qz7bPv4btXC3rvZ8zwYZm6oivRPp6WD2YnSdu0atGoOFuzRaJitVNj9tszZcv9JABWHz+iAAAAAIAaNMrGm26RzstxPa/5OqRzq+ZZL0nl+Hty5QVDk7Jjc/GI9zNuyoM5+8jD0vfAQ9P3wIOyW7emmflh6TXMlk/ztO/WLcn4jHzu9ZpjYeU7eeXxcYXB2Zlw3xUZOHJy2vUflIfemJNxQy7J4QceuuC5fSVdN5ydaRUfF45bvPVabJzOSfLyG5my2FNzrl7zr/G2yYKVZAsCWtn3cuI3t1qOD4abpPM+R+TwsgVBb8GqunannpT9u1VfidY6HbfptOT3IkllxYS8XJ6kbMts1raG68jVqBAVq05LWdY3e/ZcmWsMAtS+Zf95CwAAAACsUxpu/42c3KdDUv6HXHvN31OxhL5UOeXh3H7DP0qu2TVv+vt5K0m26Z0vdWtZPCSV5SMy5K4n5t94ZnzK5xb3WJom6bzb17JHkqmDh2TklDmF+crMGv1g7h1ePM3k3Mz4sCJJh3T/8q7p2qz4MemcVIz884Ljxue5CVMXrPBbvAZde+fAqtfqtn+npqufVU65J+f3bJTu7b+du8YvOF1kbaq6xtvwv+Vfo56eH9D6fzU9WhS/3iVr0H7PHNS/Q0b85Z8Z8/yjua985xzcZ/vCdeCapusOX067JFMH356HXp9WMpvMv67bI9delRFJ2n31i9l8kdd98ea/vvNPkTlh/ILTUq7A1wKwuvkpBQAAAADUrMFWOfC8n2SXTM4zV++fQ8+4Ig899O/SIFc5OWMeuilXnHJ67irvkF1O/36+suCaXQtXiQ3/cwYPfrbacdMyYcQtueIHx+b6lbwWW4Nu38yJp+6clP82p57yP7ln1OTMf5hpmfD41fnF0WflmeJBaZTmrdommZwRd/0+9y08JsnM1/LU7f+THx/+yxqOW4Lqr9UFJ+QX192TMeVVYXBOKkbdk0H/+8vcVZ7VeF2zquurPZG7Lrw095UfmGO+uVMhoC2LjdOjT9+0G/67DPzNnzO195E5YKfiSrQGad77hPz8yB5J+S05/7AzctPjry0MkpXlz+aei0/OqbePSXJgjvne3st3SskGXfKlg3ZPhv8x11/1x/mnpVwkBgLUPcvzow4AAAAAWKc0SNOep+TXD16dQ8qSqYPPyenH7JrdOzZK9/YLto6d0u+Yk3PjyGSXU6/ORWfsk7YLPnVs0O3QnPnzA5M8nBvP+HK14zZO38NPyH2bnpc/33V19kiS2R9kxsdLWHK3WG2y248H5eL+PZKRl+Wcr3XK1lWP8a2zMvKrN+bq//5K4Zgm6XrwTzKgd4fCMY3SfYttcvSZD6bjLx/KrZcfniSZ/f60LP0klQ3StOdxueDKY9MuY3LvBf3Tr2fTBV9v0+z+tf4ZOHhM2vUflFsvPHj5ItTKaPHl9D9n9zw3cmSm9jk0+26/ItfUa5DmvY/Kj/pMzjMjP84ehx+QbWtazdagS/Y957qc179HUn5bBn5rm+y44HXduueXc861DyfZLyffdX2O67m8z6PqFJn/yL2D/5HUGAMB6p4afloCAAAAAFRpnLY7nZKBI1/OrYPuzMWn7leY3y8nXHlnfvu3Z3LrTw8tnOaxVXqcfEOG/P76nNC7w+fDvc/Oxb9/OvdcdUp27P3VBad0HJZ/jlrB68U165HDr3qw8Dj75YQrH84fLzwsmzUs7J8kzXrluN/em99eeXZ2WTjYIbucen1++7cH86uT9s0uvatOe7ms18hrmW5H3pBhIx/N1T8/Ku2qTy38mo9Ot5oiVq2pOn1nh+xxUO90XtGHrlqRVu3UozVpUNY7x171YIb8/rYM6N+j2sx+OeHK+zJk1H05c4+Oiz1+SeafInPnJB0WHwMB6pj15s2bN684CAAAAMCadft6ey/885HzHiuZY+1x2q+Hl9w+om/PlLVZ9FpqQJLKV3PXkfvm/OG75+KRv8/h3VbH6T1XzAPDR2f8pA8X3u65eet8/5CeJfsA6wb/ZAAAAAAAgDqvcsLIDB0+eTVeYw9g5QlxAAAAAADUaZXlI/OHX1+VEdk5B/fbc/VdYw9gJflxBQAAAABAHTQjY677arq3b5Ste+6VSwaPSbsjz8vRvdsUdwSos4Q4AAAAAADqoCYp6/qFBX/ukUN+PjR/vPBgq+GAesWPLAAAAAAA6qBGaXvgdRk3ZW7GTXkhA0/pm67NfKQN1C9+agEAAADACvrbCefm5SFD8+nHs4tTAABCHAAAAACsqG2OOSzPH3ZZ7vvK0YIcALAIIQ4AAAAAVlDn3XulxcFfyJxnKwQ5AGARQhwAAAAArISeZx+/8M+CHABQnRAHAAAAACuhalVcdYIcABAhDgAAAABWXvVVcdUJcgCwbhPiAAAAAGAl1bQqrjpBDgDWTUIcAAAAAKwCi1sVV10xyDX6dE5xF1hJ0/LW+KmpLA4DsEasN2/evHnFQQAAAADWrNvX27s4xFros07NU/7VPnlnm+0zd/3GOaJvz5S1aVncDZZBZWaNfyS3/3pA/rTNzfnbKV9Mw+IurDYPDB+d8ZM+XHi75+at8/1DepbsA6wbrIgDAAAAgDWk4dsz0vH3D2Tna69Jk1kzitOwHGZl/EOXZuDgMcUJANYgIQ4AAAAA1qD3+u2RF086KbObNi9OAQD1nFNTAgAAAMAq8O648Rn2haVfJ67KVtccnT9/1LYkwDk1JStuRsZcd3D6XfCPdP75005NuYY5NSVQxYo4AAAAAFgFRt/0p+JQjba65ugc8t6Q9Dr1WKvgas2cVIx6MA9dd2z2aN8o3au2fuflrqH/yISZlcUDkiSV5f/Oo/dfkQE9C8c89O9ULHLI2xl2Wvd0b//V3DRqRirL/51h1R+v33m5a8RrmVU8rErl5Ix56I7cdNqOnz9W+wNy2e1/zZjyOcW9k/J7MqB9o3Q/7Z5UzHw1wy46YMExnfLd076b77ZvlX4X/CNJ8tYFu2abqn1L7mRaJoz487I/JgArTYgDAAAAgJX07rjxmXzZw8XhEtUDXNONWxenWWXmpHzoT3Lo176Z0y+4LVOrT428LOcf99X0PerqjCmJcXNS8fx1ObfvrvnBCefk3vLCMcfsmt0PvzBPLSZWffbO3/KbHxySU6s/3sjLcv7h++TEix9ZJOJVlo/MLWcckH7HHFW4ptvDufHMg9Ov58G5csSkLNL+kuSzMbnvZ0fk1Gs//35r3K5D2pXsVIPKSXnq4iPS9/Aja37Mvifllucn1/yYAKwwIQ4AAAAAVtKSVsMJcKvZ9Cdy63m/zdT0yCG/fDxPTJqbcVPmZtyUOXlh5OCc0LtDMvK63PqPdxYeUjnlr/n1Mafn3vKkXf/Lc8vI9xccMytP/O33C475ZY7+wXWFgJck/8gVxx2R6/PdXPq3t/PKlLkZN+X9DBt0bnbJ5Dxz9bE550+vfh64KifmkUtPySWDxyRlR2XAn1/OC1PmP8dXRj2ZS0/dL8nDuf7wkzNo1OenNlxoyC8z8NGdct6DCx7rjRH5+Yn/myunfJghP/9KkqTzz5/Oy1PmZtw1h6ZtkuTDjLn+5Bx99cNJ77Nz8V2fP+a4N17OrVeenV3Kb8slx1ycR6bUHBsBWDFCHAAAAACshMWthhPg1ozPxj+Xv5UnKftG+h25W9ou/AS0QZp2OzRnD3k746aMy8ADOy0YfzfP3HRJ7ipP2h05OHdf9aPs3q3qOn2N07bnd/OT667O4WVJRt6eB59/v+oOP1f2g1x73S9zaM8OCz5wbZmuB/48Vwz6QdplckZceluemV6ZpDIzRt6YC24fM/+Yv92Q7++1VZouuJsGZb1y6PnX59ojeyQZmt/f/3xmlDxQknTIHuecm+/ttOCxmnVJ17LGxZ1KVI6/J1deMHTh8zx8j88fM822ym5H/nL+cy2/N7cOGbX402kCsNyEOAAAAABYCcXVcALcmtWw2875WlmS8j/k2qsG5dFRSznd4tyJGXP/c0l2zsH99kxZDZ+YNmh/QE485/Akz+W+4aMLcaxD9jjn1OzbvhjDGqds/1Pzoz4dkvInM2b8rCSzMuHFJzM1Sbv+/dJ7kWOSNOiSfU89I3skmTr40YyZXnz2HbJN502W44PduXnvlWczIknnk47JV2t6zDRO2Rf3Se9MzjN/eDzj5xbnAVhRy/7zGgAAAAAoUX01nABXR7TYKQecdGCSyXnm2pPzg691ytbtG2WP067IQ0P/kQnFU0u+91bGTUySL6XnVq1K5xZqnDadt0y7JFPvfy4TSkLVEsJYg02yWY8OSd7OuHc+SPJBJr38dpJu6b3zlmle3H+BBm27ZpuyVAt41XXL5h0Xd2RNZqd8wqtJkrcu2DXbtG+U7jVtPfvn3iSZ+EYmvafEAawqNf7vAwAAAACwdKNv+pMAV+e0So9T/phhd904/9puC0wdfE5OP+6r6btF4+xx2nV5sXx5roXWIBu2aJ0mxeEkSYu0blHzTNIkzTduURxcug1bpvXi7jIbp2WzRsVBAOooIQ4AAAAAVtCu5/5AgKuTWqbrHsfOvx7cGy/n1kGDc/XPj0q7BbNTB5+ew39wXcYUV8ctVmU+nv5BZifJ5hun+TJ/qjo7M96fXhxcuo+n5YPZSdI2rVqsqujWIXtcOTavTJmbcUvcrkvfslX1mAAs8/9kAAAAAAClBLh6oNlW2e3AQ7P/KbdkxJRZeeKu/8kuSTLy/jz1+qxkk87p3iVJ/pVRr31YPHqBOXn3rdfnX9utR9e0KflUdVxGjn2n5uvQVb6X/4yZnKRTum/aOknrdNymU5LxGfnc64VrzX2usmJCXi5PUrZlNmtb0zXdlkejNG/VNsnkjBs/KcUTXQJQu4Q4AAAAAGAtMTcVQ0+Zf82zb9+SCYvUscZp23OP9CyrNtSoS3p8c+ckz+W+O4dmfA2r5CqnPJjfXXpXkh7Za+duaVoyOzkj7nowLy1y3JyUP3RtfjN8ctL7m9lty6ZJmqbrDl+ef625wbfnodenFY5JUjkxj1x7VUYkaffVL2bzZiv7EW6TdN7ta9kjydRrf50/jaopNs5J+dDTssdiXzcAVtTK/hQHAAAAAKgjGqXtnv1zQlmS4T/PTy/+Y8ZUvxbczFcz7KqBubE81eJYm+zy/fNyeFkydfBxOfrcq/PE+KpANicVo/6YK045PXeVJ+l9TI78SqdFP1QdeVZOrn5c5eSMufN/8pPjfpup6ZHDv39otm3WIEmDNO99Qn5+ZI+k/Jacf9gZuenx1xauUqssfzb3XHxyTr19TJIDc8z39k7ZIg+2OFUr35LZr7+Vd6vFtAbdDs2ZPz8wydAMPPrHuWnov1NRNV85OWOGXpMrzlvwXI/eJ52X+TEBWJr15s2bN684CAAAAADUvtN+Pbzk9hF9e6asTcuSMZbXnFSMuDQ/PvyXeaY4VaXs2Fx89xU5fMuq13pOKp6/KZcdc3ruLS/sW6X3/+TW356T3cqqThX5doad9tWcOvjj7HLyt9Pxnl/XcGyPHPLL63L2Cb3TtlrcqiwfmT9cdEouGTym+s7V7JeT77o5P9qj4+fRr/yeDOjZP/fmxFw76uoaruNWmRkjfp79D/9VplYN9R+cJ645NG2TZOaY3HXud3P+Yh+zRw658o/5xZE9Civ+WBEPDB+d8ZM+X33Yc/PW+f4hPUv2AdYN/m0DAAAAALAWaZy2e/x3fjfy0Vx75dnzrwdXpeyoDLjx/gwZ9n/VIlzmH7PTKfnVsKfz2xsvzSHVT13Z++xc/Pun88RdP6sW4arbMB13OTW/uOfhXHzqfgvGOmSXU6/Pb//2YH51UmmES5IGZb1z7FUPZsjvb8uA/j2qzeyXE668L0NG3Zczq0e4ZdIgzXv/MNdfVe1rfmZ8yucu+HOzHjn8mscz7K7bC49Z7bmKcACrnBVxAAAAALCGWBFXn1WtiEsOGfRoBh7YqbgD6zAr4oAqy/ePKgAAAAAAAIBlIsQBAAAAAABALRDiAAAAAAAAoBYIcQAAAAAAAFALhDgAAAAAgOXWKX2vGZdxU8Zl4IGdipMAkAhxAAAAAAAAUDuEOAAAAAAAAKgFQhwAAAAAAADUAiEOAAAAAAAAaoEQBwAAAAAAALVAiAMAAAAA1hLT8tb4qaksDq+Uyswa/1juuuiAdG/faP7W89jcdP+DGVM+p7gzAJQQ4gAAAACAeq4ys8YPy02n7ZXjHno784rTK2xOKkb8b07svV/Ov/bhz4fLb8vAE76Zfn1/mLten1b9AAAoIcQBAAAAAPXcrIx/6NIMHDymOLFSKsf/v5xz+C/zTPbLCVc9mScmzc24KXPzyqgnc+mp+yXlt+T8AYMyZuaqXYMHwNpDiAMAAAAAWMS7eeb232ZEOmSXn1+QHx7RK20XfJraoKxXDv3xBRnQu0My8vY8+Pz7xYMBIBHiAAAAAABqMH10/jn4uSS755D9t0/T4nyz9um86YZJPkzFtI+LswCQCHEAAAAAQL1Wfk8GtG+Vfhf8I0ny1gW7Zpv2jdL9tHtSkeSzUVdk3/aN0n2Ztu4ZMPTt+ffbYu+cPWpuxk35Uw7v1qT0MZNk5pS89c7HSXbOLlu3Lc4uXuXkjHnojtx02o7VHrdTvnvRTRk24rXMKu6fLLgG3j/y0HXHZo/CMY+OmpxFT4z5doad1v3zr2fma3nq9vPy3apj+52XexYeNycVo+6p9nw65bsX3ZKnxrv2HcCqIMQBAAAAACyzBeHq3BMycGSyy89/kgNrCnU1qZyYYWcdkH7HHFW4nt3kPHPtyTn18H1y4nXPFmLcnFSM+N+c2PurOf2C2zK1cMwPvnZAzr1hZCoWrXFJks8m3J8rj9onR595WZ6pGhx5Wc752gH56dDXUj7i0vz4a/2rPZ/JeebaE3L0of+dYVPmfH5HAKwQIQ4AAAAAqL/KDs3AKR9myM+/kiTp/POn8/KUuRl3zaFpm6Rhz5/kkSlzM26ZtnEZeGCn4iMsMCNjrvtqurdvmt2/1j8DH98pA/789/zulF6LnrayRpWZMfLGXHD7mKTsqJz34Nt5ZeHjvp9hg87NLpmcZy64JSPK5y48Ztao6/Ljw3+ZZ7JfTrjy4Qx7Y87nx9x1Y07o/V7u/Z9T8uuHJtawMm587r/g9AzZ9LzcNWrW/OPeGJtrT90vyZjc9duT85MfjkzPq57ME5PmZtyUOXlh5OCc0LtDUv7bXHDTE5lRvEsAlosQBwAAAACwVB9k0ssLTluZJOW3ZeC3+ucXS1iNVmpWJrz4ZKYmadf/6PTfqUO1D2dbpuuBF+WPU+Zm3JTr0res0fzhytcy9JIr8kx65PBB1+cnR+6drs2qjmqZrnscm59cd3UOLxuTu266Jy/NrOGJ9L481//q5OxQ1nj+7WZfyL5Hfit7JMmz45KTLsgPj+iVtg2SpEGadvtmjvn+N5MkU8s/jKvfAawcIQ4AAAAAYKk6pe814xasRqtaOfZe7v2fI/Lj64unk6xJ03Td4ctpl2TqtQPz29v/mjHlSzn1Y8VLeWb45KTLUTmyb5caP8xt0P5L6bNXt2Tk/Xnq9UWfRed998w2C+PdfA3ads02ZUnSPX1236awoq9RNt50i3ROkooPU1PbA2DZ1fSzGwAAAACAxWqQpt0OzU8uvyB7ZHKeueCKDB0/u7hTQYM03+ngHNO7Q5KHc+OZB6dfz6bp3n7HDLjujgwb8doiMe+zKePzXJJMPCf9NmuU7u1r2jbPqYPHJ3k74975oHAP3bJz13ZpWBjNhi3TukmSfCGd2y/h+nZvvp8ZQhzAShHiAAAAAIC11mejrsi+i8SrxW3dM2BotdNPLkWDrr1zYJ8OScbnzUnLcDW1Zr3y/dv+nluvPDu7LBwck3svOCqnHr5Ndmy/YwYs86kuAagPhDgAAAAAgBXRoGlatt0wyYepmLaMV1NrtlV2O/KS/HHKnLww8tFcO+i2DOjfY8HkmJpPddnnxgybNHfBaTEXt43LwAM7VT8KgDpAiAMAAAAA1loNe/4kjywSrRa3fR6zKsffkuPaN0r3nj/NU9MXs0Rt7tS89cz4JJ3SfdPWxdmlaJCm3b6Svgd+J9+/5oWMm/RWbj19vyST88wfHs/4ucl6LTaef622l9/IFBdrA6iXhDgAAAAAgIKFp50sfyB/+efbWTSDVWbW2H9m+MQkvb+Z3bZsWtyh4O0MO617urfvlONuf3XR+2vQPj32+mLaVR9a+Bz+kGtv+/ci15BLksop9+T8no3Svf23c9dSr1MHwOomxAEAAAAA9VyjNG/VNkky+/W38u4ilWsFNNg8ex59SNplTO467xf5w/OTq8WzaZnw+NX5xdFn5Zn0yOHfPzTbNlvaR62bpvcR30q7TM6IM3+UK+58ttq14Coza/x9+e2Vf8jUdMgu39sr3RolabBVDjzvJ9klk/PMBSfkF9fdkzHlcxYcMycVo+7JoP/9Ze4qT9odeUT27Nrk84cDoE5Y2v86AAAAAADUcY3TpvOWaZdk6u39s2fHRul+2j2pKO62XBqn7MD/za1XHpt25bflkgM6Zev2jdK9faN0b79x+n7rrNxbvl9OGHRnfnpgl2X4oLVBmvc+JZefvl+Sh3PjGV/O7h2r7q9xduzdPzeOnJx2/f83F3zvi5m/vq5BmvY8LhdceWzaZUzuvaB/+vVsuuCYptn9a/0zcPCYtOs/KLdeeHDKlv4kAFjN/GgGAAAAAOq5Bmne+4e5/qqzs0vV0DPjUz63dK/l1zLdjvy/3PO3+3LxqftVG++RQ35+e24deWfOPvALC6LZMmjQMbudf2eG3TW4cH9Ju/6X5urfP517rjo63UpW17VMtyNvyLCRj+bqnx9VcurK9D47F9d4DAB1xXrz5s2bVxwEAAAAAGrfab8eXnL7iL49U9amZckYUP88MHx0xk/6cOHtnpu3zvcP6VmyD7Bu8M8kAAAAAAAAoBYIcQAAAAAAAFALhDgAAAAAAACoBUIcAAAAAAAA1AIhDgAAAAAAAGqBEAcAAAAAAAC1QIgDAAAAAACAWiDEAQAAAAAAQC0Q4gAAAAAAAKAWCHEAAAAAAABQC4Q4AAAAAAAAqAVCHAAAAAAAANQCIQ4AAAAAAABqgRAHAAAAAAAAtUCIAwAAAAAAgFogxAEAAAAAAEAtEOIAAAAAAACgFghxAAAAAAAAUAuEOAAAAAAAAKgFQhwAAAAAAADUAiEOAAAAAAAAaoEQBwAAAAAAALVAiAMAAAAAAIBaIMQBAAAAQB0x59O5xSEAoB4T4gAAAACgjnjvw5nFIaAemj2nNKp379y65Daw7hDiAAAAAABgFZr07oziELCOEuIAAAAAYA3puXnpKpnX33635DZQ/8yc9UlxKK1bNCkOAesIIQ4AAAAA1pBOZS1Kbk96d0bmfPpZyRhQv7w1+f3iUMo2aVYcAtYRQhwAAAAArCHdNt2oOJQ33ppaHALqkX+99J+S282bNEq7jYU4WFcJcQAAAACwhmzVeZM0b9KoZGzE8xOsioN66o23KvLB9NklY7tu3a7kNrBuEeIAAAAAYA06YNfOJbc/njM3z7/8VskYUPfN+fSzjBw1oTicfXp1KQ4B65D15s2bN684CAAAAACsHp/MmZtf3PxUZsyeWzL+9T22zhad25aMAXXXA8NHZ/ykD0vGvrpjxxyyd/eSMaht702fmk/mlq7MrEmbFmVp3GiD4jCrmBAHAAAAAGvY48+9lcH/GF8cFuOgHpjz6Wd5atT4vDBuSsl48yaNct5RvdKyudDBqlMV2d5+f3w++fTjTP5o/grqcRXPFXddLm2adczGTdunyfpN036jTtlow9ZpuWFrsW4VEOIAAAAAoA646d5RGfXmB8Xh7LVT1+y4TafiMFAHzJz1SR4c8VImvTujOJUTv7Fttt/K9eFYce9Nn5r/vP9myqf9J5M+mpC3PxxX3GW1qIp0Xdt8Ie1adMymG3cR55aDEAcAAAAAdcAnc+bm+iGj8vrk6cWptG7RJL17drU6DuqIOZ9+lpden5THn1/0mnBJ8o3dOudrX+5WHIYlqgpvE94bl9crRmXWp4v+70Fd0alV93Rrs206bbyFMLcUQhwAAAAA1BFT35+Zm/4yJpM/+Lg4lSTZsHGjfKFrm2y+6SZpvH6j4jRQy97/aGbeePvdRa4FV53rwrE83pw6Lq+Vj84b747JuzMnFafrje5td87W7XdMt7Kt06LJRsXpdZoQBwAAAAB1yJJWxgF121H7dc8uPToWh6FEVXwbPenJlVr1tnGzjmnccIO0atou6zfaIOs3bJyWTTcp2Wf9huunxYatkyRzP/s00z4uPQXyp3PnZNrH7yVJPpxVkU/nzs77M6dkzmc1/4OQZdGpVffs1GkPUW4BIQ4AAAAA6qDHn3srg/8xvjgM1EEdWm+Y/vtsma06l0YQqDJ99kd5fsLIjJ38zHKvfGu+Qeu0btY+rZq2ScsNN0nLpq2zYeNmxd1WqapoN23W+5n1yfRMnf5W3p85ubjbUu3QcY/ssNmu2bzdurtKVIgDAAAAgDpq2oxP8vdnJ+bRF5bvQ1vqji+f+cviUJLkySv/pzhEPdS8SaMcuW/3bL9Vu+IUJAtWv734n6fz4qQRxanFar5B67Rr2SVtW3TMxs3Laj26LY/3Z0zNe9Mnp2L6fzJl2pvF6cVq06xjdu78lezU5cvr3PXkhDgAAAAAqOOmzfgkr0x4Ly++XpFRb5aeVoy6TYhb+3RovWG27dI6W2zWSoBjsV6ZNCqPvXrvMq9+69R667RpsWnKWnWqU+FtaaZ+9J+8O31y3vngtcz4ZNn+92nXLn3z5a32XWdOWynEAQAAAEA9M23GJ/loxuziMHXQPzscUhxKkuw5+d7iEPVAp/brRjhgxS1PgOvUeut0aL15yjbqlEYN1y9O1zvTP/4wb7/32jJHuXUlyAlxAAAAAAC15Pb19l745yPnPVYyB6w9ljXANd+gdbYs26nerXxbXlM/+k/eendc/vPBK8WpRaztQU6IAwAAAACoJUIcrN3enDouD429Y6kBbrPWW6dbWY9s3HzdOp3px3Nm5p333siEd8cudZXcV7Y8JLttuc9adw05IQ4AAAAAoJYIcbB2mj77owwd9aeMq3iuOFVi87Y7pHuHHdfq1W/L6p3338zL7zy9xCDXdP0W2Xfr/unZZdfiVL0lxAEAAAAA1BIhDtYuc+Z+kucnPplhL99RnFqoccMm2ar9F9O17dZrxbXfVrVJ77+ZlyY9nZmffFicWqhTq+75Zs+jskmL+r+CUIgDAAAAAKglQhysPSZ98Fbue+GWJZ6GcvM2O2TbzXoJcMtgWYLc2nC6SiEOAAAAAKCWCHFQ/82Z+0meev3v+cfr9xanFtq0dfdst9muadK4aXGKpZhY8WpefuepzPlsdnEqSdKmWcd860s/qLer44Q4AAAAAIBaIsRB/fbe9Km5f9RtefvDccWpJEmzDVpl5677pHXztsUplsPczz7N65NfzLjyfxWnFuq7zXey6xZ9isN1nhAHAAAAAFBLhDiov0ZNfDp/GT2oOLzQtpv2zpbtexSHWQnTP/4wL0x4PB/MmlKcSpJ0b7tzDv3iMfXqVJVCHAAAAABALRHioP6ZM/eTPPjin/PipBHFqSRJ66bt07PrXmmxYaviFKvIG1PG5KV3RhaHkyRN12+R7+xyejq27lycqpOEOAAAAACAWiLEQf2ytFNRbrvpl7OFVXCrxfSPP8yoCY/ng1nlxakkyUHbH5eeXXYtDtc5QhwAAAAAQC0R4qD+mPTBW7njmasz69Ppxak026BVem2xn1Vwa8Ar/3kur5X/uzicJNm1S9/03f6w4nCdIsQBAAAAANQSIQ7qh1cmjcrg564rDidJNm29Vbbv3DuNGq5fnGI1qfhoUp6b8Pd8+tns4lQ6teqeI3c7tc5eN65BcQAAAAAAAGBd8fQbwxcb4XbotFd22nyvNGrYKMk82xra2m7UIV/Z5tC0alpWfIvy9ofjcvtT12b67I+KU3WCEAcAAAAAAKyTho2+O8NevqM4nPUbNknv7gelU9utashCtjWxbdC4aXbd6mvp2Hqr4tuVtz8cl9/948K8N31qcWqNE+IAAAAAAIB1zrDRd+fpicOKw2nVtCy9u389rZu3qSEH2dbk1qhho+y0+Z7Zsmyn4tuWWZ9Oz+9HDqxzMU6IAwAAAAAA1ilLinC7btU3zTfcqDhFHfKFTXfKzl2/WhyukzFOiAMAAAAAWEHPXntL3nri2eLwcnl33Pg8NuDifPSfycUpoBYsLsK1bdEpu2y1Xxo2bJR5/qvz/7XfuHN26rpP8W2sczFOiAMAAAAAWEGb9/1KRuwxIPcfcvJyB7mqADfsC8cnSTbarENxF2AVW1yE69Jm2/Taat80arh+cYo6rMPGXdK7+zezfsMmJeN1KcatN2/evHnFQQAAAAAAls1jAy7O5MseTpK0OPgL6Xn28em8e68kye3r7b1wvyPnPZYsCHCjb/rTwmOSpO+rN6dN924LbwOr3tNvDM+wl+8oDqfLJttmu867FIepR2Z8/FGefG1oPv3sk5LxNs065vg9z03jRhuUjK9OQhwAAAAAwEp4d9z4havaqlQFuRF7DFg41vfVmxcJcEnS4ez9svfA80vGgFXrlUmjMvi564rD6bzJNiLcWmLGxx/lqdceXCTGdWrVPUfuduoai3FCHAAAAADASqq+Km55WQ0HtWvSB2/l5if+tzicjq22SM/N9ygOU4+9O21ynn1j0VOP7tBxjxy881HF4dXCNeIAAAAAAFbS9t//dnFomXQ4ez8RDmrRe9On5o5nri4Op1XTdgtWws2zrUVbm5bts2PXPsW3Oy9OGpHHX3mwOLxaCHEAAAAAACupTfdu6XD2fsXhpVrRgAcs3Zy5n+T+Ubdl1qfTS8Y3atouX9ryq2nYcP0aUo6tvm/tW3fOdp16l7znSfKP1+/NK5NGFYdrnRAHAAAAALAKLG9UsxoOateDL/45b384rmRs/YYbZPvOX06jho1qSDi2tWXr1GaLdN5k65L3Pkn+Ovq2vDd9anG4VglxAAAAAACrwPKuilvecAcsu1ETn86Lk0YUh7PLVvunWZOWmTcvtrV826ZTr7RpsVnJ+z/r0+n5879+mzlzPykZr01CHAAAAADAKrKscc1qOKg9702fmr+MHlQcTs8ue6V5kxaLrJ6yrb1bz667p2njliXfB+/OnJQHX/xzyVhtEuIAAAAAAFaRZV0Vt6zBDlg+c+Z+kj//67fF4XTa5Atp37rTIqHGtnZvjRo2yk7dvlL8dsiLk0astuvFCXEAAAAAAKvQ0iKb1XBQe556/e95d+akkrGNmrbNVh171pBpbOvC1qxJy2y72W4l3xNZcL246bM/Kg6vckIcAAAAAMAqtLRVcUsLdcCKmfTBW/nH6/cWh7Nd513TqGGjGhKNbV3ZNmvTLe1bbV7yfTHr0+kZOupPJWO1QYgDAAAAAFjFFhfbrIaD2jFn7ie574VbisPZZrPd0qxJyxrSjG1d27bp9KWs33CDku+PcRXPZdTEp0vGVjUhDgAAAABgFVvcqrjFBTpg5dR0SspNWmyazdpsXkOSsa2L2+KuF/fIK4MzZ+4nxeFVRogDAAAAAKgFXzjq0JLbVsNB7Xhv+tRFTkm5fsMNsm2nLyXz5tlsC7eNmm6cTpt0L/lemfXp9Dz44p9LxlYlIQ4AAAAAYBWbPXt2rvjDLanoOG/hmNVwUDseeeme4lC2bN8zG6y/YQ3romzr+rZFh+0XOUXli5NGZNIHb5WMrSpCHAAAAADAKjR79uz8909/nhEjn8q/yuYlSd7fcv3Mad6kuCuwkl6ZNCrjKp4rGWu5YZts6pSUtsVsjRo2ytabfqnkeyZJho0dXBxaJYQ4AAAAAIBVpHqES5JxTealouO8PN3ik5x8ymmZNKn0GlbAynns1dJTUiZJ9013qiG/2Gyfb+1ab5ZNmncs+b55+8NxeWXSqJKxVUGIAwAAAABYBYoRrsrDm1ZmXJN5KZ9aIcbBKvT0G8Pz7szSv0+bbbJVNmrWuob0YrOVblttukPJ904WE3ZXlhAHAAAAALCSFhfhkqSi0ed/FuNg1Zgz95OMeP2BkrH1G26QrmVbl4zB4jRr0jKbbbJVydi7Myfl6TeGl4ytLCEOAAAAAGAlLCnC/ey/t0tZu8YlY2IcrLznJz6ZWZ9OLxnr0nbrNF6/Seb5z3/L+F+Xsi9k/YalP6NHvP5A5sz9pGRsZQhxAAAAAAAraEkR7urffCnf+HrXXH9dbzEOVqGaV8M1TsdNNk/mzbPZlnnboFGTdGm7Tcn30qxPp+f5iU+WjK0MIQ4AAAAAYAUsLcLtuktZkqRjx2ZiHKxCNa+G2yaNGlY7Dywso46bbL7Iqrjn3vpHye2VIcQBAAAAACynZY1wVcQ4WHWKkWT9ho3TYZOui5x20H/+W5b/GjZsmM5tS68t+O7MSXll0qiSsRUlxAEAAAAALIfljXBVxDhYea9MGpV3Z5b+Xencdmur4VgpHTfZvDiUx169tzi0QoQ4AAAAAIBltKIRrooYByvnqfGPFIdS1nrTJPNsthXeGjVsmE033qLk++rdmZMy6YO3SsZWhBAHAAAAALAMVjbCVRHjYMW8N31q3v5wXMlYx423SOP1N6whrdhsy7d1Lute8r2VJGP+82xxaLkJcQAAAAAAS7GqIlwVMQ6W378n/LM4lE3bbF5DUrHZln/bYP0m2bh5+5Lvr6cnDsucuZ+UjC0vIQ4AAAAAYAlWdYSrIsbB8hk96cmS2y023DhNN2ieefPm2WyrZNu0TbeS77EkefmdF4pDy0WIA/j/7d15dFT1/f/xVyb7vhJIwr5E9k0Wl6iIFqqtguBSW0WF1rW2ioKKtrbuglulP6XWyGLtIoIgX6VFEaoUFUVEQCEsJixJyL5MJskkM/P7Iwtz70z2sCR5Pu55n+N9f+69cxOH5Jx55fO5AAAAAAAADThZIVwdwjigefZm7pStqtTQ6xk30LAPtFVMeLz8fI0/j3cc2WLYbymCOAAAAAAAAADw4mSHcHUI44Cm7cv+1txSbHg3j+UFKaqtlRjTz/A+O1KUptKKYkOvJQjiAAAAAAAAAMDkVIVwdQjjgIbZqyv1baZxVlJCTH9ZfP28xCgU1baKj0oyvNckaUf6VnOr2QjiAAAAAAAAAMDNqQ7h6hDGAd4dytlrbik2oruXCIWi2l4hQWEKDggzvN/2ZG0z7LcEQRwAAAAAAAAA1DpdIVwdwjjAk3lZSj/fAMWEdzP0gPYUF5lo2M8ry2z18pQ+LpfLZW4CAAAAAAAAQFdTUVGhBffeqv/7eIsK039Qnr1uJEBjb7xQD88conOvSFJCc6c3OEu1fV26dm7dpjkL97sN9NCsRZM0bWxPTZkcJ+O8ixqZmWW6/Y6PtPuT7fqhqP5GPM1apczlM5Rg7gOdyPP/uV+2qtL6/YSYfhqYNNxwTOeXp0/nPqTfr842DzTgx3ps2+26IN5Xjl2rNeuKpcqcsUDvvHCuYs2HwoOtwqrt+zcZeleOmK1RfSYaes3R3F8ZAAAAAAAAANBpVdjSNeeycfrzkje1P809hJMku75+8yPNnL5YiZes1/LtpXK6D3uoUNqHW3RTzyc1bvpbphBOkrK1Yt4/NfOS55R802faluUwjdfOjFs4UL4VjYRwQBeQWXjYEMJJUmRIrHk1wa5RLeXtXPM1Ka8VEui5POXe7G8M+83FjDgAAAAAAAAAXVpF3nZNu+jH2vBdnqRoJQxIVExUtEIDfGqXo4xU2sf79N7yTZq3IlvSID208Ro9MTnCy0yHCu19431NnvOlshShSfMv1d1T+xtnvlnz9PG/v9Py33ygFVmSJv1UX607X2eH+RiuVL39Ew0c94Eyeo3QmJ5R8ncb6x7fTUteWazEROPyaUBn88ne9frvgTWG3rlDfixfXz9Dr/PL06f3LdCjq+N023u/13UjgswHoJ2lZ+/T0TzjH1L87qd/Mew3h+fvCQAAAAAAAADoIioqjuuXM6+tCeEi+mjw2cPUKz7GLYTrLilIyZNH6f7lt+v71PFK0H49fcMmrTlmnsnmknX7V7pjzpfK0iA9tPHX2vjsBM0wLz8ZFqfJV1+opdvn6KFJEdLmT7Tg7TzTLDuncjPylaEIXXTPBUrimXHoog7lfWfYDw+O7oIhHE6HyNAYc0uZhYfNrSYRxAEAAAAAAADokioqKrTgrpv1f58ckgISNGhQL0UE1MxKOxHCuQvS4NmXa92iwVLWZ/r1y+kqcR925untBZ9os3po9qoZDcyYO8GSMFALnrtQk1SiDY98rc0l7ouXlev7L45KCtfE0bH6yyvnqTthHLoYe3WljhSlGXqxET081xHsMlXH3KdORkWERLl9z2scKThkbjWpsd8DAAAAAAAAANApVVRU6OFHFmjjf79SsQIUntC9iRCuTrDGXD9OsxOkrIWf65206voR54EM/WtDiTRpnO6cEtWMD199FDZmsO5+4Wqt+vMg9XQ/wWlT+jelknpq4pDgmmfGEcahi8krPW5uKSI0Wq4uu9Ux9xvfqne9qxv6TdPk+7Yqv76bq0/uu02T+92mp/+dK0fOAX3y2ku6pt80Te43TZP7ParX3v5S+3KqPK7XVTaLr6/Cgo1hXHrePsN+czT9uwAAAAAAAAAAOpGaEO732rL1E5Xml0iKUFxMqHybDOFqWJL66Rc3Jkk6pv/uttZ2q3Vgyz5tkDTgJ/00yvS8twZZ4jTj3nGaMaO/kt3PsZZo364SaUqS+hT/oDceSFVS0uNat3ajtu04oKz8YlU4aj6WJ4xDZ+Vt9lG4l1lKaAu7crav08Ir7tMfnt6k/Pr+N/rnA0/ojt9+oDSbceHcriQqNM6wn5b7tWG/OQjiAAAAAAAAAHQZJ0K4zyWHXRU2uyR/+VncnwnXlED1PCtGUoH+d6hMNXPiKnV0X4GkJM0cG6W2PsGqev8xrcqStGG1xg35q+Ys3H9isCJLR9K+1bd7j6jEThiHzss8+ygsOEoul6vLVh1zvznl7dwaBdr5+lp9nTJbz258Sx8delcfHXpLy16dqVGS9Pm7Sl2XKYeXa3aFigiJrv/e1ckvzTG3GkUQBwAAAAAAAKBLMIRwkuSoVpVdUlCQHl48vpkhnCRZFB4VYupVqSi7XFKgukX6m8ZaqlqHdh7RQUlKGKtFG+5XqesZueqq9H7945GRCirJ0N79mSpjZhw6qaNFbgG0pEjT7KSuabdem3a9Lu1/VYM1668H5TCf1piJs/X4Yz/R2f3qfq6FqOfUK3XDbQMkFeqrbUdUZDqlqwgJCjO3lFuaZW41iiAOAAAAAAAAQKfnEcK5i+2p4eObG8K1QfUxPTfwQfn4eKuFuml13Ufdfkqe/Yua0C3zWt3/ozgZPgoOi9PP/niZFv8sXirJVYH1xHPqCOPQWdirK2WrKjX0gvyDJLm6cDVXQ+d57ydOHqIBIT6msRD1GT2ggfO6TgX4B8rP1/jHFcXlhYb9phDEAQAAAAAAAOjUGgzhfP10WZykY3Zl5LbkGUhOlRbZzM1alcotrjI3258lXBf+qLukUhVW2Q2zXwjj0BnklR43txQcFOYlKulaJQ3TrWv/rg8PrW6wlv9qgCxez/XW66FhvSO9Hl93jrfzulKFBRmfS2heMrUpBHEAAAAAAAAAOq0GQzhJL/9prCaNjZCUq0OZJ2aVNa3ueXAxOr9/aO3z4MI0/KIkSaX6Jt0mr7GeX5LuP+C2xKTrGblcj+mrRf3NRzbDieUxK0YNUEx8gGGUMA4dXW6J5/J/4SGRXmKSrlby0mtOtea8OuZ+16rQ4Ai374VUYMs27DeFIA4AAAAAAABAp9RoCPfSOE08Z5BSrusjKU/vbzouq/mgBjiP/aC33jwmKUkXDa9bNNJXiaP6aJJKtOFfGTrgNYk7SUICtfCV89SdMA6dSEV1uWE/KCDUsA+cKoH+QYb9vLKW/UwliAMAAAAAAADQ6TQZwk3oLslPA1PO0hSVaPMLX2vDMfcFHms4077SVJ9UPfDGQaVZXZLKteMfX+mNLClh9ihNHVgzH07yUdiYs3TjlAhpwxY9u6bQ+6y45nDm6o2pT8nHZ7Ee+LjMPFqrbnnMCE25qLtGJoZqCWEcOhHz8n+B/sFydfmthrnbnK2Ot675WPN448d0/i04yPCUTklSfmmOudUggjgAAAAAAAAAnUrzQrgaluRhemrRYCnrM8284SOtTqtwO9olm9NHPRL2a+Gcv+qs5JV65pl1umLeXkmDNffOAUpy/4TVEqdrn7pQk5StN2au1kOrc5uYZeeSNS1Nb7+fZ2xbomtn6h3Tm//JVolxtIY1S++9mSGpj65LiZZFUiJhHDqxoICapViBU83PUvcHFydUVrv/rmgcQRwAAAAAAACATqMlIVyNYJ09d4Y2PjRI2rxJM896Sw+8sVfbsxw1s9wGn63lmQ9q1awYKetrPfTQ18pSD81K/bFuPzvYdC0fhZ09Tq+mjleC9mvhzOeVfNMnemftMWW5T49zlmr72l1644E3FH7W37Rwc4mUMEAXDa1b/sxPA6eO0uwEKWvhOt39YobhfGfWES1/fIPmbZYmLbpQ1yaf+JCYMA5ngvLycpWXG5eWbKm03K8N+4H+QZLL1cWr9pvh0W+qGjqvob5bNTXeBSo40DME9vYMw4YQxAEAAAAAAADoFFoewtWyRGjyE9fqixfG1gRoc5ZpXOLD8vF5sLae0cwVBW4nZGvFmzu0anupl+UngzR49nRt/+o6zZ8UoawVH+ia6YuV6Ft3rQfl4/ukxk1/S3MW7pfUQ7MWzda+tBmaPfjEc4gsSUP0xJppmpWQrRVzXzWc75v4/3TzwuOaNP9K/eX2njIvmkYYh9OtvLxcF110kVavXt3mQK6Or8XXY8nArrXVMfebt3mea2Q+3niMud/1NjPzMwwbQxAHAAAAAAAAoMNrdQhXxxKuCfdeq6OZd2vNqhmaPynCOJ4wVotW3qBVq36h1PmDpM3/1c3jnlTPObt1zCON81XC2WP07Ka52rdxllalXqRJhvEITZo/Q6tW3ap9pb/V8vuTlRzmYzhC8lXChHO1dPvdWmM6P2HW5Vq58Vate3a4l/NqEMbhdIqJidGsWbM0c+bMVgVy9upKc0shXp7TBZwqkaFx5laz+bhcLs8oDwAAAAAAAAA6iDaHcC3mUNb2/Vr/9ud6s9slWnd/L49ZaWeKzMwy3X7nVh3PsRv63eO7ackri5WYmGjoA+2loKBAsbGx9fvjx4/Xgw8+qMsuu0zBweZlXY0yCw8r9X9PGnpD+45TWEikoQecKvsyvlFxWX79fnK3sbpu4m2GYxrCjDgAAAAAAAAAHdapD+FUO+NtsGY/e7M2ncEhnJgZh9MoJiZGixcvrt//8ssvWz1DDujICOIAAAAAAAAAdEinJ4TreAjjcLr8/Oc/N7daHciFhURIclHUaalA/8ZncTaGIA4AAAAAAABAh0MI1zKEcTgdzLPi3LU0kPOMRijq1FVAQJD5LdlsBHEAAAAAAAAAOhRCuNYhjMPp4G1WnLtmB3IuF0Wd3molgjgAAAAAAAAAHQYhXNsQxuFUa2xWnDv3QO6fb/9DVfZq0xHmOUoUdSqr9XxcrjbEeAAAAAAAAABwCm3atFkPPvx7c1vDhobplT+fr6AgP/MQvPi/99P1+JN76ve3ffapYRw43ZIGddMF14zWoLN7yT/AT+OGTDIfApwy2XlHdDT3YP1+crexum7ibYZjGsKMOAAAAAAAAAAdxsUXT9Ktc24xt7XnO6sefuRLVVSYZ9HA7Ittxw0hHHAmOrY/V/986kN9tmZXbcc8Q4miTnW1DkEcAAAAAAAAgA5lzpxbvIZxW7YWEMY14Yttx/Wbe74yt4EzTsqMUfrtkut04bVjJC+RCEWd6motgjgAAAAAAAAAHQ5hXMs1FMKlnHeOysvL5XK5KOqk1Lx588xvuwbNmzdPn365WVNumajYpEi3EXMsQlGnslqPIA4AAAAAAABAh0QY13yNhXBPPvGYgoKCzENAu0hLS9OiRYvMbQ/z5s3Tvn37tHDhQvUf0M88LIfD4ZmNUNQpKluF1fyWbDaCOAAAAAAAAAAdFmFc0wjhcDq9/vrr5paBewCXnJxsHq5XXlkmFxvbadoczirzW7LZCOIAAAAAAAAAdGiEcQ0jhMPp1NhsuOYGcCd4maZEUaesjKJD4sytBvm4XC7PKwAAAAAAAABAB5OaulSvpS41t5VyXoyefGK8goL8zEOt4FDW9gP6bOchLZ7zX22u7w/S/NSJmpoyUJOTvYVbdm1/bpnGzTtkHjBKGKtFL4/SxecP1NkJvubRFiGEw+k2f/58jyBu3rx5+uUvf9lk+Pb4/91m2E/uM0qhweGGXruzfqdlU5/R/275o5b8sp+8/gt0ZunDOU/r5S1F5pETpv9GKxaNU7S5rxPn/23o7Xp13lCFSJKqVbh7t75a/6Fefm1X7YE9NfmBK3TeOUM0fniUl1lVVTq28i+6fcE284CbyVqwdZbO7eZ5dv35L3XXk/+5WiPDfCS5VJG+Tzu+3Kl1C95X3Z1o4k/0m5snaNzkfor2dilJztwf9OXmbVrrdl7M9J/p1qlDNLTB88p17LM9+m7LJrevO0ojbp2haZeNbuDrruH5ej01+YEZumLaaA3s1h4/6432pe+UraK0fn/KkOs1ccAkwzENaehrAAAAAAAAAIAO5WTPjHNmZejFmxYrcdxSzTSEcJK0Xwvn/E2XnLVEN72YoSynYbD5sr7WvGuWalziMi34uEStvQwhHE4382y4ls+AM7Lair3MUmrHcubqs6f+plU5da/o5Ri5JFuBjqU1EsJJnue4lfNwmj7dIvXpG6UguSRVKX/DW7rnqhfcwihJOqqPn31VT1y1UH9aeUQVHtcqV356/c02wHyOWzlz9d0HaVJyvGJDJKlKhZ+t0WM/ekpPuYdwkvTF+3r5jkc1a9a7+ja3yuNazuNf6s/TH9UTpvMK1vxTz9zxqO554FMdtTlNr1+gb59frNtnvWz6uou067U39MRVv9cjz+9WodN8705VHPpUf/J4vaP6+NmXde/0ZfrwkM3jHtta7iFcSxHEAQAAAAAAAOg0TlYY58zar0d+/pbmrsiWJl2k1DV3K9PxjFyumnJk3q1Vi8YqQdlaMfct/fyFI7KaLyJJitGsVQ/Wn2cuR+ZdWjZ/kKT9evqGTVpzzGG+QJMI4XAmqHs2XGsDuBD/kzz7zZ0tS589v1RPrTxqHvHgSE/X/3IkTb9bK/Yv1zpv1dBsOFUp68tvtUODdMH4OFkkOY9/o7f+uFEF6qnJD9yvJTuX1Vxj57N6/IHzFaOj+vilj7XjuOlnlyNfB/6dLuliLdi61PMe9i/Xuv03NzAbTnIe3q9Pt0hjLh+kBEvNfbx5/7vapZ6a/MDdenFrau01UrXi3Vs1c2KU9MW7ev7Fb5Tv/hcCzjx98ad39WGOFDP953r8wyW15y3RkmU/1+R4qWDNeq3eku/2hwXVyv9onZ5fsluKP1+3/L8/asW+2nve9ye9+OxPNEJF2rXk73rzozzDHyQ4j2/Xazf+VR/LeN7arY/qnluHSzmf6OXff6IDNpfbWe0vPjzR3GqQ9/8DAAAAAAAAANBBtXsY5yzUmkfe19ObpUkPzVHmxss0e1qSEtw+XbUkJGnG/TO1feOlmqQSbZ63UUu2l7tfpVksCb1009MztGp2Dylrj/7yn4IWzYojhMOZ4OjRmkCrNQFcnZ5Rgwz7tgqrXO2+OVWe/pWW3fqMnnptt9urmY+r2xwqzsxRtqI0ZkKiIjzGm9rKlZeeK6WM0NDefnLJrqxPPq8JsW79hW795XAlhtS+ekh3jZo9Q7dd01PK2a71n+TI4X6tgjylH5aU0k+9Y308XqnxzanyrOPK0CCljI+Vj8d9nK0B3Xxrj/VV1PDzdOMTMzRGUsHKz7X9sL3+So7De7R+5VEp/qea++iPNKpvUO1IkBLPn6wbH71EMTqqD/+xR1nO2rOcOdr+j+0qUF/NfO5numpKH0VZascskRowY7ruemq8ZD5PJdq1Yp0+zInSmHt+qmlu5/l066fJd83QLROjpC+2asvO0vp7bOtmLS9xe2/UCPRv/s9SgjgAAAAAAAAAnU77hXEulWzepl+/kS1NulDPLRhoCOCMfJUw+Vz9bn6SpL164e1MeX582wyWSJ37kz6SSrRrX0kDM+s8EcLhTNGzZ89WB3B1gvxrnp5Wx+Gollyu9itHgb59/nld+6PFWvWFNPz2u/TQfYNrXsx8bH1ZdeSbHyRFqX/PUFk8xpuo0iPasSZdPc7rpe4+LslVooxtGZL66uKUJIWYj/eJ1qgrRitGRcr4oVAV9WNO2Q78oJ2SYobEKcrHy2s1WqU68OluFfTup349/SRHrvZ8sL/h+3C5ZOk1UCkpUZIytHtfSW3foeJ9h7RDUsy0oRoYav7e+Sr23LN1cbyktBzllTkll0vOjP3asqVIih+uMcNDPV5LLj/1GDdCYyRpyyFl5Dlq+rXfP8WnaOaPu3t+/4N7auK0QZLS9b/deXKYx9tSJuHBkeZWgxr8lQEAAAAAAAAAHVm7hHHOPL3z7HZlKUnzfzdGZ4f5mI8wCdWke2ZozapbtO6evoowDzeLRd36xGqApKzscpWZh70ghENn0yOyl2G/1NbUc9layFWsgx/sliZcrntWP6on5o5QN1/zQSZOq45/XySpr5IHhJpHm+CSbfd32pTTV+cPj5WvJDlKlP11TiPX81HIgL4aJalg7Xc6YK0LhKpVdPS4ChSvUaO6yxhZNoP1qHasTVfM1L5K9JVkSdCP3nhR76U9qpvOaWBJUEugwuICTM0q5R/Olhq7j7DuSj4vXsrZrR27a/6swNL3Av0xbane2zJTIxv4mWoJDVGUqVe3LGjMtKEa6PU8fyVefafeS1uq137Zt+Z73A6sNs/nw4UHEcQBAAAAAAAAQNvDOGuJ9u0qkRSjs3oGmke9siQkadqMs3R2Qms/BnYqNyNfByUl9AiWt4/n3RHCoTOKDPZ8ylq1s9pj2cBWbz5RGv7w77VsxdW6eHik6hZ3rOFxdM1mK9SxtCIppY/iSvfqw0XP6crkW2oq5a9a/e+9OmZzms+q3aza/+luFcQP0+jhoTW9uuUle8crLqaB5SVjYtSnt6Qcq6zlddeuUO4PuZJ6a3iiVTvfeVsL6u4j+Xd68fUvtDPdZr5S7eZU2e492pTTV5Mu6Klgj/EGNmu29m3NqXnN5LDarlU5afmSotUnMcR8Ru0WorjkaEllKig5saRl45tTZQdrZvydWHqzbllQKSA6SAGy6djnn2jZDfc28+tu/WavqjC8D3tFtWymJ0EcAAAAAAAAgE6tLWGcM7tQ32RJGtBLo/r7mYdPDusxvbX4e0lJunFqj0Zn1RHCobOK8BLEVVS2/LmLDbJEauDFfRXdgpTEkZ6hrTmStizXfT9epMV/3XNiMGerlv3mWd1x63v6NtfLzxRnqXK+LzLM5nKW2dT8eX5Zyj5eVfOfjjwd/E+6pK+0eMaj+t2C9TrxhLuj2rRwiX435RW9+Xmhl2dM1s6mix9Wsyxks1Qrf+t2bc5R7fPt/GvazkqV5dXeU5Ny9f3hEjnMbW+cBdr53k4VKEpjLh+oHhbVzr7LktRNQ3pWa88Lr+iOWUu1elvdd7Cpr7v17FWVhv3okHjDflNa8BYDAAAAAAAAgI6ptWGcs9Smg5I0IEThJ/3TVIeytu/Wc3et0rzNJdKkMbp2gtfF3iRCOHRyidG9zS2V2UokuU5i1TH3XZLsOr73kLIlKf483bz0Kf0rLVVr6+qbp/TH+ecpZtta/e7ejTpgcxrOdx7ery1b/DVqVLxCansuq1VZDb5ew/flPHJYOw9LUpIunn+vXv3m9RP3kfZnvbr0Ol0cv0fvzFqutbvLjNdy5um7Dw5I5/VVr7DmvLZLzuM79ffHPlaBRurmuWOVaKkdc1Wo9HBdEOZ53oky3n/jVaX8j9brtXeOShOm6obLu8tiuE6Vsv/2tl5cIs149hEt21v7de99Qc8/e5mGa4/euf99fXG8ysu1W1fmZVHNy6Y25aT/6gAAAAAAAACAM0FrwzhJ0kGbSttlikWBVsx8Rj4+D3qph5U47m+atyJbShiv1FfHNfhMOkI4dAXmJQBtlWVeYpL2K3fmMZf8lXD1HVqTlqo1W+Zo+vndFeg+HtJdo2ZP16+uTpK2fa7/fet+r1XK+mq3dqiPhiWHt+A1vR/j0/cCPZqWqjVpj+m3vxyuhBAft+ODlXD+ZN34+8mK0bd6b32G3KM4x+H9+nSLNHpCoiK8vJa5HLnf6a373tJHOUm6+Kmr9ePhdTGi93vzVs05pqaqVfD5B3rh1x+rIP4C/fqxCzTA7WurUaTvt5Vr7J9v0g1X9VOUpfZcS6QGXHW5bpk/Usr5Wv+37ojKPa7f8ir3MgszPjzR3GoUQRwAAAAAAACALqOlYZwlPEQDDJ2TK2HW5Vq56lbtS5uh2YO9h2mEcOgqEiP7GvbLK0yzu9q93JnHmlGWcPUZmyApQ5s/PSJb/ViJMrZlSCnDNbS3X/3xPmGh6tHk67kzjzVUvopK7q3ekgrWfqeD1rrZeQ4Vp/2gbzRQKeNi3GaaeS9n7h79/d5UvbNNGn77dZo1I1FB7sf4BCqsd1Qz7q05X0OVCj9/X8/PWqvdGqarn5umyf2DvF8n5Ueacam3+w9W33POUg8VaffWoypwmsdbXmXlJe43L0mKi+hubjWKIA4AAAAAAABAl9KSMM7SI1qjEyQdPKKdhxqZMWdQobTt+bKa25KkGM1a9aBcrme8VubyC3X1jP5KZiYcoO4RPQ379qoK2asq5XK5Tk7Vv5KXsWaVRUHhNc9dK8gtU0Vdv/S40rbaNfqyAeruc+J4n5BgRUmSx3XMJUk91D3ez8uY96q/dk6ZrDZnbb9MR3amSynDNKRX49dy5OzRW/em6p1tLg2/7RbN/e0QRbndu8vlksvHX6FxNc+LM59vKElSNw3uFSaLeczlkstVpYLPPtDzs97Tbg3TzOU36/qJkfIxH1f3vycuWEHme6ktS3ycBktShlU2p+d4S6u8wlb3qjUvHZqo8KBIQ68pBHEAAAAAAAAAupxmh3ERPTT1xiRJufrf7lI1a3XKkmNKvWKRwn1e03Pb7ebRViOEQ1fTM6afuaUKL0sFntlcsu3+XptzotSvZ5gxlImJVZ9eko7kKreggZ8uBfnKOCIpPlShwd4D+mazHtWOtRmKHhKnqAbToXJlbv1Qi2e8qFXbwjTpyXv18NyhivZ6fKi6JcdIKlBGZpl5sFaZctMKJIUoOiLAPCjZjmtn6grdd9N72h2forvW36YbzonyEl75K6bXifmDp4rVZpwRlxjZ37DfHJ5fCwAAAAAAAAB0Ac0L40I0bmqyEpStNxbv0Q7riTkz3lUr7Z3PtTBL0pSxunKMlw+eW4EQDl1RbHi8uaUSa6HH8oHtW/LSc0nOLH00535dddYTWvF5qee4XJKqVV5ilRSp0eMTFCmXJKsObtmjwvihGjM8xHi8b5h6nN1NUrrSDnpfdtNxPFd7JSm5m2JDJMmuzHeW6KqzfqXZz33vtvylsZxlNhVJUkpf9Y71keSUbfd32pzTR5NSkmR80lttOYu0f9k/9Mgtb2tzzlBdtfg23Xa1aTlKQ/kppld3Sbna+e1x7/fiKFH29lxJcUrsEWC8x9z9WvfHV/WHhZ+pcMJleuDNa3Spx3KUdeWjyOS+Gi1JW9N1tH65TWPVf7/6hCrYx3O8JVVVXSl7VcWJN5+kvrHG5xY2B0EcAAAAAAAAgC6r6TDOoYhJE/Tn2T2kzZ/o/qcOKKuBiSuSS9a9O/XkI7sk9dDs2wZoYDt8AksIh65sZGKKYd9qK/ESmbRf1TH3XZZYDblsYM3z37YcldfYzHZU29YekDRQ54+LlY8klyNfB/+doehpQ9Q/zMd0Trh6je/dyDWt2vPvL5WtyJplLS2SS/7qPm64RksqXPu9Dlhrlmw0lk2HNn6tbwzn2ZW556AK44dq9PBQz3OcRfr2paWa//RnKow/V7esvEW/mNJDgebjDGVRRHK/Ru7FpbIvv9Z7RySlDNeQ3v71Y47c7/X3uX/RG2uOKXr69Xr2hSs0sW+wl9c4UT69B+j8lEgpZ6v+9a90lXscY9MPX+wzfb9aX2U2zwWGvc3SbEo7/BoAAAAAAAAAgI6ryTDOHq7pj12q2Qkl2vx0qhIvWa831h4zBHLOrGNa/dxKJQ9ZqRVZEZr00E/0xPToNn8ASwiHrs48A8leVamq6kovsUl7VB1z3yXJTz0uGK9L4qXCv/5Lry87oELniXFn7g/a9MpaLd8mDZs/Ref39avpHzminUcamoVmumbqHmXaamd62bK1M/VtvfTXDCl+jKZcECtL7XmW3mdpytVJUs56vfT4Zu3PrTpxTWeRDr67XssW7pImTNEvLo+vOc9ZoPStxxU9bYgGhJm/xioVfPSBXvrLd5JG6KZXr9UVIyPqX6+xMt7LR9qZbqsdsylz60d6fd56FSpJl1x3lnpY6u4xT9teelurthVLE67Rgkcv0qBuvh7X9ihLvM6/d4qGqVh7Fq7Vyg1Zqqgba+jrbkOVWIvc3hNSiH+411maTfFxuWoe8wcAAAAAAAAAXVlq6lK9lrrU3FbKeTF68olxqj68T4/f9p4WbjY+M8ioh2a9cJWe+W0fJRhSOLu2P7dM4+YVadaqW7V8RpT7oFeEcICUX5qjV/77O0MvIb6PYqLiDL22q9TB1D9r/sI0dZ+/QIvn9JGv+RBVq/DbLfrbXf/Q5hzzmCRFativrtftd45WYoiPpCplvrNUdz8s3fmfW3RJX3/zCZJsOpj6huYv3GUeqJWkSxbfpdunxBqCfWfuQb3/3FtatuaYW9fNhMs07/GpOqdvsCTJmf4/PTl1rfTkXD18dQ/jHwnY0rX2tle0Yluxe7dBxu+PSxW7N+qpmSu1x3xgreirb9fCx8coxqJmHW+UrFmrfq1pwwNr98uVueE/WnL3eu/nx5+vO5dfo0v613zdbbH3wE45nLXPC5U0sc8UTRkx03BMc7T1DzIAAAAAAAAAoFNofGbcV/LrPVjPbpqrfRtnaeWisUowHDVI81Nv0MZ9t2v5veYQruUI4YAaseHxigtNNPRKT9pz4uqY+3Xlq+iRF+mu1Q/pgSenapjbGdHTZ+r+5XO14P7RSgypvYYzT9+vPyClDNWQ3jUz5DwrWAPm3KbXV92lO3811O2KkRr2qxv0wKrf6PYpMR6zuyzd+uuKp3+jha/coOkTIk+cFn+OZv1prhb/5Uqd07fueWt2ZX+1W99ogM4b53ktZ85RfdvMEK6G+/lS0PBL9Ictnt8TTZiqO195SIseH62YutlwqlLB3oPeQ7QGub9ekBKnXKkF/5mr++efo+j6Y4Zq+pN3aeHq63VJg8+Za35Zy4oNIZwk9Y4daNhvLmbEAQAAAAAAAICbxmfGjVdQkJ95qF0RwgFGn+xdr/8eWGPoDRkwUhaL55w1oD1kHj+iwpI8Q++BH7+sAL+6mXnN18a/ywAAAAAAAACAzqXxmXFfqqLCOEuiPRHCAZ56xQwwt1RSVuJlHhNFtU+VWAsN77eRiSmtCuFEEAcAAAAAAAAAnk5HGEcIB3jXLz5ZIf7hhl5+YY6X+ISi2l41y1I6DO+3s3qMNOy3BEEcAAAAAAAAAHhxKsM4QjigcSMSzzXsV1TaVFVdZegB7aHUWmJuqX/8YHOr2Xz/8Ic//MHcBAAAAAAAAABIY8eOkUXS9h3fGPqHj5TrwP5CXXRhgvz82jbfgRAOaFpUSJy+zNhk6Pn5+ik4ONTQA9rC6XToaHa6oTcyMUXDksYaei3Rtt8QAAAAAAAAANDJncyZcYRwQPPEhscrLjTR0CsqKTDsA21VXFJkbrVpWUoxIw4AAAAAAAAAmnYyZsYRwgEtE2AJ1r6cHfX7DqdDAQGBCgzk3wrax7HsDDndng8X4h+uK8fMMhzTUi37zQAAAAAAAAAAXVR7zowjhANabkjSaHNLxcWFkksU1eayWktVVWU3vL/G97nEsN8aBHEAAAAAAAAA0EztEcYRwgGtE+AXqIl9phh6ZeWlKi8v80xVKKqFVViUa3hvSdKYvueZWy3G0pQAAAAAAAAA0AJtWaaSEA5om+CAMO048qmh5+Pjo9DQcEMPaInycpvyCo4beiMTUzSy1wRDrzW8/zYAAAAAAAAAADSoNTPjCOGAtkuM7q3kbmMNvaKSAlVXVxl6QEuUlBaZWxrf7yJzq1UI4gAAAAAAAACgFVoSxhHCAe1nQr+LzS3lF+R4LDVIUc2p6mq7ikoKDO+n5G5jlRjd29BrLYI4AAAAAAAAAGil5oRxhHBA++oXn6y40ERDr6ikUFXVVV5iFopqvLKOZxreS5J0QfJl5lar+bhcLpe5CQAAAAAAAABovtTUpXotdam5rWFDw7TnO6u5TQgHtNHezJ1a+fUrhl5IcJh6JrbPLCZ0DeUVNh05lm7oJXcbq+sm3mbotQUz4gAAAAAAAACgjRqaGUcIB5wcgxNHecyKs5VbVV5hM/SAxuQX5Jlb7TobTgRxAAAAAAAAANA+Ggrj3BHCAe1n2mjPf285edlysbE1YyspLZat3PjHEu35bLg6BHEAAAAAAAAA0E4aC+MI4YD2lRjdW8ndxhp6lZUVKi4uNPQAM6fTqfzCXHO73WfDiSAOAAAAAAAAANqXtzCOEA44OS4depW5pbyCXDmcDo8ZUGxsdVtRcYGqquyG983EPlPafTacCOIAAAAAAAAAoP25h3GEcMDJExser4l9phh6TqdDOTnZhh5Qx26vVH6BcTZciH+4zh10qaHXXnxcLpfL3AQAAAAAAAAAtN2mTZt17rnnEMIBJ5G9ulKLNz4sW1Wpod8zqbeCgoINPeDI0QxVVlYYelOGXK+JAyYZeu2FIA4AAAAAAAAAAHRoezN3auXXrxh6Fouv+vTuJ4uFxQFRo7CoQAUFeYZer6hk3Zxyn6HXnnj3AQAAAAAAAACADm1w4igldxtr6DmdDuXmHjf00HXZ7XaPEE6Spgy7xtxqVwRxAAAAAAAAAACgw7t81M8U4h9u6FnLSlVqLZGLrUtvDqdDWdnHDO8NSbpo4HQlRvc2t9sVQRwAAAAAAAAAAOjwwoMidelgz9lNeXk5stvt5ja6kPz8PFVXVxl6vaKSdeHgywy9k4EgDgAAAAAAAAAAdAqj+kzUyMQUQ8/pdCo3N1tOp0OSi+piZbWWqLS02PCekKQrRt1obp0UBHEAAAAAAAAAAKDTuGzktR5LVFZWVio/P89LTEN15qq025WT4/mcwCtHzFZseLy5fVIQxAEAAAAAAAAAgE4jwC9Q10/4jbmt0tISlZQUe4lrqM5YTqdDWZlHzW8DjUxM0ag+E83tk4YgDgAAAAAAAAAAdCqJ0b115YjZ5rby83JltVrNbXQyTqdT2VmZcjqdhn5caKIuG3mtoXey+bhcLpe5CQAAAAAAAAAA0NFt2LVKX2RsMPQsFot6JCQqICDA0EfnkZtzXGVlZYZeiH+4bj5v/ilbkrIOM+IAAAAAAAAAAECnNGnIT9UrKtnQq5stZbdXeixnSHX8ys/L9QjhJGnGmFtPeQgnZsQBAAAAAAAAAIDOzF5dqcUbH5atqtTQr5kZlyB/ZsZ1Gvl5ebKWGv8/S9KVI2af0ufCuWNGHAAAAAAAAAAA6LQC/AJ183nzFeIfbug7nU7l5ebK6XR4zKqiOl41FMJN7DPltIVwIogDAAAAAAAAAACdXWx4vG4+b765LbvdruNZ2XI6neYhdCD5efkNhnBTRsw0t08plqYEAAAAAAAAAABdwt7MnVr59SvmtiwWi7on9JB/gL95CGe4grx8WUut5rZ6RSXr5pT7zO1TjiAOAAAAAAAAAAB0GY2GcT0I4zqSgrx8Wa3eQ7ifn/NrBfgFmodOOYI4AAAAAAAAAADQpTQWxnWL76bAoNMf4KBhTqdTBXkFstls5qEzKoQTQRwAAAAAAAAAAOiKGgrjJCk2LlYhYSHmNs4ATqdTudm5stvt5qEzLoQTQRwAAAAAAAAAAOiqfshJ0+odr8lWVWoeUnhEuKJiosxtnEZV9irlZOfI6XSahzSxzxRNGvLTMyqEE0EcAAAAAAAAAADoyvJLc7Rs60KvYVxQUKBi42NlsVjMQzjFbFabCguKGgzhpoyYaW6fEQjiAAAAAAAAAABAl5ZfmqN1O9/UkaI085D8/PwUGx8r/wB/8xBOAafTqeKCYpVZy8xDkqQpQ67XxAGTzO0zBkEcAAAAAAAAAADo8uzVlXp3+zKl5X5tHpIkRURFKCIq3NzGSVRlr1JhXqHs9irzkEL8w/WTETdqcOIo89AZhSAOAAAAAAAAAACg1oZdq/RFxgZzW5IUGBSo6Ngo+fr5mofQzspKy1RUUGxuS5LiQhN17bg7FBsebx464xDEAQAAAAAAAAAAuNmbuVPv73rT63PjLBaLIqLCFRoeah5CO3BUO1SYX6TKikrzkCQpudtYXXX2zQrwCzQPnZEI4gAAAAAAAAAAAEwae26camfHRUZHyD/AzzyEViottqqkyDP8rHOmPw/OG4I4AAAAAAAAAAAAL+zVlfr8wMf674E15qF6YRGhCosMl8XiYx5CM9kr7SrMK5Kj2mEekjrYUpRmBHEAAAAAAAAAAACNyCw8rLXfLFVeWaZ5SKpdrjI8Kkyh4SHmITSiyl6tksISVVbYzUP1Lho4XecMnNxhlqI0I4gDAAAAAAAAAABoQnNmx/n6+So8KkzBocHmIbhxVDtkLbbKZi03D9WLC03UtNG3KDG6t3moQyGIAwAAAAAAAAAAaKbMwsPasGdlg8+OkyGQCzIPdWk1AVxZowGcap8FN6bPuR12Fpw7gjgAAAAAAAAAAIAW2pnxhT7au1K2qlLzUD1fP1+FhocoJDRIPl34GXL2yiqVl1U0GcAldxury0f9TOFBkeahDosgDgAAAAAAAAAAoBWas1ylJFksPgoMCVJYRIh8/XzNw52Sy+lSRXmlbKU2VdmrzcMGvaKSNWXYNR1+GUpvCOIAAAAAAAAAAADaoLSiWJ/t/0hfZGwwD3nwD/BTSHiwgoIDO+UsueqqapWVlqvSVimns/EIKi40URefNV2DE0eZhzoNgjgAAAAAAAAAAIB20JJATpICQwIVFBygwA4eylVXVau8rFKVtko5qh3mYQ9dIYCrQxAHAAAAAAAAAADQjkorirUjfau+zNjY6DPk3AWGBCog0F8BQX7y8/czD59RXE6X7JVVqiy3y15R1azwTbXPgJvQ72L1i082D3VaBHEAAAAAAAAAAAAngb26Uody9urzQx/pSFGaebhBvn6+8gvwO2OCOUe1U9VV1bJXVsleUaXqJp755i7EP1wjEs/V2X0vUGx4vHm40yOIAwAAAAAAAAAAOMnyS3O0Pf1T7cr8rNmz5NwFBPnL188ii6+vAoL85GOxyM/f13xYm7icLlVXVctR7ZSj2qmqyprZbo5qp/nQJvWKStY5/S9V//jBCvALNA93GQRxAAAAAAAAAAAAp9APOWnaf3xXq0M5dz4WH/kH1MyY8/W1yOJnMR/SoKrKmpltTqerRbPcGtIrKlljeqWof/fBCg+KNA93SQRxAAAAAAAAAAAAp0ldKHcwb7fyyjLNw2e8kYkp6hubTPjWAII4AAAAAAAAAACAM0BpRbEOHd+r4yVHz9hgLrnbWPWNO0u9YvorMbq3eRgmBHEAAAAAAAAAAABnoNKKYuWVHFdOaaayi48os/jQKQvnQvzD1TNqkBIieysyOEY9Y/opNjzefBiaQBAHAAAAAAAAAADQgeSX5qiyukK5JVmqqC5XsS1fhba8+vGjRfsbffZcr6hkBfuHSZKC/EPUI7KXJCk+PFGB/kGKC++uAL9A01loDYI4AAAAAAAAAAAA4CSwmBsAAAAAAAAAAAAA2o4gDgAAAAAAAAAAADgJCOIAAAAAAAAAAACAk+D/A5q8ibAXqATUAAAAAElFTkSuQmCC;" vertex="1" parent="1">
          <mxGeometry x="-239" y="40" width="272" height="206.86" as="geometry" />
        </mxCell>
      </root>
    </mxGraphModel>
  </diagram>
</mxfile>
